G75*
G70*
%OFA0B0*%
%FSLAX24Y24*%
%IPPOS*%
%LPD*%
%AMOC8*
5,1,8,0,0,1.08239X$1,22.5*
%
%ADD10C,0.0560*%
%ADD11C,0.0780*%
%ADD12OC8,0.0700*%
%ADD13C,0.0640*%
%ADD14C,0.1340*%
%ADD15C,0.0690*%
%ADD16R,0.0690X0.0690*%
%ADD17C,0.0555*%
%ADD18C,0.0900*%
%ADD19C,0.0808*%
%ADD20OC8,0.0780*%
D10*
X006367Y013420D02*
X006367Y013940D01*
X007367Y013940D02*
X007367Y013420D01*
X008367Y013420D02*
X008367Y013940D01*
X009367Y013940D02*
X009367Y013420D01*
X010367Y013420D02*
X010367Y013940D01*
X011367Y013940D02*
X011367Y013420D01*
X012367Y013420D02*
X012367Y013940D01*
X013367Y013940D02*
X013367Y013420D01*
X014367Y013420D02*
X014367Y013940D01*
X015367Y013940D02*
X015367Y013420D01*
X016367Y013420D02*
X016367Y013940D01*
X017367Y013940D02*
X017367Y013420D01*
X018367Y013420D02*
X018367Y013940D01*
X019367Y013940D02*
X019367Y013420D01*
X021367Y010940D02*
X021367Y010420D01*
X022367Y010420D02*
X022367Y010940D01*
X023367Y010940D02*
X023367Y010420D01*
X024367Y010420D02*
X024367Y010940D01*
X025367Y010940D02*
X025367Y010420D01*
X026367Y010420D02*
X026367Y010940D01*
X027367Y010940D02*
X027367Y010420D01*
X028367Y010420D02*
X028367Y010940D01*
X028367Y007940D02*
X028367Y007420D01*
X027367Y007420D02*
X027367Y007940D01*
X026367Y007940D02*
X026367Y007420D01*
X025367Y007420D02*
X025367Y007940D01*
X024367Y007940D02*
X024367Y007420D01*
X023367Y007420D02*
X023367Y007940D01*
X022367Y007940D02*
X022367Y007420D01*
X021367Y007420D02*
X021367Y007940D01*
X032607Y016180D02*
X033127Y016180D01*
X033127Y017180D02*
X032607Y017180D01*
X032607Y018180D02*
X033127Y018180D01*
X033127Y019180D02*
X032607Y019180D01*
X032607Y020180D02*
X033127Y020180D01*
X033127Y021180D02*
X032607Y021180D01*
X032607Y022180D02*
X033127Y022180D01*
X035607Y022180D02*
X036127Y022180D01*
X036127Y021180D02*
X035607Y021180D01*
X035607Y020180D02*
X036127Y020180D01*
X036127Y019180D02*
X035607Y019180D01*
X035607Y018180D02*
X036127Y018180D01*
X036127Y017180D02*
X035607Y017180D01*
X035607Y016180D02*
X036127Y016180D01*
X019367Y016420D02*
X019367Y016940D01*
X018367Y016940D02*
X018367Y016420D01*
X017367Y016420D02*
X017367Y016940D01*
X016367Y016940D02*
X016367Y016420D01*
X015367Y016420D02*
X015367Y016940D01*
X014367Y016940D02*
X014367Y016420D01*
X013367Y016420D02*
X013367Y016940D01*
X012367Y016940D02*
X012367Y016420D01*
X011367Y016420D02*
X011367Y016940D01*
X010367Y016940D02*
X010367Y016420D01*
X009367Y016420D02*
X009367Y016940D01*
X008367Y016940D02*
X008367Y016420D01*
X007367Y016420D02*
X007367Y016940D01*
X006367Y016940D02*
X006367Y016420D01*
D11*
X002367Y016180D03*
X002367Y015180D03*
X002367Y014180D03*
X002367Y013180D03*
X002367Y012180D03*
X002367Y017180D03*
X006367Y019180D03*
X007367Y019180D03*
X008367Y019180D03*
X009367Y019180D03*
X010367Y019180D03*
X011367Y019180D03*
X011367Y020180D03*
X011367Y021180D03*
X010367Y021180D03*
X009367Y021180D03*
X009367Y020180D03*
X010367Y020180D03*
X008367Y020180D03*
X007367Y020180D03*
X007367Y021180D03*
X008367Y021180D03*
X006367Y021180D03*
X006367Y020180D03*
X011867Y012180D03*
X012867Y012180D03*
X013867Y012180D03*
X022867Y013180D03*
X023867Y013180D03*
X024867Y013180D03*
X025867Y013180D03*
X026867Y013180D03*
X035867Y008180D03*
X036867Y008180D03*
X037867Y008180D03*
X026867Y021180D03*
X025867Y021180D03*
X024867Y021180D03*
X023867Y021180D03*
X022867Y021180D03*
D12*
X029867Y024180D03*
X030867Y024180D03*
X032367Y023680D03*
X032367Y024680D03*
X036367Y024680D03*
X036367Y023680D03*
X037867Y024180D03*
X038867Y024180D03*
X036367Y014680D03*
X032367Y014680D03*
X031617Y012930D03*
X030867Y012430D03*
X031617Y011930D03*
X029367Y013180D03*
X029367Y009180D03*
X020367Y009180D03*
X020367Y013180D03*
X003617Y013680D03*
X003617Y009680D03*
D13*
X030867Y008480D02*
X030867Y007880D01*
X031867Y007880D02*
X031867Y008480D01*
X032867Y008480D02*
X032867Y007880D01*
D14*
X031867Y002280D03*
X002867Y008180D03*
X002867Y024180D03*
D15*
X012617Y019180D03*
X013617Y019180D03*
X004867Y017180D03*
X003867Y017180D03*
X031867Y010180D03*
X033867Y011930D03*
X035367Y013180D03*
X036367Y013180D03*
D16*
X033867Y010930D03*
X030867Y010180D03*
D17*
X030036Y015137D03*
X030036Y015924D03*
X030036Y016711D03*
X030036Y017499D03*
X030036Y018286D03*
X030036Y019074D03*
X030036Y019861D03*
X030036Y020649D03*
X030036Y021436D03*
X030036Y022223D03*
X038697Y022223D03*
X038697Y021436D03*
X038697Y020649D03*
X038697Y019861D03*
X038697Y019074D03*
X038697Y018286D03*
X038697Y017499D03*
X038697Y016711D03*
X038697Y015924D03*
X038697Y015137D03*
D18*
X037867Y011889D03*
X037867Y010511D03*
D19*
X004867Y007621D03*
X006867Y007621D03*
X008867Y007621D03*
X010867Y007621D03*
X012867Y007621D03*
X014867Y007621D03*
X016867Y007621D03*
X018867Y007621D03*
X018867Y010180D03*
X016867Y010180D03*
X014867Y010180D03*
X012867Y010180D03*
X010867Y010180D03*
X008867Y010180D03*
X006867Y010180D03*
X004867Y010180D03*
D20*
X016367Y019680D03*
X017367Y019680D03*
X018367Y019680D03*
X018367Y020680D03*
X017367Y020680D03*
X016367Y020680D03*
M02*
