G75*
G70*
%OFA0B0*%
%FSLAX24Y24*%
%IPPOS*%
%LPD*%
%AMOC8*
5,1,8,0,0,1.08239X$1,22.5*
%
%ADD10C,0.0040*%
%ADD11C,0.0080*%
%ADD12C,0.0020*%
%ADD13C,0.0030*%
%ADD14C,0.0060*%
%ADD15C,0.0050*%
%ADD16R,0.0240X0.0340*%
%ADD17R,0.0500X0.0350*%
%ADD18C,0.0010*%
%ADD19R,0.0340X0.0240*%
%ADD20C,0.0100*%
D10*
X004387Y010660D02*
X004387Y011120D01*
X004617Y011120D01*
X004694Y011044D01*
X004694Y010890D01*
X004617Y010813D01*
X004387Y010813D01*
X004540Y010813D02*
X004694Y010660D01*
X004847Y010737D02*
X004924Y010660D01*
X005077Y010660D01*
X005154Y010737D01*
X005154Y010813D01*
X005077Y010890D01*
X004924Y010890D01*
X004847Y010967D01*
X004847Y011044D01*
X004924Y011120D01*
X005077Y011120D01*
X005154Y011044D01*
X005307Y011120D02*
X005614Y011120D01*
X005461Y011120D02*
X005461Y010660D01*
X006637Y010737D02*
X006944Y011044D01*
X006944Y010737D01*
X006867Y010660D01*
X006713Y010660D01*
X006637Y010737D01*
X006637Y011044D01*
X006713Y011120D01*
X006867Y011120D01*
X006944Y011044D01*
X008637Y010967D02*
X008790Y011120D01*
X008790Y010660D01*
X008637Y010660D02*
X008944Y010660D01*
X010637Y010660D02*
X010944Y010967D01*
X010944Y011044D01*
X010867Y011120D01*
X010713Y011120D01*
X010637Y011044D01*
X010637Y010660D02*
X010944Y010660D01*
X012637Y010737D02*
X012713Y010660D01*
X012867Y010660D01*
X012944Y010737D01*
X012944Y010813D01*
X012867Y010890D01*
X012790Y010890D01*
X012867Y010890D02*
X012944Y010967D01*
X012944Y011044D01*
X012867Y011120D01*
X012713Y011120D01*
X012637Y011044D01*
X014637Y010890D02*
X014944Y010890D01*
X014867Y010660D02*
X014867Y011120D01*
X014637Y010890D01*
X016637Y010890D02*
X016790Y010967D01*
X016867Y010967D01*
X016944Y010890D01*
X016944Y010737D01*
X016867Y010660D01*
X016713Y010660D01*
X016637Y010737D01*
X016637Y010890D02*
X016637Y011120D01*
X016944Y011120D01*
X018637Y010890D02*
X018637Y010737D01*
X018713Y010660D01*
X018867Y010660D01*
X018944Y010737D01*
X018944Y010813D01*
X018867Y010890D01*
X018637Y010890D01*
X018790Y011044D01*
X018944Y011120D01*
X015030Y015160D02*
X015030Y015620D01*
X015260Y015620D01*
X015337Y015544D01*
X015337Y015390D01*
X015260Y015313D01*
X015030Y015313D01*
X014877Y015313D02*
X014877Y015237D01*
X014800Y015160D01*
X014647Y015160D01*
X014570Y015237D01*
X014570Y015313D01*
X014647Y015390D01*
X014800Y015390D01*
X014877Y015313D01*
X014800Y015390D02*
X014877Y015467D01*
X014877Y015544D01*
X014800Y015620D01*
X014647Y015620D01*
X014570Y015544D01*
X014570Y015467D01*
X014647Y015390D01*
X014416Y015467D02*
X014416Y015544D01*
X014340Y015620D01*
X014186Y015620D01*
X014109Y015544D01*
X013956Y015544D02*
X013956Y015467D01*
X013879Y015390D01*
X013956Y015313D01*
X013956Y015237D01*
X013879Y015160D01*
X013726Y015160D01*
X013649Y015237D01*
X013496Y015313D02*
X013265Y015313D01*
X013189Y015237D01*
X013265Y015160D01*
X013496Y015160D01*
X013496Y015390D01*
X013419Y015467D01*
X013265Y015467D01*
X013035Y015467D02*
X013035Y015083D01*
X012958Y015007D01*
X012882Y015007D01*
X012805Y015160D02*
X013035Y015160D01*
X012805Y015160D02*
X012728Y015237D01*
X012728Y015390D01*
X012805Y015467D01*
X013035Y015467D01*
X012575Y015390D02*
X012575Y015313D01*
X012268Y015313D01*
X012268Y015237D02*
X012268Y015390D01*
X012345Y015467D01*
X012498Y015467D01*
X012575Y015390D01*
X012498Y015160D02*
X012345Y015160D01*
X012268Y015237D01*
X012114Y015160D02*
X012114Y015390D01*
X012038Y015467D01*
X011961Y015390D01*
X011961Y015160D01*
X011807Y015160D02*
X011807Y015467D01*
X011884Y015467D01*
X011961Y015390D01*
X011654Y015620D02*
X011347Y015620D01*
X011501Y015620D02*
X011501Y015160D01*
X011194Y015160D02*
X011194Y015467D01*
X011040Y015620D01*
X010887Y015467D01*
X010887Y015160D01*
X010887Y015390D02*
X011194Y015390D01*
X013649Y015544D02*
X013726Y015620D01*
X013879Y015620D01*
X013956Y015544D01*
X013879Y015390D02*
X013802Y015390D01*
X014109Y015160D02*
X014416Y015467D01*
X014416Y015160D02*
X014109Y015160D01*
X011597Y017660D02*
X011290Y017660D01*
X011136Y017813D01*
X011290Y017967D01*
X011597Y017967D01*
X011520Y018120D02*
X011213Y018120D01*
X011136Y018197D01*
X011136Y018351D01*
X011213Y018427D01*
X011520Y018120D01*
X011597Y018197D01*
X011597Y018351D01*
X011520Y018427D01*
X011213Y018427D01*
X011366Y017967D02*
X011366Y017660D01*
X010597Y017660D02*
X010290Y017660D01*
X010136Y017813D01*
X010290Y017967D01*
X010597Y017967D01*
X010597Y018120D02*
X010597Y018427D01*
X010597Y018274D02*
X010136Y018274D01*
X010290Y018120D01*
X010366Y017967D02*
X010366Y017660D01*
X009597Y017660D02*
X009290Y017660D01*
X009136Y017813D01*
X009290Y017967D01*
X009597Y017967D01*
X009597Y018120D02*
X009290Y018427D01*
X009213Y018427D01*
X009136Y018351D01*
X009136Y018197D01*
X009213Y018120D01*
X009366Y017967D02*
X009366Y017660D01*
X009597Y018120D02*
X009597Y018427D01*
X008597Y018351D02*
X008597Y018197D01*
X008520Y018120D01*
X008597Y017967D02*
X008290Y017967D01*
X008136Y017813D01*
X008290Y017660D01*
X008597Y017660D01*
X008366Y017660D02*
X008366Y017967D01*
X008213Y018120D02*
X008136Y018197D01*
X008136Y018351D01*
X008213Y018427D01*
X008290Y018427D01*
X008366Y018351D01*
X008443Y018427D01*
X008520Y018427D01*
X008597Y018351D01*
X008366Y018351D02*
X008366Y018274D01*
X007597Y018351D02*
X007136Y018351D01*
X007366Y018120D01*
X007366Y018427D01*
X007366Y017967D02*
X007366Y017660D01*
X007290Y017660D02*
X007136Y017813D01*
X007290Y017967D01*
X007597Y017967D01*
X007597Y017660D02*
X007290Y017660D01*
X006597Y017660D02*
X006290Y017660D01*
X006136Y017813D01*
X006290Y017967D01*
X006597Y017967D01*
X006520Y018120D02*
X006597Y018197D01*
X006597Y018351D01*
X006520Y018427D01*
X006366Y018427D01*
X006290Y018351D01*
X006290Y018274D01*
X006366Y018120D01*
X006136Y018120D01*
X006136Y018427D01*
X006366Y017967D02*
X006366Y017660D01*
X005538Y018910D02*
X005307Y018910D01*
X005307Y019370D01*
X005538Y019370D01*
X005614Y019294D01*
X005614Y018987D01*
X005538Y018910D01*
X005154Y019370D02*
X004847Y018910D01*
X004694Y018910D02*
X004694Y019217D01*
X004540Y019370D01*
X004387Y019217D01*
X004387Y018910D01*
X004387Y019140D02*
X004694Y019140D01*
X004617Y019910D02*
X004463Y019910D01*
X004387Y019987D01*
X004387Y020140D02*
X004540Y020217D01*
X004617Y020217D01*
X004694Y020140D01*
X004694Y019987D01*
X004617Y019910D01*
X004847Y020063D02*
X004847Y020370D01*
X004694Y020370D02*
X004387Y020370D01*
X004387Y020140D01*
X004847Y020063D02*
X005001Y019910D01*
X005154Y020063D01*
X005154Y020370D01*
X005154Y020910D02*
X005154Y021370D01*
X005307Y021370D02*
X005538Y021370D01*
X005614Y021294D01*
X005614Y020987D01*
X005538Y020910D01*
X005307Y020910D01*
X005307Y021370D01*
X004847Y021370D02*
X005154Y020910D01*
X004847Y020910D02*
X004847Y021370D01*
X004694Y021294D02*
X004617Y021370D01*
X004463Y021370D01*
X004387Y021294D01*
X004387Y020987D01*
X004463Y020910D01*
X004617Y020910D01*
X004694Y020987D01*
X004694Y021140D01*
X004540Y021140D01*
X004963Y022160D02*
X005117Y022160D01*
X005194Y022237D01*
X005347Y022237D02*
X005424Y022160D01*
X005577Y022160D01*
X005654Y022237D01*
X005654Y022544D02*
X005577Y022620D01*
X005424Y022620D01*
X005347Y022544D01*
X005347Y022237D01*
X005194Y022544D02*
X005117Y022620D01*
X004963Y022620D01*
X004887Y022544D01*
X004887Y022237D01*
X004963Y022160D01*
X005040Y022757D02*
X005117Y022757D01*
X005194Y022833D01*
X005194Y023217D01*
X004963Y023217D01*
X004887Y023140D01*
X004887Y022987D01*
X004963Y022910D01*
X005194Y022910D01*
X005347Y022910D02*
X005501Y022910D01*
X005424Y022910D02*
X005424Y023217D01*
X005347Y023217D01*
X005424Y023370D02*
X005424Y023447D01*
X005424Y023660D02*
X005347Y023737D01*
X005424Y023813D01*
X005654Y023813D01*
X005654Y023890D02*
X005654Y023660D01*
X005424Y023660D01*
X005194Y023660D02*
X005194Y024120D01*
X005194Y023890D02*
X004887Y023890D01*
X004887Y023660D02*
X004887Y024120D01*
X005424Y023967D02*
X005577Y023967D01*
X005654Y023890D01*
X005807Y023813D02*
X005961Y023967D01*
X006038Y023967D01*
X006191Y023967D02*
X006191Y023660D01*
X006191Y023813D02*
X006345Y023967D01*
X006421Y023967D01*
X006575Y023967D02*
X006575Y023737D01*
X006652Y023660D01*
X006882Y023660D01*
X006882Y023583D02*
X006805Y023507D01*
X006728Y023507D01*
X006882Y023583D02*
X006882Y023967D01*
X007496Y023737D02*
X007572Y023660D01*
X007649Y023660D01*
X007726Y023737D01*
X007726Y024120D01*
X007802Y024120D02*
X007649Y024120D01*
X007956Y023890D02*
X007956Y023737D01*
X008033Y023660D01*
X008186Y023660D01*
X008263Y023737D01*
X008263Y023890D01*
X008186Y023967D01*
X008033Y023967D01*
X007956Y023890D01*
X008416Y023890D02*
X008493Y023967D01*
X008647Y023967D01*
X008723Y023890D01*
X008723Y023660D01*
X008877Y023660D02*
X008877Y023967D01*
X009107Y023967D01*
X009184Y023890D01*
X009184Y023660D01*
X009337Y023660D02*
X009567Y023660D01*
X009644Y023737D01*
X009567Y023813D01*
X009414Y023813D01*
X009337Y023890D01*
X009414Y023967D01*
X009644Y023967D01*
X009798Y023890D02*
X009798Y023737D01*
X009874Y023660D01*
X010028Y023660D01*
X010104Y023737D01*
X010104Y023890D01*
X010028Y023967D01*
X009874Y023967D01*
X009798Y023890D01*
X010258Y023967D02*
X010258Y023660D01*
X010565Y023660D02*
X010565Y023890D01*
X010488Y023967D01*
X010258Y023967D01*
X010028Y023447D02*
X010028Y023370D01*
X010028Y023217D02*
X010028Y022833D01*
X009951Y022757D01*
X009874Y022757D01*
X009721Y022910D02*
X009721Y023140D01*
X009644Y023217D01*
X009491Y023217D01*
X009414Y023140D01*
X009414Y023370D02*
X009414Y022910D01*
X008953Y022910D02*
X009260Y023370D01*
X008800Y023140D02*
X008800Y022910D01*
X008647Y022910D02*
X008647Y023140D01*
X008723Y023217D01*
X008800Y023140D01*
X008647Y023140D02*
X008570Y023217D01*
X008493Y023217D01*
X008493Y022910D01*
X008340Y022987D02*
X008340Y023140D01*
X008263Y023217D01*
X008109Y023217D01*
X008033Y023140D01*
X008033Y022987D01*
X008109Y022910D01*
X008263Y022910D01*
X008340Y022987D01*
X008263Y022620D02*
X008416Y022467D01*
X008416Y022160D01*
X008416Y022390D02*
X008109Y022390D01*
X008109Y022467D02*
X008109Y022160D01*
X007956Y022237D02*
X007879Y022160D01*
X007726Y022160D01*
X007649Y022237D01*
X007726Y022390D02*
X007879Y022390D01*
X007956Y022313D01*
X007956Y022237D01*
X008109Y022467D02*
X008263Y022620D01*
X007956Y022544D02*
X007879Y022620D01*
X007726Y022620D01*
X007649Y022544D01*
X007649Y022467D01*
X007726Y022390D01*
X007496Y022620D02*
X007189Y022160D01*
X006882Y022160D02*
X006882Y022390D01*
X007035Y022544D01*
X007035Y022620D01*
X006882Y022390D02*
X006728Y022544D01*
X006728Y022620D01*
X006575Y022544D02*
X006575Y022467D01*
X006498Y022390D01*
X006268Y022390D01*
X006268Y022160D02*
X006498Y022160D01*
X006575Y022237D01*
X006575Y022313D01*
X006498Y022390D01*
X006575Y022544D02*
X006498Y022620D01*
X006268Y022620D01*
X006268Y022160D01*
X006268Y022910D02*
X006268Y023140D01*
X006191Y023217D01*
X006038Y023217D01*
X005961Y023140D01*
X005807Y023217D02*
X005654Y023217D01*
X005731Y023294D02*
X005731Y022987D01*
X005807Y022910D01*
X005961Y022910D02*
X005961Y023370D01*
X005807Y023660D02*
X005807Y023967D01*
X006421Y023217D02*
X006421Y022987D01*
X006498Y022910D01*
X006728Y022910D01*
X006728Y023217D01*
X006882Y023217D02*
X007112Y023217D01*
X007189Y023140D01*
X007189Y022987D01*
X007112Y022910D01*
X006882Y022910D01*
X006882Y023370D01*
X007342Y022987D02*
X007419Y022987D01*
X007419Y022910D01*
X007342Y022910D01*
X007342Y022987D01*
X007572Y022987D02*
X007649Y022910D01*
X007879Y022910D01*
X007879Y023217D02*
X007649Y023217D01*
X007572Y023140D01*
X007572Y022987D01*
X008416Y023660D02*
X008416Y024120D01*
X010181Y023140D02*
X010181Y022987D01*
X010258Y022910D01*
X010411Y022910D01*
X010488Y022987D01*
X010488Y023140D01*
X010411Y023217D01*
X010258Y023217D01*
X010181Y023140D01*
X010642Y023140D02*
X010718Y023217D01*
X010872Y023217D01*
X010948Y023140D01*
X010948Y022910D01*
X011102Y022910D02*
X011102Y023217D01*
X011332Y023217D01*
X011409Y023140D01*
X011409Y022910D01*
X011562Y022910D02*
X011793Y022910D01*
X011869Y022987D01*
X011793Y023063D01*
X011639Y023063D01*
X011562Y023140D01*
X011639Y023217D01*
X011869Y023217D01*
X012023Y023140D02*
X012023Y022987D01*
X012099Y022910D01*
X012253Y022910D01*
X012330Y022987D01*
X012330Y023140D01*
X012253Y023217D01*
X012099Y023217D01*
X012023Y023140D01*
X012483Y023217D02*
X012483Y022910D01*
X012483Y023217D02*
X012713Y023217D01*
X012790Y023140D01*
X012790Y022910D01*
X010642Y022910D02*
X010642Y023370D01*
X015887Y021717D02*
X015887Y021410D01*
X015887Y021640D02*
X016194Y021640D01*
X016194Y021717D02*
X016194Y021410D01*
X016347Y021563D02*
X016501Y021410D01*
X016654Y021563D01*
X016654Y021870D01*
X016807Y021870D02*
X017038Y021870D01*
X017114Y021794D01*
X017114Y021640D01*
X017038Y021563D01*
X016807Y021563D01*
X016807Y021410D02*
X016807Y021870D01*
X016961Y021563D02*
X017114Y021410D01*
X017268Y021333D02*
X017575Y021333D01*
X017728Y021487D02*
X017805Y021410D01*
X017958Y021410D01*
X018035Y021487D01*
X018035Y021563D01*
X017958Y021640D01*
X017805Y021640D01*
X017728Y021717D01*
X017728Y021794D01*
X017805Y021870D01*
X017958Y021870D01*
X018035Y021794D01*
X018189Y021870D02*
X018419Y021870D01*
X018496Y021794D01*
X018496Y021640D01*
X018419Y021563D01*
X018189Y021563D01*
X018189Y021410D02*
X018189Y021870D01*
X018649Y021870D02*
X018802Y021870D01*
X018726Y021870D02*
X018726Y021410D01*
X018802Y021410D02*
X018649Y021410D01*
X018956Y021333D02*
X019263Y021333D01*
X019416Y021410D02*
X019416Y021870D01*
X019647Y021870D01*
X019723Y021794D01*
X019723Y021640D01*
X019647Y021563D01*
X019416Y021563D01*
X019877Y021563D02*
X020107Y021563D01*
X020184Y021640D01*
X020184Y021794D01*
X020107Y021870D01*
X019877Y021870D01*
X019877Y021410D01*
X020030Y021563D02*
X020184Y021410D01*
X020337Y021487D02*
X020414Y021410D01*
X020567Y021410D01*
X020644Y021487D01*
X020644Y021640D01*
X020491Y021640D01*
X020644Y021794D02*
X020567Y021870D01*
X020414Y021870D01*
X020337Y021794D01*
X020337Y021487D01*
X016347Y021563D02*
X016347Y021870D01*
X016194Y021717D02*
X016040Y021870D01*
X015887Y021717D01*
X003904Y016370D02*
X003597Y015910D01*
X003290Y015910D02*
X003290Y016370D01*
X003137Y016370D02*
X003444Y016370D01*
X003597Y016370D02*
X003904Y015910D01*
X003904Y015370D02*
X003597Y014910D01*
X003444Y014910D02*
X003290Y015063D01*
X003367Y015063D02*
X003137Y015063D01*
X003137Y014910D02*
X003137Y015370D01*
X003367Y015370D01*
X003444Y015294D01*
X003444Y015140D01*
X003367Y015063D01*
X003597Y015370D02*
X003904Y014910D01*
X002864Y017910D02*
X002864Y018370D01*
X002788Y018660D02*
X002557Y018660D01*
X002557Y019120D01*
X002788Y019120D01*
X002864Y019044D01*
X002864Y018737D01*
X002788Y018660D01*
X003018Y018660D02*
X003171Y018660D01*
X003095Y018660D02*
X003095Y019120D01*
X003171Y019120D02*
X003018Y019120D01*
X002404Y019120D02*
X002097Y019120D01*
X001944Y019120D02*
X001637Y019120D01*
X001637Y018660D01*
X001637Y018890D02*
X001790Y018890D01*
X002251Y018660D02*
X002251Y019120D01*
X002327Y018370D02*
X002404Y018294D01*
X002404Y018140D01*
X002327Y018063D01*
X002097Y018063D01*
X002097Y017910D02*
X002097Y018370D01*
X002327Y018370D01*
X002557Y018370D02*
X002864Y017910D01*
X002557Y017910D02*
X002557Y018370D01*
X002251Y018063D02*
X002404Y017910D01*
X001944Y017987D02*
X001944Y018140D01*
X001790Y018140D01*
X001637Y017987D02*
X001637Y018294D01*
X001713Y018370D01*
X001867Y018370D01*
X001944Y018294D01*
X001944Y017987D02*
X001867Y017910D01*
X001713Y017910D01*
X001637Y017987D01*
X001637Y011370D02*
X001867Y011370D01*
X001944Y011294D01*
X001944Y011217D01*
X001867Y011140D01*
X001637Y011140D01*
X001867Y011140D02*
X001944Y011063D01*
X001944Y010987D01*
X001867Y010910D01*
X001637Y010910D01*
X001637Y011370D01*
X002097Y011370D02*
X002097Y010910D01*
X002404Y010910D01*
X002557Y010910D02*
X002557Y011370D01*
X002634Y011140D02*
X002864Y010910D01*
X002557Y011063D02*
X002864Y011370D01*
X028886Y021660D02*
X029347Y021967D01*
X029347Y022120D02*
X029347Y022351D01*
X029270Y022427D01*
X029193Y022427D01*
X029116Y022351D01*
X029116Y022120D01*
X028886Y022120D02*
X028886Y022351D01*
X028963Y022427D01*
X029040Y022427D01*
X029116Y022351D01*
X029040Y022581D02*
X028886Y022734D01*
X029347Y022734D01*
X029347Y022581D02*
X029347Y022888D01*
X029347Y022120D02*
X028886Y022120D01*
X028886Y021967D02*
X029347Y021660D01*
X031450Y019495D02*
X031510Y019435D01*
X031823Y018673D01*
X031187Y018075D01*
X031050Y017977D01*
X031373Y017977D01*
X031423Y018064D01*
X031878Y018508D01*
X032053Y018075D01*
X032053Y018037D01*
X032020Y017977D01*
X033923Y017977D01*
X034027Y018010D01*
X034093Y018042D01*
X034175Y018136D01*
X034186Y018201D01*
X034224Y018262D01*
X034284Y018503D01*
X034284Y018651D01*
X034279Y018662D01*
X034164Y018717D01*
X034005Y018739D01*
X034114Y018739D01*
X034202Y018761D01*
X034268Y018788D01*
X034350Y018870D01*
X034372Y018925D01*
X034438Y019199D01*
X034454Y019243D01*
X034454Y019336D01*
X034432Y019391D01*
X034400Y019451D01*
X034356Y019479D01*
X034290Y019495D01*
X033045Y019495D01*
X033045Y019386D01*
X033023Y019287D01*
X032881Y018706D01*
X032804Y018393D01*
X032738Y018147D01*
X032695Y018015D01*
X032662Y017982D01*
X032645Y017982D01*
X032557Y018103D01*
X032250Y018859D01*
X032766Y019342D01*
X032843Y019408D01*
X032897Y019446D01*
X032969Y019495D01*
X032623Y019495D01*
X032618Y019473D01*
X032601Y019440D01*
X032579Y019413D01*
X032190Y019029D01*
X032053Y019375D01*
X032053Y019402D01*
X032037Y019429D01*
X032053Y019462D01*
X032053Y019495D01*
X031450Y019495D01*
X033347Y018843D02*
X033462Y019309D01*
X033966Y019309D01*
X034016Y019281D01*
X034021Y019194D01*
X033945Y018903D01*
X033928Y018865D01*
X033895Y018843D01*
X033347Y018843D01*
X033309Y018645D02*
X033182Y018163D01*
X033714Y018163D01*
X033736Y018174D01*
X033775Y018218D01*
X033796Y018251D01*
X033879Y018574D01*
X033879Y018591D01*
X033851Y018629D01*
X033807Y018645D01*
X033309Y018645D01*
X034405Y018262D02*
X034515Y018750D01*
X034531Y018810D01*
X034597Y018941D01*
X034646Y019013D01*
X034734Y019068D01*
X034800Y019090D01*
X034833Y019095D01*
X035693Y019095D01*
X035754Y019073D01*
X035825Y019018D01*
X035847Y018996D01*
X035847Y018804D01*
X035754Y018426D01*
X034855Y018426D01*
X034811Y018240D01*
X034800Y018207D01*
X034805Y018169D01*
X034827Y018152D01*
X035617Y018152D01*
X035688Y018163D01*
X035611Y017977D01*
X034526Y017977D01*
X034482Y017988D01*
X034438Y018020D01*
X034410Y018059D01*
X034394Y018119D01*
X034394Y018174D01*
X034405Y018262D01*
X034904Y018602D02*
X034909Y018596D01*
X035381Y018596D01*
X035441Y018832D01*
X035441Y018903D01*
X035425Y018920D01*
X035403Y018925D01*
X035014Y018925D01*
X034981Y018909D01*
X034959Y018870D01*
X034942Y018826D01*
X034904Y018602D01*
X035863Y018262D02*
X035973Y018750D01*
X035989Y018810D01*
X036055Y018941D01*
X036105Y019013D01*
X036192Y019068D01*
X036258Y019090D01*
X036291Y019095D01*
X037152Y019095D01*
X037212Y019073D01*
X037283Y019018D01*
X037305Y018996D01*
X037305Y018804D01*
X037212Y018426D01*
X036313Y018426D01*
X036269Y018240D01*
X036258Y018207D01*
X036263Y018169D01*
X036285Y018152D01*
X037075Y018152D01*
X037146Y018163D01*
X037069Y017977D01*
X035984Y017977D01*
X035940Y017988D01*
X035896Y018020D01*
X035869Y018059D01*
X035852Y018119D01*
X035852Y018174D01*
X035863Y018262D01*
X036362Y018602D02*
X036368Y018596D01*
X036839Y018596D01*
X036899Y018832D01*
X036899Y018903D01*
X036883Y018920D01*
X036861Y018925D01*
X036472Y018925D01*
X036439Y018909D01*
X036417Y018870D01*
X036401Y018826D01*
X036362Y018602D01*
X037609Y013152D02*
X037762Y013152D01*
X037686Y013152D02*
X037686Y012768D01*
X037609Y012691D01*
X037532Y012691D01*
X037456Y012768D01*
X037916Y012691D02*
X038223Y012691D01*
X038069Y012691D02*
X038069Y013152D01*
X037916Y012998D01*
X036364Y012294D02*
X036288Y012370D01*
X036057Y012370D01*
X036057Y011910D01*
X036288Y011910D01*
X036364Y011987D01*
X036364Y012294D01*
X035904Y012370D02*
X035904Y011910D01*
X035597Y012370D01*
X035597Y011910D01*
X035444Y011987D02*
X035444Y012140D01*
X035290Y012140D01*
X035137Y011987D02*
X035213Y011910D01*
X035367Y011910D01*
X035444Y011987D01*
X035444Y012294D02*
X035367Y012370D01*
X035213Y012370D01*
X035137Y012294D01*
X035137Y011987D01*
X035137Y010370D02*
X035137Y010063D01*
X035290Y009910D01*
X035444Y010063D01*
X035444Y010370D01*
X035597Y010294D02*
X035597Y009987D01*
X035674Y009910D01*
X035827Y009910D01*
X035904Y009987D01*
X036057Y009987D02*
X036057Y010294D01*
X036134Y010370D01*
X036288Y010370D01*
X036364Y010294D01*
X036364Y009987D02*
X036288Y009910D01*
X036134Y009910D01*
X036057Y009987D01*
X035904Y010294D02*
X035827Y010370D01*
X035674Y010370D01*
X035597Y010294D01*
X035617Y009620D02*
X035463Y009620D01*
X035387Y009544D01*
X035387Y009237D01*
X035463Y009160D01*
X035617Y009160D01*
X035694Y009237D01*
X035694Y009544D01*
X035617Y009620D01*
X035847Y009620D02*
X036154Y009620D01*
X036307Y009620D02*
X036614Y009620D01*
X036461Y009390D02*
X036307Y009390D01*
X036307Y009160D02*
X036307Y009620D01*
X036001Y009390D02*
X035847Y009390D01*
X035847Y009160D02*
X035847Y009620D01*
X034575Y009620D02*
X034268Y009620D01*
X034268Y009390D01*
X034421Y009467D01*
X034498Y009467D01*
X034575Y009390D01*
X034575Y009237D01*
X034498Y009160D01*
X034345Y009160D01*
X034268Y009237D01*
X034114Y009237D02*
X034038Y009160D01*
X033884Y009160D01*
X033807Y009237D01*
X034114Y009544D01*
X034114Y009237D01*
X033807Y009237D02*
X033807Y009544D01*
X033884Y009620D01*
X034038Y009620D01*
X034114Y009544D01*
X033654Y009544D02*
X033654Y009467D01*
X033577Y009390D01*
X033424Y009390D01*
X033347Y009467D01*
X033347Y009544D01*
X033424Y009620D01*
X033577Y009620D01*
X033654Y009544D01*
X033577Y009390D02*
X033654Y009313D01*
X033654Y009237D01*
X033577Y009160D01*
X033424Y009160D01*
X033347Y009237D01*
X033347Y009313D01*
X033424Y009390D01*
X033194Y009544D02*
X032887Y009237D01*
X032887Y009160D01*
X033194Y009544D02*
X033194Y009620D01*
X032887Y009620D01*
X037637Y009544D02*
X037637Y009237D01*
X037713Y009160D01*
X037867Y009160D01*
X037944Y009237D01*
X037944Y009544D01*
X037867Y009620D01*
X037713Y009620D01*
X037637Y009544D01*
X038097Y009620D02*
X038097Y009160D01*
X038404Y009160D02*
X038404Y009620D01*
X038097Y009620D02*
X038404Y009160D01*
X033453Y003404D02*
X033511Y003345D01*
X033511Y003170D01*
X033394Y003170D02*
X033394Y003345D01*
X033453Y003404D01*
X033394Y003345D02*
X033336Y003404D01*
X033278Y003404D01*
X033278Y003170D01*
X033152Y003170D02*
X033152Y003345D01*
X033094Y003404D01*
X033035Y003345D01*
X033035Y003170D01*
X032918Y003170D02*
X032918Y003404D01*
X032977Y003404D01*
X033035Y003345D01*
X032793Y003404D02*
X032793Y003462D01*
X032734Y003520D01*
X032618Y003520D01*
X032559Y003462D01*
X032793Y003404D02*
X032559Y003170D01*
X032793Y003170D01*
X032437Y003170D02*
X032378Y003170D01*
X032378Y003228D01*
X032437Y003228D01*
X032437Y003170D01*
X032320Y003053D01*
X032194Y003228D02*
X032136Y003170D01*
X032019Y003170D01*
X031961Y003228D01*
X031961Y003345D02*
X032078Y003404D01*
X032136Y003404D01*
X032194Y003345D01*
X032194Y003228D01*
X031961Y003345D02*
X031961Y003520D01*
X032194Y003520D01*
X031718Y003520D02*
X031718Y003170D01*
X031602Y003170D02*
X031835Y003170D01*
X031602Y003404D02*
X031718Y003520D01*
X031476Y003404D02*
X031476Y003170D01*
X031476Y003345D02*
X031243Y003345D01*
X031243Y003404D02*
X031243Y003170D01*
X031243Y003404D02*
X031359Y003520D01*
X031476Y003404D01*
X031637Y025060D02*
X031637Y025420D01*
X031817Y025420D01*
X031877Y025360D01*
X031877Y025240D01*
X031817Y025180D01*
X031637Y025180D01*
X031757Y025180D02*
X031877Y025060D01*
X032005Y025120D02*
X032065Y025060D01*
X032185Y025060D01*
X032245Y025120D01*
X032245Y025180D01*
X032185Y025240D01*
X032065Y025240D01*
X032005Y025300D01*
X032005Y025360D01*
X032065Y025420D01*
X032185Y025420D01*
X032245Y025360D01*
X032373Y025360D02*
X032373Y025300D01*
X032433Y025240D01*
X032553Y025240D01*
X032613Y025180D01*
X032613Y025120D01*
X032553Y025060D01*
X032433Y025060D01*
X032373Y025120D01*
X032373Y025360D02*
X032433Y025420D01*
X032553Y025420D01*
X032613Y025360D01*
X032742Y025420D02*
X032862Y025420D01*
X032802Y025420D02*
X032802Y025060D01*
X032742Y025060D02*
X032862Y025060D01*
X036137Y025220D02*
X036197Y025160D01*
X036317Y025160D01*
X036377Y025220D01*
X036505Y025160D02*
X036745Y025160D01*
X036873Y025160D02*
X036873Y025520D01*
X036933Y025340D02*
X037113Y025160D01*
X036873Y025280D02*
X037113Y025520D01*
X036505Y025520D02*
X036505Y025160D01*
X036377Y025460D02*
X036317Y025520D01*
X036197Y025520D01*
X036137Y025460D01*
X036137Y025220D01*
D11*
X036640Y024713D02*
X039130Y022223D01*
X039130Y013925D01*
X029603Y013925D01*
X029603Y022223D01*
X032093Y024713D01*
X036640Y024713D01*
X028313Y023294D02*
X028159Y023294D01*
X027852Y022987D01*
X027852Y022680D02*
X027852Y023294D01*
X027545Y023140D02*
X027392Y023294D01*
X027085Y023294D01*
X026931Y023140D01*
X026931Y022833D01*
X027085Y022680D01*
X027392Y022680D01*
X027545Y022833D01*
X027545Y023140D01*
X026624Y023294D02*
X026318Y023294D01*
X026471Y023447D02*
X026471Y022833D01*
X026624Y022680D01*
X026011Y022680D02*
X026011Y023140D01*
X025857Y023294D01*
X025550Y023294D01*
X025550Y022987D02*
X026011Y022987D01*
X025550Y022987D02*
X025397Y022833D01*
X025550Y022680D01*
X026011Y022680D01*
X025090Y022680D02*
X024629Y022680D01*
X024476Y022833D01*
X024476Y023140D01*
X024629Y023294D01*
X025090Y023294D01*
X024016Y023294D02*
X024016Y022680D01*
X024169Y022680D02*
X023862Y022680D01*
X023555Y022680D02*
X023095Y022680D01*
X022941Y022833D01*
X022941Y023140D01*
X023095Y023294D01*
X023555Y023294D01*
X023555Y023601D02*
X023555Y022680D01*
X022634Y022680D02*
X022634Y023140D01*
X022481Y023294D01*
X022021Y023294D01*
X022021Y022680D01*
X021714Y022680D02*
X021407Y022680D01*
X021560Y022680D02*
X021560Y023601D01*
X021407Y023601D02*
X021714Y023601D01*
X019793Y024737D02*
X019179Y024737D01*
X019179Y024890D02*
X019179Y024583D01*
X019332Y024430D01*
X019639Y024430D01*
X019793Y024737D02*
X019793Y024890D01*
X019639Y025044D01*
X019332Y025044D01*
X019179Y024890D01*
X018872Y025044D02*
X018565Y025044D01*
X018718Y025197D02*
X018718Y024583D01*
X018872Y024430D01*
X018258Y024583D02*
X018258Y024890D01*
X018105Y025044D01*
X017798Y025044D01*
X017644Y024890D01*
X017644Y024583D01*
X017798Y024430D01*
X018105Y024430D01*
X018258Y024583D01*
X017337Y024430D02*
X017337Y024890D01*
X017184Y025044D01*
X017030Y024890D01*
X017030Y024430D01*
X016723Y024430D02*
X016723Y025044D01*
X016877Y025044D01*
X017030Y024890D01*
X016416Y024890D02*
X016416Y024737D01*
X015803Y024737D01*
X015803Y024890D02*
X015956Y025044D01*
X016263Y025044D01*
X016416Y024890D01*
X016263Y024430D02*
X015956Y024430D01*
X015803Y024583D01*
X015803Y024890D01*
X015496Y024890D02*
X015496Y025197D01*
X015342Y025351D01*
X014882Y025351D01*
X014882Y024430D01*
X014882Y024737D02*
X015342Y024737D01*
X015496Y024890D01*
X015189Y024737D02*
X015496Y024430D01*
X013654Y024737D02*
X013040Y024737D01*
X013040Y024890D02*
X013040Y024583D01*
X013194Y024430D01*
X013501Y024430D01*
X013654Y024737D02*
X013654Y024890D01*
X013501Y025044D01*
X013194Y025044D01*
X013040Y024890D01*
X012733Y024890D02*
X012733Y024737D01*
X012119Y024737D01*
X012119Y024890D02*
X012119Y024583D01*
X012273Y024430D01*
X012580Y024430D01*
X012733Y024890D02*
X012580Y025044D01*
X012273Y025044D01*
X012119Y024890D01*
X011813Y024737D02*
X011813Y024583D01*
X011659Y024430D01*
X011199Y024430D01*
X011199Y025351D01*
X011659Y025351D01*
X011813Y025197D01*
X011813Y025044D01*
X011659Y024890D01*
X011199Y024890D01*
X011659Y024890D02*
X011813Y024737D01*
X010892Y024430D02*
X010278Y025351D01*
X010892Y025351D02*
X010278Y024430D01*
X009050Y025044D02*
X008897Y025044D01*
X008590Y024737D01*
X008590Y024430D02*
X008590Y025044D01*
X008283Y024890D02*
X008283Y024737D01*
X007669Y024737D01*
X007669Y024890D02*
X007669Y024583D01*
X007822Y024430D01*
X008129Y024430D01*
X008283Y024890D02*
X008129Y025044D01*
X007822Y025044D01*
X007669Y024890D01*
X007362Y025044D02*
X007055Y024430D01*
X006748Y025044D01*
X006441Y024890D02*
X006441Y024583D01*
X006288Y024430D01*
X005981Y024430D01*
X005827Y024583D01*
X005827Y024890D01*
X005981Y025044D01*
X006288Y025044D01*
X006441Y024890D01*
X005521Y024890D02*
X005367Y024737D01*
X004907Y024737D01*
X005214Y024737D02*
X005521Y024430D01*
X004907Y024430D02*
X004907Y025351D01*
X005367Y025351D01*
X005521Y025197D01*
X005521Y024890D01*
X006117Y021640D02*
X005867Y021390D01*
X005867Y020890D01*
X006117Y020640D01*
X006617Y020640D01*
X006867Y020890D01*
X007117Y020640D01*
X007617Y020640D01*
X007867Y020890D01*
X008117Y020640D01*
X008617Y020640D01*
X008867Y020890D01*
X009117Y020640D01*
X009617Y020640D01*
X009867Y020890D01*
X010117Y020640D01*
X010617Y020640D01*
X010867Y020890D01*
X011117Y020640D01*
X011617Y020640D01*
X011867Y020890D01*
X011867Y021390D01*
X011617Y021640D01*
X011117Y021640D01*
X010867Y021390D01*
X010617Y021640D01*
X010117Y021640D01*
X009867Y021390D01*
X009617Y021640D01*
X009117Y021640D01*
X008867Y021390D01*
X008617Y021640D01*
X008117Y021640D01*
X007867Y021390D01*
X007617Y021640D01*
X007117Y021640D01*
X006867Y021390D01*
X006617Y021640D01*
X006117Y021640D01*
X006117Y020640D02*
X005867Y020390D01*
X005867Y019890D01*
X006117Y019640D01*
X006617Y019640D01*
X006867Y019890D01*
X007117Y019640D01*
X007617Y019640D01*
X007867Y019890D01*
X008117Y019640D01*
X008617Y019640D01*
X008867Y019890D01*
X009117Y019640D01*
X009617Y019640D01*
X009867Y019890D01*
X010117Y019640D01*
X010617Y019640D01*
X010867Y019890D01*
X011117Y019640D01*
X011617Y019640D01*
X011867Y019890D01*
X011867Y020390D01*
X011617Y020640D01*
X011117Y020640D01*
X010867Y020390D01*
X010617Y020640D01*
X010117Y020640D01*
X009867Y020390D01*
X009617Y020640D01*
X009117Y020640D01*
X008867Y020390D01*
X008617Y020640D01*
X008117Y020640D01*
X007867Y020390D01*
X007617Y020640D01*
X007117Y020640D01*
X006867Y020390D01*
X006617Y020640D01*
X006117Y020640D01*
X006117Y019640D02*
X006617Y019640D01*
X006867Y019390D01*
X007117Y019640D01*
X007617Y019640D01*
X007867Y019390D01*
X008117Y019640D01*
X008617Y019640D01*
X008867Y019390D01*
X009117Y019640D01*
X009617Y019640D01*
X009867Y019390D01*
X010117Y019640D01*
X010617Y019640D01*
X010867Y019390D01*
X011117Y019640D01*
X011617Y019640D01*
X011867Y019390D01*
X011867Y018890D01*
X011617Y018640D01*
X011117Y018640D01*
X010867Y018890D01*
X010617Y018640D01*
X010117Y018640D01*
X009867Y018890D01*
X009617Y018640D01*
X009117Y018640D01*
X008867Y018890D01*
X008617Y018640D01*
X008117Y018640D01*
X007867Y018890D01*
X007617Y018640D01*
X007117Y018640D01*
X006867Y018890D01*
X006617Y018640D01*
X006117Y018640D01*
X005867Y018890D01*
X005867Y019390D01*
X006117Y019640D01*
X005367Y017640D02*
X003367Y017640D01*
X003367Y016640D01*
X005367Y016640D01*
X005367Y017640D01*
X004367Y017390D02*
X004367Y016890D01*
X005867Y016340D02*
X005967Y016340D01*
X005867Y016340D02*
X005867Y015640D01*
X005911Y015638D01*
X005954Y015632D01*
X005996Y015623D01*
X006038Y015610D01*
X006078Y015593D01*
X006117Y015573D01*
X006154Y015550D01*
X006188Y015523D01*
X006221Y015494D01*
X006250Y015461D01*
X006277Y015427D01*
X006300Y015390D01*
X006320Y015351D01*
X006337Y015311D01*
X006350Y015269D01*
X006359Y015227D01*
X006365Y015184D01*
X006367Y015140D01*
X006365Y015096D01*
X006359Y015053D01*
X006350Y015011D01*
X006337Y014969D01*
X006320Y014929D01*
X006300Y014890D01*
X006277Y014853D01*
X006250Y014819D01*
X006221Y014786D01*
X006188Y014757D01*
X006154Y014730D01*
X006117Y014707D01*
X006078Y014687D01*
X006038Y014670D01*
X005996Y014657D01*
X005954Y014648D01*
X005911Y014642D01*
X005867Y014640D01*
X005867Y013940D01*
X005967Y013940D01*
X002867Y013890D02*
X002617Y013640D01*
X002867Y013390D01*
X002867Y012890D01*
X002617Y012640D01*
X002867Y012390D01*
X002867Y011890D01*
X002617Y011640D01*
X002117Y011640D01*
X001867Y011890D01*
X001867Y012390D01*
X002117Y012640D01*
X001867Y012890D01*
X001867Y013390D01*
X002117Y013640D01*
X001867Y013890D01*
X001867Y014390D01*
X002117Y014640D01*
X001867Y014890D01*
X001867Y015390D01*
X002117Y015640D01*
X001867Y015890D01*
X001867Y016390D01*
X002117Y016640D01*
X001867Y016890D01*
X001867Y017390D01*
X002117Y017640D01*
X002617Y017640D01*
X002867Y017390D01*
X002867Y016890D01*
X002617Y016640D01*
X002867Y016390D01*
X002867Y015890D01*
X002617Y015640D01*
X002867Y015390D01*
X002867Y014890D01*
X002617Y014640D01*
X002867Y014390D01*
X002867Y013890D01*
X012367Y018640D02*
X012367Y019640D01*
X014367Y019640D01*
X014367Y018640D01*
X012367Y018640D01*
X013367Y018890D02*
X013367Y019390D01*
X013967Y011440D02*
X014326Y011408D01*
X014687Y011392D01*
X015047Y011392D01*
X015408Y011408D01*
X015767Y011440D01*
X015766Y011440D02*
X015818Y011450D01*
X015869Y011464D01*
X015919Y011482D01*
X015967Y011503D01*
X016014Y011528D01*
X016058Y011556D01*
X016101Y011588D01*
X016141Y011622D01*
X016178Y011660D01*
X016212Y011700D01*
X016244Y011742D01*
X016272Y011787D01*
X016296Y011834D01*
X016317Y011882D01*
X016335Y011932D01*
X016348Y011983D01*
X016358Y012035D01*
X016364Y012087D01*
X016366Y012140D01*
X016364Y012193D01*
X016358Y012245D01*
X016348Y012297D01*
X016335Y012348D01*
X016317Y012398D01*
X016296Y012446D01*
X016272Y012493D01*
X016244Y012538D01*
X016212Y012580D01*
X016178Y012620D01*
X016141Y012658D01*
X016101Y012692D01*
X016058Y012724D01*
X016014Y012752D01*
X015967Y012777D01*
X015919Y012798D01*
X015869Y012816D01*
X015818Y012830D01*
X015766Y012840D01*
X013967Y012840D02*
X013915Y012830D01*
X013864Y012816D01*
X013814Y012798D01*
X013766Y012777D01*
X013719Y012752D01*
X013675Y012724D01*
X013632Y012692D01*
X013592Y012658D01*
X013555Y012620D01*
X013521Y012580D01*
X013489Y012538D01*
X013461Y012493D01*
X013437Y012446D01*
X013416Y012398D01*
X013398Y012348D01*
X013385Y012297D01*
X013375Y012245D01*
X013369Y012193D01*
X013367Y012140D01*
X013369Y012087D01*
X013375Y012035D01*
X013385Y011983D01*
X013398Y011932D01*
X013416Y011882D01*
X013437Y011834D01*
X013461Y011787D01*
X013489Y011742D01*
X013521Y011700D01*
X013555Y011660D01*
X013592Y011622D01*
X013632Y011588D01*
X013675Y011556D01*
X013719Y011528D01*
X013766Y011503D01*
X013814Y011482D01*
X013864Y011464D01*
X013915Y011450D01*
X013967Y011440D01*
X019767Y013940D02*
X019867Y013940D01*
X019867Y016340D01*
X019767Y016340D01*
X016617Y019008D02*
X016117Y019008D01*
X016117Y019140D02*
X016617Y019140D01*
X016867Y019390D01*
X016867Y020890D01*
X017117Y021140D01*
X017617Y021140D01*
X017867Y020890D01*
X017867Y019390D01*
X018117Y019140D01*
X018617Y019140D01*
X018867Y019390D01*
X018867Y020890D01*
X018617Y021140D01*
X018117Y021140D01*
X017867Y020890D01*
X016867Y020890D02*
X016617Y021140D01*
X016117Y021140D01*
X015867Y020890D01*
X015867Y019390D01*
X016117Y019140D01*
X016867Y019390D02*
X017117Y019140D01*
X017617Y019140D01*
X017867Y019390D01*
X023862Y023294D02*
X024016Y023294D01*
X024016Y023601D02*
X024016Y023754D01*
X027387Y013990D02*
X027389Y014020D01*
X027395Y014050D01*
X027404Y014079D01*
X027417Y014106D01*
X027434Y014131D01*
X027453Y014154D01*
X027476Y014175D01*
X027501Y014192D01*
X027527Y014206D01*
X027556Y014216D01*
X027585Y014223D01*
X027615Y014226D01*
X027646Y014225D01*
X027676Y014220D01*
X027705Y014211D01*
X027732Y014199D01*
X027758Y014184D01*
X027782Y014165D01*
X027803Y014143D01*
X027821Y014119D01*
X027836Y014092D01*
X027847Y014064D01*
X027855Y014035D01*
X027859Y014005D01*
X027859Y013975D01*
X027855Y013945D01*
X027847Y013916D01*
X027836Y013888D01*
X027821Y013861D01*
X027803Y013837D01*
X027782Y013815D01*
X027758Y013796D01*
X027732Y013781D01*
X027705Y013769D01*
X027676Y013760D01*
X027646Y013755D01*
X027615Y013754D01*
X027585Y013757D01*
X027556Y013764D01*
X027527Y013774D01*
X027501Y013788D01*
X027476Y013805D01*
X027453Y013826D01*
X027434Y013849D01*
X027417Y013874D01*
X027404Y013901D01*
X027395Y013930D01*
X027389Y013960D01*
X027387Y013990D01*
X031617Y010640D02*
X032117Y010640D01*
X030383Y010140D02*
X030385Y010202D01*
X030391Y010265D01*
X030401Y010326D01*
X030415Y010387D01*
X030432Y010447D01*
X030453Y010506D01*
X030479Y010563D01*
X030507Y010618D01*
X030539Y010672D01*
X030575Y010723D01*
X030613Y010773D01*
X030655Y010819D01*
X030699Y010863D01*
X030747Y010904D01*
X030796Y010942D01*
X030848Y010976D01*
X030902Y011007D01*
X030958Y011035D01*
X031016Y011059D01*
X031075Y011080D01*
X031135Y011096D01*
X031196Y011109D01*
X031258Y011118D01*
X031320Y011123D01*
X031383Y011124D01*
X031445Y011121D01*
X031507Y011114D01*
X031569Y011103D01*
X031629Y011088D01*
X031689Y011070D01*
X031747Y011048D01*
X031804Y011022D01*
X031859Y010992D01*
X031912Y010959D01*
X031963Y010923D01*
X032011Y010884D01*
X032057Y010841D01*
X032100Y010796D01*
X032140Y010748D01*
X032177Y010698D01*
X032211Y010645D01*
X032242Y010591D01*
X032268Y010535D01*
X032292Y010477D01*
X032311Y010417D01*
X032327Y010357D01*
X032339Y010295D01*
X032347Y010234D01*
X032351Y010171D01*
X032351Y010109D01*
X032347Y010046D01*
X032339Y009985D01*
X032327Y009923D01*
X032311Y009863D01*
X032292Y009803D01*
X032268Y009745D01*
X032242Y009689D01*
X032211Y009635D01*
X032177Y009582D01*
X032140Y009532D01*
X032100Y009484D01*
X032057Y009439D01*
X032011Y009396D01*
X031963Y009357D01*
X031912Y009321D01*
X031859Y009288D01*
X031804Y009258D01*
X031747Y009232D01*
X031689Y009210D01*
X031629Y009192D01*
X031569Y009177D01*
X031507Y009166D01*
X031445Y009159D01*
X031383Y009156D01*
X031320Y009157D01*
X031258Y009162D01*
X031196Y009171D01*
X031135Y009184D01*
X031075Y009200D01*
X031016Y009221D01*
X030958Y009245D01*
X030902Y009273D01*
X030848Y009304D01*
X030796Y009338D01*
X030747Y009376D01*
X030699Y009417D01*
X030655Y009461D01*
X030613Y009507D01*
X030575Y009557D01*
X030539Y009608D01*
X030507Y009662D01*
X030479Y009717D01*
X030453Y009774D01*
X030432Y009833D01*
X030415Y009893D01*
X030401Y009954D01*
X030391Y010015D01*
X030385Y010078D01*
X030383Y010140D01*
X028867Y010290D02*
X028867Y009540D01*
X028828Y009538D01*
X028789Y009532D01*
X028751Y009523D01*
X028714Y009510D01*
X028678Y009493D01*
X028645Y009473D01*
X028613Y009449D01*
X028584Y009423D01*
X028558Y009394D01*
X028534Y009362D01*
X028514Y009329D01*
X028497Y009293D01*
X028484Y009256D01*
X028475Y009218D01*
X028469Y009179D01*
X028467Y009140D01*
X028469Y009101D01*
X028475Y009062D01*
X028484Y009024D01*
X028497Y008987D01*
X028514Y008951D01*
X028534Y008918D01*
X028558Y008886D01*
X028584Y008857D01*
X028613Y008831D01*
X028645Y008807D01*
X028678Y008787D01*
X028714Y008770D01*
X028751Y008757D01*
X028789Y008748D01*
X028828Y008742D01*
X028867Y008740D01*
X028867Y007990D01*
X028767Y007990D01*
X031621Y009778D02*
X032121Y009778D01*
X034577Y008996D02*
X034577Y007284D01*
X039156Y007284D01*
X039156Y008996D01*
X034577Y008996D01*
X032587Y011390D02*
X032589Y011461D01*
X032595Y011532D01*
X032605Y011603D01*
X032619Y011672D01*
X032636Y011741D01*
X032658Y011809D01*
X032683Y011876D01*
X032712Y011941D01*
X032744Y012004D01*
X032780Y012066D01*
X032819Y012125D01*
X032862Y012182D01*
X032907Y012237D01*
X032956Y012289D01*
X033007Y012338D01*
X033061Y012384D01*
X033118Y012428D01*
X033176Y012468D01*
X033237Y012504D01*
X033300Y012538D01*
X033365Y012567D01*
X033431Y012593D01*
X033499Y012616D01*
X033567Y012634D01*
X033637Y012649D01*
X033707Y012660D01*
X033778Y012667D01*
X033849Y012670D01*
X033920Y012669D01*
X033991Y012664D01*
X034062Y012655D01*
X034132Y012642D01*
X034201Y012626D01*
X034269Y012605D01*
X034336Y012581D01*
X034402Y012553D01*
X034465Y012521D01*
X034527Y012486D01*
X034587Y012448D01*
X034645Y012406D01*
X034700Y012362D01*
X034753Y012314D01*
X034803Y012263D01*
X034850Y012210D01*
X034894Y012154D01*
X034935Y012096D01*
X034973Y012035D01*
X035007Y011973D01*
X035037Y011908D01*
X035064Y011843D01*
X035088Y011775D01*
X035107Y011707D01*
X035123Y011638D01*
X035135Y011567D01*
X035143Y011497D01*
X035147Y011426D01*
X035147Y011354D01*
X035143Y011283D01*
X035135Y011213D01*
X035123Y011142D01*
X035107Y011073D01*
X035088Y011005D01*
X035064Y010937D01*
X035037Y010872D01*
X035007Y010807D01*
X034973Y010745D01*
X034935Y010684D01*
X034894Y010626D01*
X034850Y010570D01*
X034803Y010517D01*
X034753Y010466D01*
X034700Y010418D01*
X034645Y010374D01*
X034587Y010332D01*
X034527Y010294D01*
X034465Y010259D01*
X034402Y010227D01*
X034336Y010199D01*
X034269Y010175D01*
X034201Y010154D01*
X034132Y010138D01*
X034062Y010125D01*
X033991Y010116D01*
X033920Y010111D01*
X033849Y010110D01*
X033778Y010113D01*
X033707Y010120D01*
X033637Y010131D01*
X033567Y010146D01*
X033499Y010164D01*
X033431Y010187D01*
X033365Y010213D01*
X033300Y010242D01*
X033237Y010276D01*
X033176Y010312D01*
X033118Y010352D01*
X033061Y010396D01*
X033007Y010442D01*
X032956Y010491D01*
X032907Y010543D01*
X032862Y010598D01*
X032819Y010655D01*
X032780Y010714D01*
X032744Y010776D01*
X032712Y010839D01*
X032683Y010904D01*
X032658Y010971D01*
X032636Y011039D01*
X032619Y011108D01*
X032605Y011177D01*
X032595Y011248D01*
X032589Y011319D01*
X032587Y011390D01*
X034367Y011640D02*
X034367Y012140D01*
X034867Y012640D02*
X034867Y013640D01*
X036867Y013640D01*
X036867Y012640D01*
X034867Y012640D01*
X035867Y012890D02*
X035867Y013390D01*
X028867Y010290D02*
X028767Y010290D01*
X020967Y010290D02*
X020867Y010290D01*
X020867Y007990D01*
X020967Y007990D01*
X015767Y012840D02*
X015408Y012872D01*
X015047Y012888D01*
X014687Y012888D01*
X014326Y012872D01*
X013967Y012840D01*
D12*
X013287Y012600D02*
X013100Y012600D01*
X013100Y012880D01*
X013011Y012787D02*
X013011Y012600D01*
X013011Y012740D02*
X012824Y012740D01*
X012824Y012787D02*
X012918Y012880D01*
X013011Y012787D01*
X012824Y012787D02*
X012824Y012600D01*
X012641Y012600D02*
X012641Y012880D01*
X012548Y012880D02*
X012735Y012880D01*
X012459Y012880D02*
X012272Y012600D01*
X012459Y012600D02*
X012272Y012880D01*
X007392Y015150D02*
X007245Y015150D01*
X007318Y015150D02*
X007318Y015370D01*
X007245Y015297D01*
X007171Y015333D02*
X007134Y015370D01*
X007061Y015370D01*
X007024Y015333D01*
X007024Y015187D01*
X007061Y015150D01*
X007134Y015150D01*
X007171Y015187D01*
X006950Y015150D02*
X006877Y015150D01*
X006913Y015150D02*
X006913Y015370D01*
X006877Y015370D02*
X006950Y015370D01*
X004929Y017900D02*
X004929Y018120D01*
X005076Y018120D01*
X005003Y018010D02*
X004929Y018010D01*
X004855Y018047D02*
X004855Y017900D01*
X004745Y017900D01*
X004708Y017937D01*
X004708Y018047D01*
X004634Y017900D02*
X004487Y017900D01*
X004561Y017900D02*
X004561Y018120D01*
X004487Y018047D01*
X004413Y017937D02*
X004413Y017900D01*
X004377Y017900D01*
X004377Y017937D01*
X004413Y017937D01*
X003994Y017937D02*
X003958Y017900D01*
X003884Y017900D01*
X003848Y017937D01*
X003848Y018010D02*
X003921Y018047D01*
X003958Y018047D01*
X003994Y018010D01*
X003994Y017937D01*
X003848Y018010D02*
X003848Y018120D01*
X003994Y018120D01*
X003773Y018083D02*
X003737Y018120D01*
X003663Y018120D01*
X003627Y018083D01*
X003627Y017937D01*
X003663Y017900D01*
X003737Y017900D01*
X003773Y017937D01*
X013603Y019910D02*
X013640Y019910D01*
X013640Y019947D01*
X013603Y019947D01*
X013603Y019910D01*
X013714Y019910D02*
X013860Y019910D01*
X013787Y019910D02*
X013787Y020130D01*
X013714Y020057D01*
X013935Y020057D02*
X013935Y019947D01*
X013971Y019910D01*
X014081Y019910D01*
X014081Y020057D01*
X014156Y020020D02*
X014229Y020020D01*
X014156Y019910D02*
X014156Y020130D01*
X014302Y020130D01*
X014266Y018380D02*
X014156Y018270D01*
X014302Y018270D01*
X014266Y018160D02*
X014266Y018380D01*
X014081Y018343D02*
X014045Y018380D01*
X013971Y018380D01*
X013935Y018343D01*
X013935Y018197D01*
X013971Y018160D01*
X014045Y018160D01*
X014081Y018197D01*
X030067Y006890D02*
X030067Y003640D01*
X033667Y003640D01*
X033667Y006890D01*
X030067Y006890D01*
X032377Y013150D02*
X032377Y013430D01*
X032470Y013337D01*
X032563Y013430D01*
X032563Y013150D01*
X032653Y013197D02*
X032700Y013150D01*
X032793Y013150D01*
X032840Y013197D01*
X032929Y013243D02*
X033069Y013243D01*
X033116Y013290D01*
X033116Y013384D01*
X033069Y013430D01*
X032929Y013430D01*
X032929Y013150D01*
X032840Y013384D02*
X032793Y013430D01*
X032700Y013430D01*
X032653Y013384D01*
X032653Y013197D01*
X033205Y013150D02*
X033392Y013150D01*
X033482Y013150D02*
X033482Y013197D01*
X033668Y013384D01*
X033668Y013430D01*
X033482Y013430D01*
X033299Y013430D02*
X033299Y013150D01*
X033205Y013337D02*
X033299Y013430D01*
X033758Y013384D02*
X033805Y013430D01*
X033898Y013430D01*
X033945Y013384D01*
X033758Y013197D01*
X033805Y013150D01*
X033898Y013150D01*
X033945Y013197D01*
X033945Y013384D01*
X034034Y013384D02*
X034081Y013430D01*
X034174Y013430D01*
X034221Y013384D01*
X034034Y013197D01*
X034081Y013150D01*
X034174Y013150D01*
X034221Y013197D01*
X034221Y013384D01*
X034034Y013384D02*
X034034Y013197D01*
X033758Y013197D02*
X033758Y013384D01*
X034127Y013650D02*
X034163Y013650D01*
X034163Y013687D01*
X034127Y013687D01*
X034127Y013650D01*
X034237Y013650D02*
X034384Y013650D01*
X034311Y013650D02*
X034311Y013870D01*
X034237Y013797D01*
X034458Y013797D02*
X034458Y013687D01*
X034495Y013650D01*
X034605Y013650D01*
X034605Y013797D01*
X034679Y013760D02*
X034753Y013760D01*
X034679Y013870D02*
X034826Y013870D01*
X034877Y013937D02*
X034913Y013900D01*
X034987Y013900D01*
X035023Y013937D01*
X035098Y013937D02*
X035134Y013900D01*
X035208Y013900D01*
X035244Y013937D01*
X035244Y013973D01*
X035208Y014010D01*
X035171Y014010D01*
X035208Y014010D02*
X035244Y014047D01*
X035244Y014083D01*
X035208Y014120D01*
X035134Y014120D01*
X035098Y014083D01*
X035023Y014083D02*
X034987Y014120D01*
X034913Y014120D01*
X034877Y014083D01*
X034877Y013937D01*
X034679Y013870D02*
X034679Y013650D01*
D13*
X013260Y012252D02*
X013013Y012005D01*
X013260Y012005D01*
X013260Y012252D02*
X013013Y012252D01*
X012892Y012190D02*
X012645Y012190D01*
X012645Y012005D02*
X012645Y012375D01*
X012524Y012375D02*
X012524Y012005D01*
X012277Y012005D02*
X012277Y012375D01*
X012400Y012252D01*
X012524Y012375D01*
X012892Y012375D02*
X012892Y012005D01*
X012155Y012067D02*
X012155Y012128D01*
X012094Y012190D01*
X011908Y012190D01*
X011908Y012067D01*
X011970Y012005D01*
X012094Y012005D01*
X012155Y012067D01*
X012032Y012314D02*
X011908Y012190D01*
X012032Y012314D02*
X012155Y012375D01*
X011664Y012375D02*
X011664Y012005D01*
X011787Y012005D02*
X011540Y012005D01*
X011540Y012252D02*
X011664Y012375D01*
D14*
X004067Y012640D02*
X004017Y012590D01*
X004017Y010690D01*
X004067Y010640D01*
X004067Y010490D01*
X004065Y010473D01*
X004061Y010456D01*
X004054Y010440D01*
X004044Y010426D01*
X004031Y010413D01*
X004017Y010403D01*
X004001Y010396D01*
X003984Y010392D01*
X003967Y010390D01*
X003267Y010390D01*
X003250Y010392D01*
X003233Y010396D01*
X003217Y010403D01*
X003203Y010413D01*
X003190Y010426D01*
X003180Y010440D01*
X003173Y010456D01*
X003169Y010473D01*
X003167Y010490D01*
X003167Y010640D01*
X003217Y010690D01*
X003217Y012590D01*
X003167Y012640D01*
X003167Y012790D01*
X003169Y012807D01*
X003173Y012824D01*
X003180Y012840D01*
X003190Y012854D01*
X003203Y012867D01*
X003217Y012877D01*
X003233Y012884D01*
X003250Y012888D01*
X003267Y012890D01*
X003967Y012890D01*
X003984Y012888D01*
X004001Y012884D01*
X004017Y012877D01*
X004031Y012867D01*
X004044Y012854D01*
X004054Y012840D01*
X004061Y012824D01*
X004065Y012807D01*
X004067Y012790D01*
X004067Y012640D01*
X015547Y022780D02*
X015687Y022640D01*
X015867Y022760D01*
X015937Y022720D01*
X016087Y023060D01*
X016067Y023040D02*
X015917Y022790D01*
X015867Y022790D01*
X015717Y022690D01*
X015617Y022790D01*
X015717Y022940D01*
X015617Y023190D01*
X015417Y023240D01*
X015417Y023390D01*
X015617Y023390D01*
X015717Y023640D01*
X015567Y023840D01*
X015717Y023940D01*
X015867Y023790D01*
X016067Y023890D01*
X016117Y024090D01*
X016267Y024090D01*
X016317Y023890D01*
X016517Y023790D01*
X016717Y023940D01*
X016817Y023840D01*
X016717Y023640D01*
X016817Y023390D01*
X017017Y023390D01*
X017017Y023240D01*
X016767Y023190D01*
X016717Y022940D01*
X016817Y022790D01*
X016717Y022690D01*
X016567Y022790D01*
X016467Y022740D01*
X016367Y023040D01*
X016517Y023240D01*
X016467Y023490D01*
X016267Y023590D01*
X016067Y023590D01*
X015917Y023440D01*
X015917Y023140D01*
X016067Y023040D01*
X016051Y023014D02*
X015687Y023014D01*
X015667Y022960D02*
X015547Y022780D01*
X015627Y022780D02*
X015851Y022780D01*
X015763Y022721D02*
X015686Y022721D01*
X015649Y022838D02*
X015946Y022838D01*
X015981Y022897D02*
X015688Y022897D01*
X015711Y022955D02*
X016016Y022955D01*
X016019Y023072D02*
X015664Y023072D01*
X015640Y023131D02*
X015931Y023131D01*
X015917Y023189D02*
X015617Y023189D01*
X015587Y023160D02*
X015367Y023200D01*
X015367Y023400D01*
X015597Y023440D01*
X015630Y023423D02*
X015917Y023423D01*
X015917Y023365D02*
X015417Y023365D01*
X015417Y023306D02*
X015917Y023306D01*
X015917Y023248D02*
X015417Y023248D01*
X015653Y023482D02*
X015958Y023482D01*
X016017Y023540D02*
X015677Y023540D01*
X015700Y023599D02*
X016733Y023599D01*
X016727Y023630D02*
X016867Y023820D01*
X016727Y023960D01*
X016527Y023830D01*
X016573Y023833D02*
X016813Y023833D01*
X016784Y023774D02*
X015616Y023774D01*
X015660Y023716D02*
X016754Y023716D01*
X016725Y023657D02*
X015704Y023657D01*
X015677Y023630D02*
X015547Y023820D01*
X015687Y023960D01*
X015877Y023830D01*
X015824Y023833D02*
X015572Y023833D01*
X015643Y023891D02*
X015766Y023891D01*
X015952Y023833D02*
X016431Y023833D01*
X016347Y023900D02*
X016297Y024140D01*
X016107Y024140D01*
X016057Y023900D01*
X016067Y023891D02*
X016316Y023891D01*
X016302Y023950D02*
X016082Y023950D01*
X016096Y024008D02*
X016287Y024008D01*
X016273Y024067D02*
X016111Y024067D01*
X016651Y023891D02*
X016766Y023891D01*
X016757Y023540D02*
X016366Y023540D01*
X016468Y023482D02*
X016780Y023482D01*
X016817Y023440D02*
X017037Y023400D01*
X017037Y023200D01*
X016817Y023160D01*
X016766Y023189D02*
X016478Y023189D01*
X016515Y023248D02*
X017017Y023248D01*
X017017Y023306D02*
X016503Y023306D01*
X016492Y023365D02*
X017017Y023365D01*
X016803Y023423D02*
X016480Y023423D01*
X016732Y023628D02*
X016754Y023593D01*
X016774Y023557D01*
X016792Y023519D01*
X016807Y023480D01*
X016819Y023440D01*
X016755Y023131D02*
X016435Y023131D01*
X016391Y023072D02*
X016743Y023072D01*
X016731Y023014D02*
X016375Y023014D01*
X016395Y022955D02*
X016720Y022955D01*
X016737Y022960D02*
X016867Y022780D01*
X016727Y022640D01*
X016547Y022760D01*
X016467Y022720D01*
X016327Y023060D01*
X016414Y022897D02*
X016746Y022897D01*
X016785Y022838D02*
X016434Y022838D01*
X016453Y022780D02*
X016546Y022780D01*
X016582Y022780D02*
X016806Y022780D01*
X016748Y022721D02*
X016670Y022721D01*
X016526Y023830D02*
X016483Y023853D01*
X016439Y023873D01*
X016393Y023889D01*
X016347Y023901D01*
X016327Y023060D02*
X016355Y023076D01*
X016382Y023095D01*
X016405Y023117D01*
X016426Y023142D01*
X016444Y023170D01*
X016459Y023199D01*
X016469Y023230D01*
X016477Y023261D01*
X016480Y023294D01*
X016479Y023326D01*
X016475Y023359D01*
X016466Y023390D01*
X016454Y023420D01*
X016439Y023449D01*
X016420Y023476D01*
X016398Y023500D01*
X016374Y023521D01*
X016347Y023540D01*
X016318Y023555D01*
X016287Y023566D01*
X016256Y023574D01*
X016223Y023578D01*
X016191Y023578D01*
X016158Y023574D01*
X016127Y023566D01*
X016096Y023555D01*
X016067Y023540D01*
X016040Y023521D01*
X016016Y023500D01*
X015994Y023476D01*
X015975Y023449D01*
X015960Y023420D01*
X015948Y023390D01*
X015939Y023359D01*
X015935Y023326D01*
X015934Y023294D01*
X015937Y023261D01*
X015945Y023230D01*
X015955Y023199D01*
X015970Y023170D01*
X015988Y023142D01*
X016009Y023117D01*
X016032Y023095D01*
X016059Y023076D01*
X016087Y023060D01*
X015879Y023826D02*
X015921Y023849D01*
X015964Y023868D01*
X016009Y023885D01*
X016055Y023897D01*
X015589Y023144D02*
X015604Y023097D01*
X015622Y023051D01*
X015644Y023007D01*
X015669Y022965D01*
X015595Y023442D02*
X015606Y023482D01*
X015620Y023521D01*
X015636Y023558D01*
X015655Y023595D01*
X015676Y023630D01*
X016816Y023161D02*
X016806Y023119D01*
X016793Y023078D01*
X016777Y023038D01*
X016758Y022999D01*
X016736Y022962D01*
X031066Y019769D02*
X037294Y019769D01*
X037294Y017681D02*
X031066Y017681D01*
X033217Y015640D02*
X035517Y015640D01*
X035517Y022640D01*
X034767Y022640D01*
X034765Y022601D01*
X034759Y022562D01*
X034750Y022524D01*
X034737Y022487D01*
X034720Y022451D01*
X034700Y022418D01*
X034676Y022386D01*
X034650Y022357D01*
X034621Y022331D01*
X034589Y022307D01*
X034556Y022287D01*
X034520Y022270D01*
X034483Y022257D01*
X034445Y022248D01*
X034406Y022242D01*
X034367Y022240D01*
X034328Y022242D01*
X034289Y022248D01*
X034251Y022257D01*
X034214Y022270D01*
X034178Y022287D01*
X034145Y022307D01*
X034113Y022331D01*
X034084Y022357D01*
X034058Y022386D01*
X034034Y022418D01*
X034014Y022451D01*
X033997Y022487D01*
X033984Y022524D01*
X033975Y022562D01*
X033969Y022601D01*
X033967Y022640D01*
X033217Y022640D01*
X033217Y015640D01*
X033217Y015090D02*
X033367Y015090D01*
X033417Y015040D01*
X035317Y015040D01*
X035367Y015090D01*
X035517Y015090D01*
X035534Y015088D01*
X035551Y015084D01*
X035567Y015077D01*
X035581Y015067D01*
X035594Y015054D01*
X035604Y015040D01*
X035611Y015024D01*
X035615Y015007D01*
X035617Y014990D01*
X035617Y014290D01*
X035615Y014273D01*
X035611Y014256D01*
X035604Y014240D01*
X035594Y014226D01*
X035581Y014213D01*
X035567Y014203D01*
X035551Y014196D01*
X035534Y014192D01*
X035517Y014190D01*
X035367Y014190D01*
X035317Y014240D01*
X033417Y014240D01*
X033367Y014190D01*
X033217Y014190D01*
X033200Y014192D01*
X033183Y014196D01*
X033167Y014203D01*
X033153Y014213D01*
X033140Y014226D01*
X033130Y014240D01*
X033123Y014256D01*
X033119Y014273D01*
X033117Y014290D01*
X033117Y014990D01*
X033119Y015007D01*
X033123Y015024D01*
X033130Y015040D01*
X033140Y015054D01*
X033153Y015067D01*
X033167Y015077D01*
X033183Y015084D01*
X033200Y015088D01*
X033217Y015090D01*
X031717Y013435D02*
X031717Y013277D01*
X032267Y013215D02*
X032267Y011565D01*
X031717Y011503D02*
X031717Y011345D01*
X031717Y012277D02*
X031717Y012503D01*
X029817Y012290D02*
X029817Y012140D01*
X029767Y012090D01*
X029767Y010190D01*
X029817Y010140D01*
X029817Y009990D01*
X029815Y009973D01*
X029811Y009956D01*
X029804Y009940D01*
X029794Y009926D01*
X029781Y009913D01*
X029767Y009903D01*
X029751Y009896D01*
X029734Y009892D01*
X029717Y009890D01*
X029017Y009890D01*
X029000Y009892D01*
X028983Y009896D01*
X028967Y009903D01*
X028953Y009913D01*
X028940Y009926D01*
X028930Y009940D01*
X028923Y009956D01*
X028919Y009973D01*
X028917Y009990D01*
X028917Y010140D01*
X028967Y010190D01*
X028967Y012090D01*
X028917Y012140D01*
X028917Y012290D01*
X028919Y012307D01*
X028923Y012324D01*
X028930Y012340D01*
X028940Y012354D01*
X028953Y012367D01*
X028967Y012377D01*
X028983Y012384D01*
X029000Y012388D01*
X029017Y012390D01*
X029717Y012390D01*
X029734Y012388D01*
X029751Y012384D01*
X029767Y012377D01*
X029781Y012367D01*
X029794Y012354D01*
X029804Y012340D01*
X029811Y012324D01*
X029815Y012307D01*
X029817Y012290D01*
X029817Y007140D02*
X029817Y002240D01*
X030167Y002240D01*
X030167Y001640D01*
X029817Y001640D01*
X029817Y000890D01*
X033917Y000890D01*
X033917Y001640D01*
X033567Y001640D01*
X033567Y002240D01*
X033917Y002240D01*
X033917Y007140D01*
X029817Y007140D01*
X031157Y002240D02*
X031159Y002293D01*
X031165Y002346D01*
X031175Y002398D01*
X031189Y002449D01*
X031206Y002499D01*
X031227Y002548D01*
X031252Y002595D01*
X031280Y002640D01*
X031312Y002683D01*
X031347Y002723D01*
X031384Y002760D01*
X031424Y002795D01*
X031467Y002827D01*
X031512Y002855D01*
X031559Y002880D01*
X031608Y002901D01*
X031658Y002918D01*
X031709Y002932D01*
X031761Y002942D01*
X031814Y002948D01*
X031867Y002950D01*
X031920Y002948D01*
X031973Y002942D01*
X032025Y002932D01*
X032076Y002918D01*
X032126Y002901D01*
X032175Y002880D01*
X032222Y002855D01*
X032267Y002827D01*
X032310Y002795D01*
X032350Y002760D01*
X032387Y002723D01*
X032422Y002683D01*
X032454Y002640D01*
X032482Y002595D01*
X032507Y002548D01*
X032528Y002499D01*
X032545Y002449D01*
X032559Y002398D01*
X032569Y002346D01*
X032575Y002293D01*
X032577Y002240D01*
X032575Y002187D01*
X032569Y002134D01*
X032559Y002082D01*
X032545Y002031D01*
X032528Y001981D01*
X032507Y001932D01*
X032482Y001885D01*
X032454Y001840D01*
X032422Y001797D01*
X032387Y001757D01*
X032350Y001720D01*
X032310Y001685D01*
X032267Y001653D01*
X032222Y001625D01*
X032175Y001600D01*
X032126Y001579D01*
X032076Y001562D01*
X032025Y001548D01*
X031973Y001538D01*
X031920Y001532D01*
X031867Y001530D01*
X031814Y001532D01*
X031761Y001538D01*
X031709Y001548D01*
X031658Y001562D01*
X031608Y001579D01*
X031559Y001600D01*
X031512Y001625D01*
X031467Y001653D01*
X031424Y001685D01*
X031384Y001720D01*
X031347Y001757D01*
X031312Y001797D01*
X031280Y001840D01*
X031252Y001885D01*
X031227Y001932D01*
X031206Y001981D01*
X031189Y002031D01*
X031175Y002082D01*
X031165Y002134D01*
X031159Y002187D01*
X031157Y002240D01*
X020817Y009990D02*
X020817Y010140D01*
X020767Y010190D01*
X020767Y012090D01*
X020817Y012140D01*
X020817Y012290D01*
X020815Y012307D01*
X020811Y012324D01*
X020804Y012340D01*
X020794Y012354D01*
X020781Y012367D01*
X020767Y012377D01*
X020751Y012384D01*
X020734Y012388D01*
X020717Y012390D01*
X020017Y012390D01*
X020000Y012388D01*
X019983Y012384D01*
X019967Y012377D01*
X019953Y012367D01*
X019940Y012354D01*
X019930Y012340D01*
X019923Y012324D01*
X019919Y012307D01*
X019917Y012290D01*
X019917Y012140D01*
X019967Y012090D01*
X019967Y010190D01*
X019917Y010140D01*
X019917Y009990D01*
X019919Y009973D01*
X019923Y009956D01*
X019930Y009940D01*
X019940Y009926D01*
X019953Y009913D01*
X019967Y009903D01*
X019983Y009896D01*
X020000Y009892D01*
X020017Y009890D01*
X020717Y009890D01*
X020734Y009892D01*
X020751Y009896D01*
X020767Y009903D01*
X020781Y009913D01*
X020794Y009926D01*
X020804Y009940D01*
X020811Y009956D01*
X020815Y009973D01*
X020817Y009990D01*
X033217Y023190D02*
X033367Y023190D01*
X033417Y023240D01*
X035317Y023240D01*
X035367Y023190D01*
X035517Y023190D01*
X035534Y023192D01*
X035551Y023196D01*
X035567Y023203D01*
X035581Y023213D01*
X035594Y023226D01*
X035604Y023240D01*
X035611Y023256D01*
X035615Y023273D01*
X035617Y023290D01*
X035617Y023990D01*
X035615Y024007D01*
X035611Y024024D01*
X035604Y024040D01*
X035594Y024054D01*
X035581Y024067D01*
X035567Y024077D01*
X035551Y024084D01*
X035534Y024088D01*
X035517Y024090D01*
X035367Y024090D01*
X035317Y024040D01*
X033417Y024040D01*
X033367Y024090D01*
X033217Y024090D01*
X033217Y024190D02*
X033367Y024190D01*
X033417Y024240D01*
X035317Y024240D01*
X035367Y024190D01*
X035517Y024190D01*
X035534Y024192D01*
X035551Y024196D01*
X035567Y024203D01*
X035581Y024213D01*
X035594Y024226D01*
X035604Y024240D01*
X035611Y024256D01*
X035615Y024273D01*
X035617Y024290D01*
X035617Y024990D01*
X035615Y025007D01*
X035611Y025024D01*
X035604Y025040D01*
X035594Y025054D01*
X035581Y025067D01*
X035567Y025077D01*
X035551Y025084D01*
X035534Y025088D01*
X035517Y025090D01*
X035367Y025090D01*
X035317Y025040D01*
X033417Y025040D01*
X033367Y025090D01*
X033217Y025090D01*
X033200Y025088D01*
X033183Y025084D01*
X033167Y025077D01*
X033153Y025067D01*
X033140Y025054D01*
X033130Y025040D01*
X033123Y025024D01*
X033119Y025007D01*
X033117Y024990D01*
X033117Y024290D01*
X033119Y024273D01*
X033123Y024256D01*
X033130Y024240D01*
X033140Y024226D01*
X033153Y024213D01*
X033167Y024203D01*
X033183Y024196D01*
X033200Y024192D01*
X033217Y024190D01*
X033217Y024090D02*
X033200Y024088D01*
X033183Y024084D01*
X033167Y024077D01*
X033153Y024067D01*
X033140Y024054D01*
X033130Y024040D01*
X033123Y024024D01*
X033119Y024007D01*
X033117Y023990D01*
X033117Y023290D01*
X033119Y023273D01*
X033123Y023256D01*
X033130Y023240D01*
X033140Y023226D01*
X033153Y023213D01*
X033167Y023203D01*
X033183Y023196D01*
X033200Y023192D01*
X033217Y023190D01*
D15*
X004177Y010042D02*
X004177Y007679D01*
X004572Y008270D02*
X004572Y009451D01*
X005162Y009451D01*
X005162Y008270D01*
X004572Y008270D01*
X005557Y007679D02*
X005557Y010042D01*
X006177Y010042D02*
X006177Y007679D01*
X006572Y008270D02*
X006572Y009451D01*
X007162Y009451D01*
X007162Y008270D01*
X006572Y008270D01*
X007557Y007679D02*
X007557Y010042D01*
X008177Y010042D02*
X008177Y007679D01*
X008572Y008270D02*
X008572Y009451D01*
X009162Y009451D01*
X009162Y008270D01*
X008572Y008270D01*
X009557Y007679D02*
X009557Y010042D01*
X010177Y010042D02*
X010177Y007679D01*
X010572Y008270D02*
X010572Y009451D01*
X011162Y009451D01*
X011162Y008270D01*
X010572Y008270D01*
X011557Y007679D02*
X011557Y010042D01*
X012177Y010042D02*
X012177Y007679D01*
X012572Y008270D02*
X012572Y009451D01*
X013162Y009451D01*
X013162Y008270D01*
X012572Y008270D01*
X013557Y007679D02*
X013557Y010042D01*
X014177Y010042D02*
X014177Y007679D01*
X014572Y008270D02*
X014572Y009451D01*
X015162Y009451D01*
X015162Y008270D01*
X014572Y008270D01*
X015557Y007679D02*
X015557Y010042D01*
X016177Y010042D02*
X016177Y007679D01*
X016572Y008270D02*
X016572Y009451D01*
X017162Y009451D01*
X017162Y008270D01*
X016572Y008270D01*
X017557Y007679D02*
X017557Y010042D01*
X018177Y010042D02*
X018177Y007679D01*
X018572Y008270D02*
X018572Y009451D01*
X019162Y009451D01*
X019162Y008270D01*
X018572Y008270D01*
X019557Y007679D02*
X019557Y010042D01*
X020291Y010674D02*
X020141Y010824D01*
X020592Y010824D01*
X020592Y010674D02*
X020592Y010974D01*
X020517Y011134D02*
X020216Y011434D01*
X020517Y011434D01*
X020592Y011359D01*
X020592Y011209D01*
X020517Y011134D01*
X020216Y011134D01*
X020141Y011209D01*
X020141Y011359D01*
X020216Y011434D01*
X020141Y011595D02*
X020592Y011595D01*
X020442Y011595D02*
X020141Y011895D01*
X020366Y011670D02*
X020592Y011895D01*
X019692Y011980D02*
X019617Y011905D01*
X019692Y011980D02*
X019692Y012130D01*
X019617Y012205D01*
X019466Y012205D01*
X019391Y012130D01*
X019391Y012055D01*
X019466Y011905D01*
X019241Y011905D01*
X019241Y012205D01*
X019316Y011744D02*
X019466Y011744D01*
X019542Y011669D01*
X019542Y011444D01*
X019692Y011444D02*
X019241Y011444D01*
X019241Y011669D01*
X019316Y011744D01*
X019542Y011594D02*
X019692Y011744D01*
X023319Y009815D02*
X023319Y009365D01*
X023619Y009365D02*
X023319Y009815D01*
X023619Y009815D02*
X023619Y009365D01*
X023779Y009365D02*
X024079Y009365D01*
X024079Y009590D01*
X023929Y009515D01*
X023854Y009515D01*
X023779Y009590D01*
X023779Y009740D01*
X023854Y009815D01*
X024004Y009815D01*
X024079Y009740D01*
X024239Y009740D02*
X024239Y009440D01*
X024315Y009365D01*
X024465Y009365D01*
X024540Y009440D01*
X024540Y009515D01*
X024465Y009590D01*
X024239Y009590D01*
X024239Y009740D02*
X024315Y009815D01*
X024465Y009815D01*
X024540Y009740D01*
X024700Y009740D02*
X024775Y009815D01*
X024925Y009815D01*
X025000Y009740D01*
X025000Y009590D02*
X024850Y009515D01*
X024775Y009515D01*
X024700Y009590D01*
X024700Y009740D01*
X025000Y009590D02*
X025000Y009365D01*
X024700Y009365D01*
X025160Y009440D02*
X025235Y009365D01*
X025385Y009365D01*
X025460Y009440D01*
X025460Y009515D01*
X025385Y009590D01*
X025235Y009590D01*
X025160Y009665D01*
X025160Y009740D01*
X025235Y009815D01*
X025385Y009815D01*
X025460Y009740D01*
X025621Y009815D02*
X025921Y009815D01*
X025921Y009365D01*
X026156Y009365D02*
X026381Y009590D01*
X026081Y009590D01*
X026156Y009815D02*
X026156Y009365D01*
X026310Y009115D02*
X026234Y009040D01*
X026310Y009115D02*
X026460Y009115D01*
X026535Y009040D01*
X026535Y008740D01*
X026460Y008665D01*
X026310Y008665D01*
X026234Y008740D01*
X026074Y008665D02*
X026074Y008890D01*
X025924Y008815D01*
X025849Y008815D01*
X025774Y008890D01*
X025774Y009040D01*
X025849Y009115D01*
X025999Y009115D01*
X026074Y009040D01*
X026074Y008665D02*
X025774Y008665D01*
X026692Y008665D02*
X026842Y008665D01*
X026767Y008665D02*
X026767Y009115D01*
X026842Y009115D02*
X026692Y009115D01*
X026842Y009365D02*
X026541Y009365D01*
X026541Y009440D01*
X026842Y009740D01*
X026842Y009815D01*
X028291Y011465D02*
X028291Y011690D01*
X028366Y011765D01*
X028516Y011765D01*
X028592Y011690D01*
X028592Y011465D01*
X028742Y011465D02*
X028291Y011465D01*
X028592Y011615D02*
X028742Y011765D01*
X028667Y011925D02*
X028742Y012000D01*
X028742Y012151D01*
X028667Y012226D01*
X028592Y012226D01*
X028516Y012151D01*
X028516Y011925D01*
X028667Y011925D01*
X028516Y011925D02*
X028366Y012076D01*
X028291Y012226D01*
X029141Y011036D02*
X029442Y010735D01*
X029366Y010810D02*
X029592Y011036D01*
X029592Y010735D02*
X029141Y010735D01*
X029141Y010425D02*
X029592Y010425D01*
X029592Y010275D02*
X029592Y010575D01*
X029291Y010275D02*
X029141Y010425D01*
X032492Y012615D02*
X032642Y012615D01*
X032567Y012615D02*
X032567Y013065D01*
X032492Y013065D02*
X032642Y013065D01*
X032799Y012990D02*
X032799Y012690D01*
X032874Y012615D01*
X033024Y012615D01*
X033099Y012690D01*
X033259Y012840D02*
X033484Y013065D01*
X033484Y012615D01*
X033559Y012840D02*
X033259Y012840D01*
X033099Y012990D02*
X033024Y013065D01*
X032874Y013065D01*
X032799Y012990D01*
X033502Y014415D02*
X033802Y014415D01*
X033652Y014415D02*
X033652Y014865D01*
X033502Y014715D01*
X033962Y014790D02*
X034037Y014865D01*
X034187Y014865D01*
X034262Y014790D01*
X033962Y014490D01*
X034037Y014415D01*
X034187Y014415D01*
X034262Y014490D01*
X034262Y014790D01*
X034422Y014865D02*
X034422Y014415D01*
X034422Y014565D02*
X034723Y014865D01*
X034498Y014640D02*
X034723Y014415D01*
X033962Y014490D02*
X033962Y014790D01*
X033952Y015265D02*
X033652Y015265D01*
X033952Y015565D01*
X033952Y015640D01*
X033877Y015715D01*
X033727Y015715D01*
X033652Y015640D01*
X033492Y015640D02*
X033492Y015490D01*
X033417Y015415D01*
X033192Y015415D01*
X033342Y015415D02*
X033492Y015265D01*
X033192Y015265D02*
X033192Y015715D01*
X033417Y015715D01*
X033492Y015640D01*
X037641Y017132D02*
X037641Y017432D01*
X037716Y017432D01*
X038017Y017132D01*
X038092Y017132D01*
X037866Y017592D02*
X037866Y017893D01*
X037641Y017817D02*
X037866Y017592D01*
X038092Y017817D02*
X037641Y017817D01*
X037641Y018053D02*
X038092Y018053D01*
X038092Y018353D01*
X038017Y018513D02*
X038092Y018588D01*
X038092Y018738D01*
X038017Y018813D01*
X037942Y018813D01*
X037866Y018738D01*
X037866Y018588D01*
X037791Y018513D01*
X037716Y018513D01*
X037641Y018588D01*
X037641Y018738D01*
X037716Y018813D01*
X037791Y018973D02*
X037641Y019124D01*
X038092Y019124D01*
X038092Y019274D02*
X038092Y018973D01*
X038092Y019434D02*
X037791Y019734D01*
X037716Y019734D01*
X037641Y019659D01*
X037641Y019509D01*
X037716Y019434D01*
X038092Y019434D02*
X038092Y019734D01*
X038017Y019894D02*
X038092Y019969D01*
X038092Y020119D01*
X038017Y020194D01*
X037866Y020194D01*
X037791Y020119D01*
X037791Y020044D01*
X037866Y019894D01*
X037641Y019894D01*
X037641Y020194D01*
X037641Y020355D02*
X038092Y020655D01*
X037641Y020655D01*
X037641Y020355D02*
X038092Y020355D01*
X036759Y022565D02*
X036459Y022565D01*
X036759Y022865D01*
X036759Y022940D01*
X036684Y023015D01*
X036534Y023015D01*
X036459Y022940D01*
X036299Y022940D02*
X036224Y023015D01*
X036074Y023015D01*
X035999Y022940D01*
X035999Y022640D01*
X036074Y022565D01*
X036224Y022565D01*
X036299Y022640D01*
X035842Y022565D02*
X035692Y022565D01*
X035767Y022565D02*
X035767Y023015D01*
X035692Y023015D02*
X035842Y023015D01*
X034682Y023390D02*
X034606Y023315D01*
X034456Y023315D01*
X034381Y023390D01*
X034221Y023315D02*
X034071Y023465D01*
X034146Y023465D02*
X033921Y023465D01*
X033921Y023315D02*
X033921Y023765D01*
X034146Y023765D01*
X034221Y023690D01*
X034221Y023540D01*
X034146Y023465D01*
X034381Y023690D02*
X034456Y023765D01*
X034606Y023765D01*
X034682Y023690D01*
X034682Y023615D01*
X034606Y023540D01*
X034682Y023465D01*
X034682Y023390D01*
X034606Y023540D02*
X034531Y023540D01*
X034627Y024515D02*
X034627Y024965D01*
X034402Y024740D01*
X034702Y024740D01*
X034242Y024740D02*
X034242Y024890D01*
X034167Y024965D01*
X033942Y024965D01*
X033942Y024515D01*
X033942Y024665D02*
X034167Y024665D01*
X034242Y024740D01*
X034092Y024665D02*
X034242Y024515D01*
X030137Y025320D02*
X029847Y025320D01*
X029987Y025470D02*
X029987Y025160D01*
X038597Y023960D02*
X038887Y023960D01*
X038747Y023810D02*
X038747Y024120D01*
X038733Y012557D02*
X036528Y012557D01*
X036528Y009801D01*
X038733Y009801D01*
X038733Y012557D01*
X039284Y012557D01*
X039284Y009801D01*
X038733Y009801D01*
X016652Y021915D02*
X016352Y021915D01*
X016652Y022215D01*
X016652Y022290D01*
X016577Y022365D01*
X016427Y022365D01*
X016352Y022290D01*
X016192Y022365D02*
X016042Y022365D01*
X016117Y022365D02*
X016117Y021990D01*
X016042Y021915D01*
X015967Y021915D01*
X015892Y021990D01*
X013333Y021110D02*
X013032Y021110D01*
X013258Y021335D01*
X013258Y020885D01*
X012872Y021110D02*
X012797Y021035D01*
X012572Y021035D01*
X012572Y020885D02*
X012572Y021335D01*
X012797Y021335D01*
X012872Y021260D01*
X012872Y021110D01*
X012412Y021335D02*
X012262Y021335D01*
X012337Y021335D02*
X012337Y020960D01*
X012262Y020885D01*
X012187Y020885D01*
X012112Y020960D01*
X012262Y020335D02*
X012412Y020335D01*
X012337Y020335D02*
X012337Y019960D01*
X012262Y019885D01*
X012187Y019885D01*
X012112Y019960D01*
X012572Y019885D02*
X012572Y020335D01*
X012797Y020335D01*
X012872Y020260D01*
X012872Y020110D01*
X012797Y020035D01*
X012572Y020035D01*
X013032Y019960D02*
X013108Y019885D01*
X013258Y019885D01*
X013333Y019960D01*
X013333Y020035D01*
X013258Y020110D01*
X013183Y020110D01*
X013258Y020110D02*
X013333Y020185D01*
X013333Y020260D01*
X013258Y020335D01*
X013108Y020335D01*
X013032Y020260D01*
X012936Y018395D02*
X012786Y018395D01*
X012711Y018320D01*
X012551Y018320D02*
X012476Y018395D01*
X012251Y018395D01*
X012251Y017945D01*
X012251Y018095D02*
X012476Y018095D01*
X012551Y018170D01*
X012551Y018320D01*
X012936Y018395D02*
X013012Y018320D01*
X013012Y018245D01*
X012711Y017945D01*
X013012Y017945D01*
X012016Y018020D02*
X012016Y018395D01*
X011941Y018395D02*
X012091Y018395D01*
X012016Y018020D02*
X011941Y017945D01*
X011866Y017945D01*
X011790Y018020D01*
X004692Y012705D02*
X004692Y012405D01*
X004692Y012555D02*
X004241Y012555D01*
X004391Y012405D01*
X004316Y012244D02*
X004466Y012244D01*
X004542Y012169D01*
X004542Y011944D01*
X004692Y011944D02*
X004241Y011944D01*
X004241Y012169D01*
X004316Y012244D01*
X004542Y012094D02*
X004692Y012244D01*
X003842Y012095D02*
X003391Y012095D01*
X003466Y011934D02*
X003767Y011634D01*
X003842Y011709D01*
X003842Y011859D01*
X003767Y011934D01*
X003466Y011934D01*
X003391Y011859D01*
X003391Y011709D01*
X003466Y011634D01*
X003767Y011634D01*
X003842Y011474D02*
X003842Y011174D01*
X003842Y011324D02*
X003391Y011324D01*
X003541Y011174D01*
X003692Y012095D02*
X003391Y012395D01*
X003616Y012170D02*
X003842Y012395D01*
X002833Y019445D02*
X002532Y019445D01*
X002683Y019445D02*
X002683Y019895D01*
X002532Y019745D01*
X002372Y019670D02*
X002297Y019595D01*
X002072Y019595D01*
X002072Y019445D02*
X002072Y019895D01*
X002297Y019895D01*
X002372Y019820D01*
X002372Y019670D01*
X001912Y019895D02*
X001762Y019895D01*
X001837Y019895D02*
X001837Y019520D01*
X001762Y019445D01*
X001687Y019445D01*
X001612Y019520D01*
D16*
X003617Y013060D03*
X003617Y010220D03*
X020367Y009720D03*
X020367Y012560D03*
X029367Y012560D03*
X029367Y009720D03*
D17*
X030867Y007315D03*
X031867Y007315D03*
X032867Y007315D03*
D18*
X031674Y009385D02*
X031574Y009385D01*
X031674Y009485D01*
X031674Y009510D01*
X031649Y009535D01*
X031599Y009535D01*
X031574Y009510D01*
X031527Y009510D02*
X031502Y009535D01*
X031452Y009535D01*
X031427Y009510D01*
X031427Y009410D01*
X031452Y009385D01*
X031502Y009385D01*
X031527Y009410D01*
X034522Y011425D02*
X034547Y011400D01*
X034647Y011400D01*
X034672Y011425D01*
X034672Y011475D01*
X034647Y011500D01*
X034672Y011548D02*
X034672Y011648D01*
X034672Y011598D02*
X034522Y011598D01*
X034572Y011548D01*
X034547Y011500D02*
X034522Y011475D01*
X034522Y011425D01*
X030592Y012069D02*
X030640Y012083D01*
X030639Y012083D02*
X030659Y012025D01*
X030683Y011968D01*
X030710Y011912D01*
X030741Y011858D01*
X030774Y011806D01*
X030811Y011757D01*
X030851Y011709D01*
X030893Y011664D01*
X030938Y011622D01*
X030986Y011583D01*
X031035Y011546D01*
X031087Y011513D01*
X031141Y011482D01*
X031197Y011455D01*
X031254Y011432D01*
X031312Y011411D01*
X031372Y011395D01*
X031432Y011382D01*
X031493Y011373D01*
X031555Y011367D01*
X031616Y011365D01*
X031678Y011367D01*
X031740Y011372D01*
X031801Y011382D01*
X031861Y011395D01*
X031921Y011411D01*
X031979Y011431D01*
X032036Y011455D01*
X032092Y011482D01*
X032146Y011512D01*
X032198Y011545D01*
X032248Y011582D01*
X032278Y011543D01*
X032279Y011543D01*
X032226Y011504D01*
X032172Y011469D01*
X032115Y011437D01*
X032057Y011409D01*
X031997Y011384D01*
X031936Y011363D01*
X031873Y011346D01*
X031810Y011332D01*
X031746Y011323D01*
X031681Y011317D01*
X031617Y011315D01*
X031552Y011317D01*
X031487Y011323D01*
X031423Y011333D01*
X031360Y011346D01*
X031297Y011364D01*
X031236Y011385D01*
X031176Y011410D01*
X031118Y011438D01*
X031061Y011470D01*
X031007Y011505D01*
X030955Y011543D01*
X030905Y011585D01*
X030858Y011629D01*
X030813Y011676D01*
X030772Y011726D01*
X030733Y011778D01*
X030698Y011833D01*
X030666Y011889D01*
X030637Y011947D01*
X030613Y012007D01*
X030591Y012068D01*
X030600Y012071D01*
X030621Y012010D01*
X030646Y011951D01*
X030674Y011893D01*
X030706Y011837D01*
X030741Y011783D01*
X030779Y011732D01*
X030820Y011682D01*
X030864Y011635D01*
X030911Y011591D01*
X030960Y011550D01*
X031012Y011512D01*
X031066Y011477D01*
X031122Y011446D01*
X031180Y011418D01*
X031239Y011393D01*
X031300Y011372D01*
X031362Y011355D01*
X031425Y011341D01*
X031488Y011332D01*
X031552Y011326D01*
X031617Y011324D01*
X031681Y011326D01*
X031745Y011332D01*
X031808Y011341D01*
X031871Y011355D01*
X031933Y011372D01*
X031994Y011393D01*
X032053Y011417D01*
X032111Y011445D01*
X032167Y011477D01*
X032221Y011512D01*
X032273Y011550D01*
X032267Y011557D01*
X032216Y011519D01*
X032162Y011485D01*
X032107Y011453D01*
X032050Y011426D01*
X031991Y011401D01*
X031930Y011381D01*
X031869Y011363D01*
X031807Y011350D01*
X031744Y011341D01*
X031680Y011335D01*
X031616Y011333D01*
X031553Y011335D01*
X031489Y011341D01*
X031426Y011350D01*
X031364Y011364D01*
X031303Y011381D01*
X031242Y011402D01*
X031184Y011426D01*
X031126Y011454D01*
X031071Y011485D01*
X031017Y011520D01*
X030966Y011557D01*
X030917Y011598D01*
X030870Y011642D01*
X030827Y011688D01*
X030786Y011737D01*
X030748Y011788D01*
X030713Y011842D01*
X030682Y011897D01*
X030654Y011955D01*
X030629Y012013D01*
X030608Y012074D01*
X030617Y012076D01*
X030638Y012017D01*
X030662Y011958D01*
X030690Y011901D01*
X030721Y011846D01*
X030755Y011793D01*
X030793Y011743D01*
X030833Y011694D01*
X030877Y011648D01*
X030923Y011605D01*
X030971Y011565D01*
X031022Y011527D01*
X031075Y011493D01*
X031130Y011462D01*
X031187Y011434D01*
X031246Y011410D01*
X031305Y011389D01*
X031366Y011372D01*
X031428Y011359D01*
X031490Y011350D01*
X031553Y011344D01*
X031616Y011342D01*
X031680Y011344D01*
X031743Y011350D01*
X031805Y011359D01*
X031867Y011372D01*
X031928Y011389D01*
X031987Y011410D01*
X032046Y011434D01*
X032103Y011461D01*
X032158Y011492D01*
X032211Y011527D01*
X032262Y011564D01*
X032256Y011571D01*
X032206Y011534D01*
X032153Y011500D01*
X032098Y011469D01*
X032042Y011442D01*
X031984Y011418D01*
X031925Y011398D01*
X031865Y011381D01*
X031803Y011368D01*
X031741Y011358D01*
X031679Y011353D01*
X031616Y011351D01*
X031554Y011353D01*
X031491Y011359D01*
X031430Y011368D01*
X031368Y011381D01*
X031308Y011398D01*
X031249Y011418D01*
X031191Y011442D01*
X031135Y011470D01*
X031080Y011501D01*
X031027Y011534D01*
X030977Y011572D01*
X030929Y011612D01*
X030883Y011655D01*
X030840Y011700D01*
X030800Y011748D01*
X030763Y011799D01*
X030729Y011851D01*
X030698Y011906D01*
X030670Y011962D01*
X030646Y012020D01*
X030626Y012079D01*
X030634Y012082D01*
X030655Y012023D01*
X030679Y011966D01*
X030706Y011910D01*
X030736Y011856D01*
X030770Y011804D01*
X030807Y011754D01*
X030847Y011706D01*
X030889Y011661D01*
X030935Y011618D01*
X030982Y011579D01*
X031033Y011542D01*
X031085Y011508D01*
X031139Y011478D01*
X031195Y011451D01*
X031252Y011427D01*
X031311Y011407D01*
X031370Y011390D01*
X031431Y011377D01*
X031493Y011368D01*
X031554Y011362D01*
X031616Y011360D01*
X031679Y011362D01*
X031740Y011367D01*
X031802Y011377D01*
X031862Y011390D01*
X031922Y011406D01*
X031981Y011426D01*
X032038Y011450D01*
X032094Y011477D01*
X032148Y011508D01*
X032201Y011541D01*
X032251Y011578D01*
X032278Y013237D02*
X032247Y013198D01*
X032248Y013198D02*
X032198Y013235D01*
X032146Y013268D01*
X032092Y013298D01*
X032036Y013325D01*
X031979Y013349D01*
X031921Y013369D01*
X031861Y013385D01*
X031801Y013398D01*
X031740Y013408D01*
X031678Y013413D01*
X031616Y013415D01*
X031555Y013413D01*
X031493Y013407D01*
X031432Y013398D01*
X031372Y013385D01*
X031312Y013369D01*
X031254Y013348D01*
X031197Y013325D01*
X031141Y013298D01*
X031087Y013267D01*
X031035Y013234D01*
X030986Y013197D01*
X030938Y013158D01*
X030893Y013116D01*
X030851Y013071D01*
X030811Y013023D01*
X030774Y012974D01*
X030741Y012922D01*
X030710Y012868D01*
X030683Y012812D01*
X030659Y012755D01*
X030639Y012697D01*
X030592Y012711D01*
X030591Y012712D01*
X030613Y012773D01*
X030637Y012833D01*
X030666Y012891D01*
X030698Y012947D01*
X030733Y013002D01*
X030772Y013054D01*
X030813Y013104D01*
X030858Y013151D01*
X030905Y013195D01*
X030955Y013237D01*
X031007Y013275D01*
X031061Y013310D01*
X031118Y013342D01*
X031176Y013370D01*
X031236Y013395D01*
X031297Y013416D01*
X031360Y013434D01*
X031423Y013447D01*
X031487Y013457D01*
X031552Y013463D01*
X031617Y013465D01*
X031681Y013463D01*
X031746Y013457D01*
X031810Y013448D01*
X031873Y013434D01*
X031936Y013417D01*
X031997Y013396D01*
X032057Y013371D01*
X032115Y013343D01*
X032172Y013311D01*
X032226Y013276D01*
X032279Y013237D01*
X032273Y013230D01*
X032221Y013268D01*
X032167Y013303D01*
X032111Y013335D01*
X032053Y013363D01*
X031994Y013387D01*
X031933Y013408D01*
X031871Y013425D01*
X031808Y013439D01*
X031745Y013448D01*
X031681Y013454D01*
X031617Y013456D01*
X031552Y013454D01*
X031488Y013448D01*
X031425Y013439D01*
X031362Y013425D01*
X031300Y013408D01*
X031239Y013387D01*
X031180Y013362D01*
X031122Y013334D01*
X031066Y013303D01*
X031012Y013268D01*
X030960Y013230D01*
X030911Y013189D01*
X030864Y013145D01*
X030820Y013098D01*
X030779Y013048D01*
X030741Y012997D01*
X030706Y012943D01*
X030674Y012887D01*
X030646Y012829D01*
X030621Y012770D01*
X030600Y012709D01*
X030608Y012706D01*
X030629Y012767D01*
X030654Y012825D01*
X030682Y012883D01*
X030713Y012938D01*
X030748Y012992D01*
X030786Y013043D01*
X030827Y013092D01*
X030870Y013138D01*
X030917Y013182D01*
X030966Y013223D01*
X031017Y013260D01*
X031071Y013295D01*
X031126Y013326D01*
X031184Y013354D01*
X031242Y013378D01*
X031303Y013399D01*
X031364Y013416D01*
X031426Y013430D01*
X031489Y013439D01*
X031553Y013445D01*
X031616Y013447D01*
X031680Y013445D01*
X031744Y013439D01*
X031807Y013430D01*
X031869Y013417D01*
X031930Y013399D01*
X031991Y013379D01*
X032050Y013354D01*
X032107Y013327D01*
X032162Y013295D01*
X032216Y013261D01*
X032267Y013223D01*
X032262Y013216D01*
X032211Y013253D01*
X032158Y013288D01*
X032103Y013319D01*
X032046Y013346D01*
X031987Y013370D01*
X031928Y013391D01*
X031867Y013408D01*
X031805Y013421D01*
X031743Y013430D01*
X031680Y013436D01*
X031616Y013438D01*
X031553Y013436D01*
X031490Y013430D01*
X031428Y013421D01*
X031366Y013408D01*
X031305Y013391D01*
X031246Y013370D01*
X031187Y013346D01*
X031130Y013318D01*
X031075Y013287D01*
X031022Y013253D01*
X030971Y013215D01*
X030923Y013175D01*
X030877Y013132D01*
X030833Y013086D01*
X030793Y013037D01*
X030755Y012987D01*
X030721Y012934D01*
X030690Y012879D01*
X030662Y012822D01*
X030638Y012763D01*
X030617Y012704D01*
X030626Y012701D01*
X030646Y012760D01*
X030670Y012818D01*
X030698Y012874D01*
X030729Y012929D01*
X030763Y012981D01*
X030800Y013032D01*
X030840Y013080D01*
X030883Y013125D01*
X030929Y013168D01*
X030977Y013208D01*
X031027Y013246D01*
X031080Y013279D01*
X031135Y013310D01*
X031191Y013338D01*
X031249Y013362D01*
X031308Y013382D01*
X031368Y013399D01*
X031430Y013412D01*
X031491Y013421D01*
X031554Y013427D01*
X031616Y013429D01*
X031679Y013427D01*
X031741Y013422D01*
X031803Y013412D01*
X031865Y013399D01*
X031925Y013382D01*
X031984Y013362D01*
X032042Y013338D01*
X032098Y013311D01*
X032153Y013280D01*
X032206Y013246D01*
X032256Y013209D01*
X032251Y013202D01*
X032201Y013239D01*
X032148Y013272D01*
X032094Y013303D01*
X032038Y013330D01*
X031981Y013354D01*
X031922Y013374D01*
X031862Y013390D01*
X031802Y013403D01*
X031740Y013413D01*
X031679Y013418D01*
X031616Y013420D01*
X031554Y013418D01*
X031493Y013412D01*
X031431Y013403D01*
X031370Y013390D01*
X031311Y013373D01*
X031252Y013353D01*
X031195Y013329D01*
X031139Y013302D01*
X031085Y013272D01*
X031033Y013238D01*
X030982Y013201D01*
X030935Y013162D01*
X030889Y013119D01*
X030847Y013074D01*
X030807Y013026D01*
X030770Y012976D01*
X030736Y012924D01*
X030706Y012870D01*
X030679Y012814D01*
X030655Y012757D01*
X030634Y012698D01*
X031372Y025007D02*
X031331Y024978D01*
X031332Y024978D02*
X031304Y025013D01*
X031274Y025046D01*
X031241Y025077D01*
X031206Y025104D01*
X031169Y025129D01*
X031130Y025151D01*
X031090Y025170D01*
X031048Y025186D01*
X031005Y025198D01*
X030961Y025207D01*
X030917Y025213D01*
X030872Y025215D01*
X030872Y025264D01*
X030872Y025265D01*
X030921Y025263D01*
X030969Y025257D01*
X031017Y025247D01*
X031063Y025233D01*
X031109Y025216D01*
X031153Y025196D01*
X031195Y025172D01*
X031236Y025145D01*
X031274Y025114D01*
X031310Y025081D01*
X031343Y025046D01*
X031373Y025007D01*
X031365Y025002D01*
X031336Y025040D01*
X031303Y025075D01*
X031268Y025108D01*
X031230Y025137D01*
X031191Y025164D01*
X031149Y025188D01*
X031105Y025208D01*
X031061Y025225D01*
X031014Y025238D01*
X030967Y025248D01*
X030920Y025254D01*
X030872Y025256D01*
X030872Y025247D01*
X030919Y025245D01*
X030966Y025239D01*
X031012Y025229D01*
X031058Y025216D01*
X031102Y025200D01*
X031145Y025180D01*
X031186Y025156D01*
X031225Y025130D01*
X031262Y025101D01*
X031297Y025069D01*
X031329Y025034D01*
X031358Y024997D01*
X031351Y024992D01*
X031322Y025028D01*
X031290Y025062D01*
X031256Y025094D01*
X031220Y025123D01*
X031181Y025149D01*
X031141Y025172D01*
X031098Y025191D01*
X031055Y025208D01*
X031010Y025221D01*
X030965Y025230D01*
X030918Y025236D01*
X030872Y025238D01*
X030872Y025229D01*
X030918Y025227D01*
X030963Y025221D01*
X031008Y025212D01*
X031052Y025199D01*
X031095Y025183D01*
X031137Y025164D01*
X031176Y025141D01*
X031214Y025116D01*
X031250Y025087D01*
X031284Y025056D01*
X031315Y025022D01*
X031343Y024986D01*
X031336Y024981D01*
X031308Y025017D01*
X031278Y025050D01*
X031244Y025080D01*
X031209Y025108D01*
X031172Y025134D01*
X031132Y025156D01*
X031092Y025175D01*
X031049Y025191D01*
X031006Y025203D01*
X030962Y025212D01*
X030917Y025218D01*
X030872Y025220D01*
X030871Y023796D02*
X030871Y023886D01*
X030872Y023885D02*
X030926Y023887D01*
X030979Y023893D01*
X031032Y023903D01*
X031084Y023917D01*
X031135Y023934D01*
X031185Y023955D01*
X031233Y023979D01*
X031279Y024007D01*
X031323Y024038D01*
X031364Y024072D01*
X031404Y024109D01*
X031440Y024148D01*
X031508Y024091D01*
X031509Y024090D01*
X031471Y024049D01*
X031431Y024011D01*
X031388Y023975D01*
X031343Y023942D01*
X031296Y023912D01*
X031248Y023886D01*
X031197Y023862D01*
X031145Y023842D01*
X031092Y023826D01*
X031038Y023812D01*
X030983Y023803D01*
X030928Y023797D01*
X030872Y023795D01*
X030872Y023804D01*
X030927Y023806D01*
X030982Y023812D01*
X031036Y023821D01*
X031090Y023834D01*
X031142Y023851D01*
X031194Y023870D01*
X031244Y023894D01*
X031292Y023920D01*
X031338Y023950D01*
X031383Y023982D01*
X031425Y024017D01*
X031465Y024056D01*
X031502Y024096D01*
X031495Y024102D01*
X031458Y024062D01*
X031419Y024024D01*
X031377Y023989D01*
X031333Y023957D01*
X031287Y023928D01*
X031239Y023902D01*
X031190Y023879D01*
X031139Y023859D01*
X031087Y023843D01*
X031034Y023830D01*
X030981Y023821D01*
X030926Y023815D01*
X030872Y023813D01*
X030872Y023822D01*
X030926Y023824D01*
X030979Y023830D01*
X031032Y023839D01*
X031085Y023852D01*
X031136Y023868D01*
X031187Y023887D01*
X031235Y023910D01*
X031283Y023935D01*
X031328Y023964D01*
X031372Y023996D01*
X031413Y024031D01*
X031452Y024068D01*
X031488Y024108D01*
X031481Y024114D01*
X031445Y024074D01*
X031407Y024037D01*
X031366Y024003D01*
X031323Y023972D01*
X031278Y023943D01*
X031231Y023918D01*
X031183Y023895D01*
X031133Y023876D01*
X031082Y023860D01*
X031031Y023848D01*
X030978Y023839D01*
X030925Y023833D01*
X030872Y023831D01*
X030872Y023840D01*
X030925Y023842D01*
X030977Y023848D01*
X031029Y023857D01*
X031080Y023869D01*
X031130Y023885D01*
X031180Y023904D01*
X031227Y023926D01*
X031274Y023951D01*
X031318Y023979D01*
X031360Y024010D01*
X031401Y024044D01*
X031439Y024081D01*
X031474Y024119D01*
X031468Y024125D01*
X031432Y024087D01*
X031395Y024051D01*
X031355Y024017D01*
X031313Y023987D01*
X031269Y023959D01*
X031223Y023934D01*
X031176Y023912D01*
X031127Y023893D01*
X031078Y023878D01*
X031027Y023865D01*
X030976Y023857D01*
X030924Y023851D01*
X030872Y023849D01*
X030872Y023858D01*
X030928Y023860D01*
X030983Y023867D01*
X031038Y023877D01*
X031092Y023891D01*
X031145Y023909D01*
X031196Y023931D01*
X031246Y023956D01*
X031294Y023985D01*
X031339Y024017D01*
X031382Y024052D01*
X031423Y024090D01*
X031461Y024131D01*
X031454Y024137D01*
X031417Y024096D01*
X031376Y024059D01*
X031334Y024024D01*
X031289Y023992D01*
X031241Y023964D01*
X031192Y023939D01*
X031141Y023917D01*
X031089Y023900D01*
X031036Y023886D01*
X030982Y023876D01*
X030927Y023869D01*
X030872Y023867D01*
X030872Y023876D01*
X030926Y023878D01*
X030980Y023884D01*
X031034Y023894D01*
X031087Y023908D01*
X031138Y023926D01*
X031188Y023947D01*
X031237Y023972D01*
X031284Y024000D01*
X031328Y024031D01*
X031370Y024065D01*
X031410Y024103D01*
X031447Y024143D01*
X030862Y025484D02*
X030862Y025394D01*
X030862Y025395D02*
X030808Y025393D01*
X030755Y025387D01*
X030702Y025377D01*
X030650Y025363D01*
X030599Y025346D01*
X030550Y025325D01*
X030502Y025301D01*
X030456Y025273D01*
X030412Y025242D01*
X030370Y025208D01*
X030331Y025172D01*
X030294Y025132D01*
X030261Y025090D01*
X030230Y025046D01*
X030203Y025000D01*
X030124Y025042D01*
X030152Y025091D01*
X030184Y025137D01*
X030219Y025182D01*
X030256Y025224D01*
X030297Y025264D01*
X030340Y025300D01*
X030385Y025334D01*
X030432Y025365D01*
X030482Y025392D01*
X030533Y025416D01*
X030585Y025437D01*
X030639Y025454D01*
X030694Y025467D01*
X030749Y025477D01*
X030806Y025483D01*
X030862Y025485D01*
X030862Y025476D01*
X030806Y025474D01*
X030751Y025468D01*
X030696Y025458D01*
X030641Y025445D01*
X030588Y025428D01*
X030536Y025408D01*
X030486Y025384D01*
X030437Y025357D01*
X030390Y025327D01*
X030345Y025293D01*
X030303Y025257D01*
X030263Y025218D01*
X030226Y025176D01*
X030191Y025132D01*
X030160Y025086D01*
X030132Y025038D01*
X030140Y025034D01*
X030168Y025081D01*
X030199Y025127D01*
X030233Y025170D01*
X030269Y025212D01*
X030309Y025250D01*
X030351Y025286D01*
X030395Y025319D01*
X030441Y025349D01*
X030490Y025376D01*
X030540Y025399D01*
X030591Y025420D01*
X030644Y025436D01*
X030697Y025449D01*
X030752Y025459D01*
X030807Y025465D01*
X030862Y025467D01*
X030862Y025458D01*
X030807Y025456D01*
X030753Y025450D01*
X030699Y025441D01*
X030646Y025428D01*
X030594Y025411D01*
X030543Y025391D01*
X030494Y025368D01*
X030446Y025341D01*
X030400Y025312D01*
X030356Y025279D01*
X030315Y025244D01*
X030276Y025205D01*
X030239Y025165D01*
X030206Y025122D01*
X030175Y025076D01*
X030148Y025029D01*
X030156Y025025D01*
X030183Y025072D01*
X030213Y025116D01*
X030246Y025159D01*
X030282Y025199D01*
X030321Y025237D01*
X030362Y025272D01*
X030405Y025304D01*
X030451Y025334D01*
X030498Y025360D01*
X030547Y025383D01*
X030597Y025403D01*
X030649Y025419D01*
X030701Y025432D01*
X030754Y025441D01*
X030808Y025447D01*
X030862Y025449D01*
X030862Y025440D01*
X030809Y025438D01*
X030756Y025432D01*
X030703Y025423D01*
X030651Y025410D01*
X030600Y025394D01*
X030550Y025375D01*
X030502Y025352D01*
X030455Y025326D01*
X030411Y025297D01*
X030368Y025265D01*
X030327Y025230D01*
X030289Y025193D01*
X030253Y025153D01*
X030220Y025111D01*
X030190Y025067D01*
X030163Y025021D01*
X030171Y025017D01*
X030198Y025062D01*
X030228Y025106D01*
X030260Y025147D01*
X030295Y025187D01*
X030333Y025224D01*
X030373Y025258D01*
X030416Y025290D01*
X030460Y025318D01*
X030506Y025344D01*
X030554Y025366D01*
X030603Y025386D01*
X030653Y025402D01*
X030705Y025414D01*
X030757Y025423D01*
X030809Y025429D01*
X030862Y025431D01*
X030862Y025422D01*
X030806Y025420D01*
X030751Y025413D01*
X030696Y025403D01*
X030642Y025389D01*
X030590Y025371D01*
X030538Y025350D01*
X030489Y025324D01*
X030441Y025296D01*
X030395Y025264D01*
X030352Y025229D01*
X030312Y025191D01*
X030274Y025150D01*
X030239Y025106D01*
X030208Y025060D01*
X030179Y025012D01*
X030187Y025008D01*
X030215Y025056D01*
X030246Y025101D01*
X030281Y025144D01*
X030318Y025184D01*
X030358Y025222D01*
X030401Y025257D01*
X030446Y025288D01*
X030493Y025317D01*
X030542Y025341D01*
X030593Y025363D01*
X030645Y025380D01*
X030698Y025394D01*
X030752Y025404D01*
X030807Y025411D01*
X030862Y025413D01*
X030862Y025404D01*
X030808Y025402D01*
X030754Y025396D01*
X030700Y025386D01*
X030648Y025372D01*
X030596Y025354D01*
X030546Y025333D01*
X030497Y025309D01*
X030451Y025281D01*
X030406Y025249D01*
X030364Y025215D01*
X030325Y025178D01*
X030288Y025138D01*
X030254Y025096D01*
X030223Y025051D01*
X030195Y025004D01*
X030136Y024217D02*
X030214Y024262D01*
X030214Y024261D02*
X030242Y024217D01*
X030273Y024175D01*
X030306Y024135D01*
X030342Y024097D01*
X030381Y024062D01*
X030422Y024030D01*
X030466Y024000D01*
X030511Y023974D01*
X030558Y023951D01*
X030606Y023931D01*
X030656Y023915D01*
X030706Y023902D01*
X030758Y023893D01*
X030810Y023887D01*
X030862Y023885D01*
X030863Y023796D01*
X030862Y023795D01*
X030807Y023797D01*
X030753Y023803D01*
X030698Y023812D01*
X030645Y023825D01*
X030593Y023841D01*
X030541Y023860D01*
X030491Y023883D01*
X030443Y023909D01*
X030396Y023938D01*
X030352Y023970D01*
X030309Y024005D01*
X030269Y024043D01*
X030232Y024083D01*
X030197Y024125D01*
X030165Y024170D01*
X030136Y024216D01*
X030144Y024221D01*
X030172Y024175D01*
X030204Y024131D01*
X030239Y024089D01*
X030276Y024049D01*
X030315Y024012D01*
X030357Y023977D01*
X030401Y023946D01*
X030447Y023917D01*
X030495Y023891D01*
X030545Y023869D01*
X030595Y023849D01*
X030647Y023833D01*
X030700Y023821D01*
X030754Y023812D01*
X030808Y023806D01*
X030862Y023804D01*
X030862Y023813D01*
X030808Y023815D01*
X030755Y023821D01*
X030702Y023830D01*
X030650Y023842D01*
X030598Y023858D01*
X030548Y023877D01*
X030499Y023899D01*
X030452Y023925D01*
X030406Y023953D01*
X030363Y023985D01*
X030321Y024019D01*
X030282Y024055D01*
X030245Y024095D01*
X030211Y024136D01*
X030180Y024180D01*
X030151Y024225D01*
X030159Y024230D01*
X030189Y024182D01*
X030223Y024136D01*
X030259Y024093D01*
X030299Y024052D01*
X030341Y024014D01*
X030385Y023979D01*
X030432Y023947D01*
X030481Y023919D01*
X030532Y023894D01*
X030585Y023872D01*
X030638Y023855D01*
X030693Y023841D01*
X030749Y023831D01*
X030805Y023824D01*
X030862Y023822D01*
X030862Y023831D01*
X030806Y023833D01*
X030750Y023839D01*
X030695Y023849D01*
X030641Y023863D01*
X030588Y023881D01*
X030536Y023902D01*
X030485Y023927D01*
X030437Y023955D01*
X030391Y023986D01*
X030346Y024021D01*
X030305Y024058D01*
X030266Y024099D01*
X030230Y024141D01*
X030197Y024187D01*
X030167Y024234D01*
X030175Y024239D01*
X030204Y024192D01*
X030237Y024147D01*
X030273Y024105D01*
X030311Y024065D01*
X030352Y024028D01*
X030396Y023993D01*
X030442Y023962D01*
X030490Y023935D01*
X030539Y023910D01*
X030591Y023889D01*
X030643Y023872D01*
X030697Y023858D01*
X030752Y023848D01*
X030807Y023842D01*
X030862Y023840D01*
X030862Y023849D01*
X030807Y023851D01*
X030753Y023857D01*
X030699Y023867D01*
X030646Y023881D01*
X030594Y023898D01*
X030543Y023918D01*
X030494Y023943D01*
X030447Y023970D01*
X030401Y024001D01*
X030358Y024034D01*
X030317Y024071D01*
X030279Y024111D01*
X030244Y024153D01*
X030212Y024197D01*
X030183Y024243D01*
X030191Y024248D01*
X030219Y024202D01*
X030251Y024158D01*
X030286Y024117D01*
X030324Y024078D01*
X030364Y024041D01*
X030406Y024008D01*
X030451Y023978D01*
X030498Y023950D01*
X030547Y023927D01*
X030597Y023906D01*
X030648Y023889D01*
X030701Y023876D01*
X030754Y023866D01*
X030808Y023860D01*
X030862Y023858D01*
X030862Y023867D01*
X030809Y023869D01*
X030755Y023875D01*
X030703Y023885D01*
X030651Y023898D01*
X030600Y023915D01*
X030550Y023935D01*
X030502Y023958D01*
X030456Y023985D01*
X030412Y024015D01*
X030370Y024048D01*
X030330Y024084D01*
X030293Y024123D01*
X030258Y024164D01*
X030227Y024207D01*
X030198Y024252D01*
X030206Y024257D01*
X030234Y024212D01*
X030265Y024169D01*
X030299Y024129D01*
X030336Y024091D01*
X030375Y024055D01*
X030417Y024023D01*
X030461Y023993D01*
X030507Y023966D01*
X030554Y023943D01*
X030603Y023923D01*
X030653Y023906D01*
X030705Y023893D01*
X030757Y023884D01*
X030809Y023878D01*
X030862Y023876D01*
X030863Y025264D02*
X030863Y025214D01*
X030862Y025215D02*
X030818Y025213D01*
X030775Y025208D01*
X030732Y025199D01*
X030690Y025187D01*
X030650Y025172D01*
X030610Y025154D01*
X030572Y025133D01*
X030535Y025110D01*
X030500Y025083D01*
X030468Y025054D01*
X030438Y025023D01*
X030410Y024989D01*
X030371Y025018D01*
X030370Y025019D01*
X030400Y025056D01*
X030433Y025090D01*
X030468Y025121D01*
X030506Y025150D01*
X030546Y025176D01*
X030587Y025199D01*
X030631Y025219D01*
X030675Y025235D01*
X030721Y025248D01*
X030767Y025257D01*
X030815Y025263D01*
X030862Y025265D01*
X030862Y025256D01*
X030815Y025254D01*
X030769Y025248D01*
X030723Y025239D01*
X030678Y025226D01*
X030634Y025210D01*
X030592Y025191D01*
X030551Y025168D01*
X030511Y025143D01*
X030474Y025115D01*
X030439Y025083D01*
X030407Y025050D01*
X030377Y025014D01*
X030384Y025008D01*
X030414Y025044D01*
X030446Y025077D01*
X030480Y025108D01*
X030517Y025136D01*
X030555Y025161D01*
X030596Y025183D01*
X030637Y025202D01*
X030681Y025218D01*
X030725Y025230D01*
X030770Y025239D01*
X030816Y025245D01*
X030862Y025247D01*
X030862Y025238D01*
X030817Y025236D01*
X030772Y025230D01*
X030727Y025221D01*
X030684Y025209D01*
X030641Y025194D01*
X030600Y025175D01*
X030560Y025153D01*
X030522Y025128D01*
X030486Y025101D01*
X030452Y025070D01*
X030420Y025038D01*
X030392Y025003D01*
X030399Y024997D01*
X030427Y025032D01*
X030458Y025064D01*
X030492Y025094D01*
X030527Y025121D01*
X030564Y025145D01*
X030604Y025167D01*
X030644Y025185D01*
X030686Y025201D01*
X030729Y025213D01*
X030773Y025221D01*
X030817Y025227D01*
X030862Y025229D01*
X030862Y025220D01*
X030818Y025218D01*
X030774Y025213D01*
X030731Y025204D01*
X030689Y025192D01*
X030648Y025177D01*
X030608Y025159D01*
X030569Y025138D01*
X030532Y025114D01*
X030497Y025087D01*
X030464Y025058D01*
X030434Y025026D01*
X030406Y024992D01*
X030872Y024016D02*
X030872Y024066D01*
X030872Y024065D02*
X030919Y024067D01*
X030965Y024073D01*
X031010Y024083D01*
X031055Y024097D01*
X031098Y024114D01*
X031140Y024134D01*
X031180Y024158D01*
X031219Y024185D01*
X031254Y024215D01*
X031287Y024248D01*
X031318Y024283D01*
X031357Y024253D01*
X031357Y024252D01*
X031327Y024217D01*
X031294Y024184D01*
X031259Y024153D01*
X031222Y024126D01*
X031183Y024101D01*
X031142Y024079D01*
X031099Y024060D01*
X031055Y024044D01*
X031010Y024032D01*
X030965Y024023D01*
X030918Y024017D01*
X030872Y024015D01*
X030872Y024024D01*
X030918Y024026D01*
X030963Y024032D01*
X031008Y024040D01*
X031053Y024053D01*
X031096Y024068D01*
X031138Y024087D01*
X031178Y024108D01*
X031217Y024133D01*
X031254Y024160D01*
X031288Y024190D01*
X031320Y024223D01*
X031350Y024258D01*
X031343Y024263D01*
X031314Y024229D01*
X031282Y024197D01*
X031248Y024167D01*
X031212Y024140D01*
X031174Y024116D01*
X031134Y024095D01*
X031092Y024076D01*
X031050Y024061D01*
X031006Y024049D01*
X030962Y024040D01*
X030917Y024035D01*
X030872Y024033D01*
X030872Y024042D01*
X030920Y024044D01*
X030969Y024051D01*
X031016Y024061D01*
X031063Y024075D01*
X031108Y024093D01*
X031151Y024114D01*
X031193Y024139D01*
X031233Y024167D01*
X031270Y024198D01*
X031304Y024232D01*
X031336Y024269D01*
X031329Y024274D01*
X031298Y024238D01*
X031264Y024205D01*
X031227Y024174D01*
X031188Y024146D01*
X031147Y024122D01*
X031104Y024101D01*
X031060Y024083D01*
X031014Y024070D01*
X030967Y024060D01*
X030920Y024053D01*
X030872Y024051D01*
X030872Y024060D01*
X030919Y024062D01*
X030966Y024068D01*
X031012Y024078D01*
X031057Y024092D01*
X031100Y024109D01*
X031143Y024130D01*
X031183Y024154D01*
X031222Y024181D01*
X031258Y024211D01*
X031291Y024244D01*
X031322Y024280D01*
X031512Y025184D02*
X031443Y025127D01*
X031444Y025127D02*
X031407Y025167D01*
X031368Y025205D01*
X031326Y025239D01*
X031282Y025271D01*
X031236Y025299D01*
X031187Y025324D01*
X031137Y025345D01*
X031086Y025363D01*
X031033Y025376D01*
X030980Y025386D01*
X030926Y025393D01*
X030872Y025395D01*
X030871Y025484D01*
X030872Y025485D01*
X030928Y025483D01*
X030984Y025477D01*
X031039Y025467D01*
X031094Y025454D01*
X031147Y025437D01*
X031200Y025417D01*
X031251Y025393D01*
X031300Y025366D01*
X031347Y025335D01*
X031392Y025302D01*
X031435Y025266D01*
X031475Y025227D01*
X031513Y025185D01*
X031506Y025179D01*
X031469Y025220D01*
X031429Y025259D01*
X031387Y025295D01*
X031342Y025328D01*
X031295Y025358D01*
X031247Y025385D01*
X031196Y025408D01*
X031144Y025429D01*
X031091Y025445D01*
X031037Y025458D01*
X030983Y025468D01*
X030928Y025474D01*
X030872Y025476D01*
X030872Y025467D01*
X030927Y025465D01*
X030982Y025459D01*
X031036Y025450D01*
X031089Y025437D01*
X031141Y025420D01*
X031193Y025400D01*
X031242Y025377D01*
X031291Y025350D01*
X031337Y025321D01*
X031381Y025288D01*
X031423Y025252D01*
X031462Y025214D01*
X031499Y025173D01*
X031492Y025168D01*
X031456Y025208D01*
X031417Y025246D01*
X031375Y025281D01*
X031332Y025313D01*
X031286Y025343D01*
X031238Y025369D01*
X031189Y025392D01*
X031139Y025412D01*
X031087Y025428D01*
X031034Y025441D01*
X030980Y025450D01*
X030926Y025456D01*
X030872Y025458D01*
X030872Y025449D01*
X030926Y025447D01*
X030979Y025441D01*
X031032Y025432D01*
X031084Y025419D01*
X031136Y025403D01*
X031186Y025384D01*
X031234Y025361D01*
X031281Y025335D01*
X031327Y025306D01*
X031370Y025274D01*
X031411Y025239D01*
X031449Y025202D01*
X031485Y025162D01*
X031478Y025156D01*
X031443Y025195D01*
X031405Y025232D01*
X031364Y025267D01*
X031321Y025298D01*
X031277Y025327D01*
X031230Y025353D01*
X031182Y025375D01*
X031133Y025395D01*
X031082Y025411D01*
X031030Y025423D01*
X030978Y025432D01*
X030925Y025438D01*
X030872Y025440D01*
X030872Y025431D01*
X030924Y025429D01*
X030977Y025423D01*
X031028Y025414D01*
X031079Y025402D01*
X031130Y025386D01*
X031179Y025367D01*
X031226Y025345D01*
X031272Y025319D01*
X031316Y025291D01*
X031358Y025260D01*
X031399Y025226D01*
X031436Y025189D01*
X031471Y025150D01*
X031465Y025144D01*
X031430Y025183D01*
X031392Y025219D01*
X031353Y025253D01*
X031311Y025284D01*
X031267Y025312D01*
X031222Y025337D01*
X031175Y025359D01*
X031127Y025378D01*
X031077Y025393D01*
X031027Y025406D01*
X030975Y025414D01*
X030924Y025420D01*
X030872Y025422D01*
X030872Y025413D01*
X030923Y025411D01*
X030974Y025406D01*
X031025Y025397D01*
X031075Y025385D01*
X031124Y025369D01*
X031171Y025351D01*
X031218Y025329D01*
X031263Y025304D01*
X031306Y025276D01*
X031347Y025246D01*
X031386Y025213D01*
X031423Y025177D01*
X031458Y025139D01*
X031451Y025133D01*
X031414Y025174D01*
X031374Y025212D01*
X031332Y025246D01*
X031287Y025278D01*
X031240Y025307D01*
X031191Y025332D01*
X031140Y025353D01*
X031089Y025371D01*
X031035Y025385D01*
X030981Y025395D01*
X030927Y025402D01*
X030872Y025404D01*
X030377Y024253D02*
X030417Y024284D01*
X030416Y024283D02*
X030447Y024248D01*
X030480Y024215D01*
X030515Y024185D01*
X030554Y024158D01*
X030594Y024134D01*
X030636Y024114D01*
X030679Y024097D01*
X030724Y024083D01*
X030769Y024073D01*
X030815Y024067D01*
X030862Y024065D01*
X030862Y024016D01*
X030862Y024015D01*
X030816Y024017D01*
X030769Y024023D01*
X030724Y024032D01*
X030679Y024044D01*
X030635Y024060D01*
X030592Y024079D01*
X030551Y024101D01*
X030512Y024126D01*
X030475Y024153D01*
X030440Y024184D01*
X030407Y024217D01*
X030377Y024252D01*
X030384Y024258D01*
X030414Y024223D01*
X030446Y024190D01*
X030480Y024160D01*
X030517Y024133D01*
X030556Y024108D01*
X030596Y024087D01*
X030638Y024068D01*
X030681Y024053D01*
X030726Y024040D01*
X030771Y024032D01*
X030816Y024026D01*
X030862Y024024D01*
X030862Y024033D01*
X030817Y024035D01*
X030772Y024040D01*
X030728Y024049D01*
X030684Y024061D01*
X030642Y024076D01*
X030600Y024095D01*
X030560Y024116D01*
X030522Y024140D01*
X030486Y024167D01*
X030452Y024197D01*
X030420Y024229D01*
X030391Y024263D01*
X030398Y024269D01*
X030430Y024232D01*
X030464Y024198D01*
X030501Y024167D01*
X030541Y024139D01*
X030583Y024114D01*
X030626Y024093D01*
X030671Y024075D01*
X030718Y024061D01*
X030765Y024051D01*
X030814Y024044D01*
X030862Y024042D01*
X030862Y024051D01*
X030814Y024053D01*
X030767Y024060D01*
X030720Y024070D01*
X030674Y024083D01*
X030630Y024101D01*
X030587Y024122D01*
X030546Y024146D01*
X030507Y024174D01*
X030470Y024205D01*
X030436Y024238D01*
X030405Y024274D01*
X030412Y024280D01*
X030443Y024244D01*
X030476Y024211D01*
X030512Y024181D01*
X030551Y024154D01*
X030591Y024130D01*
X030634Y024109D01*
X030677Y024092D01*
X030722Y024078D01*
X030768Y024068D01*
X030815Y024062D01*
X030862Y024060D01*
X037872Y023796D02*
X037872Y023886D01*
X037872Y023885D02*
X037926Y023887D01*
X037979Y023893D01*
X038032Y023903D01*
X038084Y023917D01*
X038135Y023934D01*
X038184Y023955D01*
X038232Y023979D01*
X038278Y024007D01*
X038322Y024038D01*
X038364Y024072D01*
X038403Y024108D01*
X038440Y024148D01*
X038473Y024190D01*
X038504Y024234D01*
X038531Y024280D01*
X038610Y024238D01*
X038582Y024189D01*
X038550Y024143D01*
X038515Y024098D01*
X038478Y024056D01*
X038437Y024016D01*
X038394Y023980D01*
X038349Y023946D01*
X038302Y023915D01*
X038252Y023888D01*
X038201Y023864D01*
X038149Y023843D01*
X038095Y023826D01*
X038040Y023813D01*
X037985Y023803D01*
X037928Y023797D01*
X037872Y023795D01*
X037872Y023804D01*
X037928Y023806D01*
X037983Y023812D01*
X038038Y023822D01*
X038093Y023835D01*
X038146Y023852D01*
X038198Y023872D01*
X038248Y023896D01*
X038297Y023923D01*
X038344Y023953D01*
X038389Y023987D01*
X038431Y024023D01*
X038471Y024062D01*
X038508Y024104D01*
X038543Y024148D01*
X038574Y024194D01*
X038602Y024242D01*
X038594Y024246D01*
X038566Y024199D01*
X038535Y024153D01*
X038501Y024110D01*
X038465Y024068D01*
X038425Y024030D01*
X038383Y023994D01*
X038339Y023961D01*
X038293Y023931D01*
X038244Y023904D01*
X038194Y023881D01*
X038143Y023860D01*
X038090Y023844D01*
X038037Y023831D01*
X037982Y023821D01*
X037927Y023815D01*
X037872Y023813D01*
X037872Y023822D01*
X037927Y023824D01*
X037981Y023830D01*
X038035Y023839D01*
X038088Y023852D01*
X038140Y023869D01*
X038191Y023889D01*
X038240Y023912D01*
X038288Y023939D01*
X038334Y023968D01*
X038378Y024001D01*
X038419Y024036D01*
X038458Y024075D01*
X038495Y024115D01*
X038528Y024158D01*
X038559Y024204D01*
X038586Y024251D01*
X038578Y024255D01*
X038551Y024208D01*
X038521Y024164D01*
X038488Y024121D01*
X038452Y024081D01*
X038413Y024043D01*
X038372Y024008D01*
X038329Y023976D01*
X038283Y023946D01*
X038236Y023920D01*
X038187Y023897D01*
X038137Y023877D01*
X038085Y023861D01*
X038033Y023848D01*
X037980Y023839D01*
X037926Y023833D01*
X037872Y023831D01*
X037872Y023840D01*
X037925Y023842D01*
X037978Y023848D01*
X038031Y023857D01*
X038083Y023870D01*
X038134Y023886D01*
X038184Y023905D01*
X038232Y023928D01*
X038279Y023954D01*
X038323Y023983D01*
X038366Y024015D01*
X038407Y024050D01*
X038445Y024087D01*
X038481Y024127D01*
X038514Y024169D01*
X038544Y024213D01*
X038571Y024259D01*
X038563Y024263D01*
X038536Y024218D01*
X038506Y024174D01*
X038474Y024133D01*
X038439Y024093D01*
X038401Y024056D01*
X038361Y024022D01*
X038318Y023990D01*
X038274Y023962D01*
X038228Y023936D01*
X038180Y023914D01*
X038131Y023894D01*
X038081Y023878D01*
X038029Y023866D01*
X037977Y023857D01*
X037925Y023851D01*
X037872Y023849D01*
X037872Y023858D01*
X037928Y023860D01*
X037983Y023867D01*
X038038Y023877D01*
X038092Y023891D01*
X038144Y023909D01*
X038196Y023930D01*
X038245Y023956D01*
X038293Y023984D01*
X038339Y024016D01*
X038382Y024051D01*
X038422Y024089D01*
X038460Y024130D01*
X038495Y024174D01*
X038526Y024220D01*
X038555Y024268D01*
X038547Y024272D01*
X038519Y024224D01*
X038488Y024179D01*
X038453Y024136D01*
X038416Y024096D01*
X038376Y024058D01*
X038333Y024023D01*
X038288Y023992D01*
X038241Y023963D01*
X038192Y023939D01*
X038141Y023917D01*
X038089Y023900D01*
X038036Y023886D01*
X037982Y023876D01*
X037927Y023869D01*
X037872Y023867D01*
X037872Y023876D01*
X037926Y023878D01*
X037980Y023884D01*
X038034Y023894D01*
X038086Y023908D01*
X038138Y023926D01*
X038188Y023947D01*
X038237Y023971D01*
X038283Y023999D01*
X038328Y024031D01*
X038370Y024065D01*
X038409Y024102D01*
X038446Y024142D01*
X038480Y024184D01*
X038511Y024229D01*
X038539Y024276D01*
X038598Y025063D02*
X038520Y025018D01*
X038520Y025019D02*
X038492Y025063D01*
X038461Y025105D01*
X038428Y025145D01*
X038392Y025183D01*
X038353Y025218D01*
X038312Y025250D01*
X038268Y025280D01*
X038223Y025306D01*
X038176Y025329D01*
X038128Y025349D01*
X038078Y025365D01*
X038028Y025378D01*
X037976Y025387D01*
X037924Y025393D01*
X037872Y025395D01*
X037871Y025484D01*
X037872Y025485D01*
X037927Y025483D01*
X037981Y025477D01*
X038036Y025468D01*
X038089Y025455D01*
X038141Y025439D01*
X038193Y025420D01*
X038243Y025397D01*
X038291Y025371D01*
X038338Y025342D01*
X038382Y025310D01*
X038425Y025275D01*
X038465Y025237D01*
X038502Y025197D01*
X038537Y025155D01*
X038569Y025110D01*
X038598Y025064D01*
X038590Y025059D01*
X038562Y025105D01*
X038530Y025149D01*
X038495Y025191D01*
X038458Y025231D01*
X038419Y025268D01*
X038377Y025303D01*
X038333Y025334D01*
X038287Y025363D01*
X038239Y025389D01*
X038189Y025411D01*
X038139Y025431D01*
X038087Y025447D01*
X038034Y025459D01*
X037980Y025468D01*
X037926Y025474D01*
X037872Y025476D01*
X037872Y025467D01*
X037926Y025465D01*
X037979Y025459D01*
X038032Y025450D01*
X038084Y025438D01*
X038136Y025422D01*
X038186Y025403D01*
X038235Y025381D01*
X038282Y025355D01*
X038328Y025327D01*
X038371Y025295D01*
X038413Y025261D01*
X038452Y025225D01*
X038489Y025185D01*
X038523Y025144D01*
X038554Y025100D01*
X038583Y025055D01*
X038575Y025050D01*
X038545Y025098D01*
X038511Y025144D01*
X038475Y025187D01*
X038435Y025228D01*
X038393Y025266D01*
X038349Y025301D01*
X038302Y025333D01*
X038253Y025361D01*
X038202Y025386D01*
X038149Y025408D01*
X038096Y025425D01*
X038041Y025439D01*
X037985Y025449D01*
X037929Y025456D01*
X037872Y025458D01*
X037872Y025449D01*
X037928Y025447D01*
X037984Y025441D01*
X038039Y025431D01*
X038093Y025417D01*
X038146Y025399D01*
X038198Y025378D01*
X038249Y025353D01*
X038297Y025325D01*
X038343Y025294D01*
X038388Y025259D01*
X038429Y025222D01*
X038468Y025181D01*
X038504Y025139D01*
X038537Y025093D01*
X038567Y025046D01*
X038559Y025041D01*
X038530Y025088D01*
X038497Y025133D01*
X038461Y025175D01*
X038423Y025215D01*
X038382Y025252D01*
X038338Y025287D01*
X038292Y025318D01*
X038244Y025345D01*
X038195Y025370D01*
X038143Y025391D01*
X038091Y025408D01*
X038037Y025422D01*
X037982Y025432D01*
X037927Y025438D01*
X037872Y025440D01*
X037872Y025431D01*
X037927Y025429D01*
X037981Y025423D01*
X038035Y025413D01*
X038088Y025399D01*
X038140Y025382D01*
X038191Y025362D01*
X038240Y025337D01*
X038287Y025310D01*
X038333Y025279D01*
X038376Y025246D01*
X038417Y025209D01*
X038455Y025169D01*
X038490Y025127D01*
X038522Y025083D01*
X038551Y025037D01*
X038543Y025032D01*
X038515Y025078D01*
X038483Y025122D01*
X038448Y025163D01*
X038410Y025202D01*
X038370Y025239D01*
X038328Y025272D01*
X038283Y025302D01*
X038236Y025330D01*
X038187Y025353D01*
X038137Y025374D01*
X038086Y025391D01*
X038033Y025404D01*
X037980Y025414D01*
X037926Y025420D01*
X037872Y025422D01*
X037872Y025413D01*
X037925Y025411D01*
X037979Y025405D01*
X038031Y025395D01*
X038083Y025382D01*
X038134Y025365D01*
X038184Y025345D01*
X038232Y025322D01*
X038278Y025295D01*
X038322Y025265D01*
X038364Y025232D01*
X038404Y025196D01*
X038441Y025157D01*
X038476Y025116D01*
X038507Y025073D01*
X038536Y025028D01*
X038528Y025023D01*
X038500Y025068D01*
X038469Y025111D01*
X038435Y025151D01*
X038398Y025189D01*
X038359Y025225D01*
X038317Y025257D01*
X038273Y025287D01*
X038227Y025314D01*
X038180Y025337D01*
X038131Y025357D01*
X038081Y025374D01*
X038029Y025387D01*
X037977Y025396D01*
X037925Y025402D01*
X037872Y025404D01*
X037871Y024016D02*
X037871Y024066D01*
X037872Y024065D02*
X037916Y024067D01*
X037959Y024072D01*
X038002Y024081D01*
X038044Y024093D01*
X038084Y024108D01*
X038124Y024126D01*
X038162Y024147D01*
X038199Y024170D01*
X038234Y024197D01*
X038266Y024226D01*
X038296Y024257D01*
X038324Y024291D01*
X038363Y024262D01*
X038364Y024261D01*
X038334Y024224D01*
X038301Y024190D01*
X038266Y024159D01*
X038228Y024130D01*
X038188Y024104D01*
X038147Y024081D01*
X038103Y024061D01*
X038059Y024045D01*
X038013Y024032D01*
X037967Y024023D01*
X037919Y024017D01*
X037872Y024015D01*
X037872Y024024D01*
X037919Y024026D01*
X037965Y024032D01*
X038011Y024041D01*
X038056Y024054D01*
X038100Y024070D01*
X038142Y024089D01*
X038183Y024112D01*
X038223Y024137D01*
X038260Y024165D01*
X038295Y024197D01*
X038327Y024230D01*
X038357Y024266D01*
X038350Y024272D01*
X038320Y024236D01*
X038288Y024203D01*
X038254Y024172D01*
X038217Y024144D01*
X038179Y024119D01*
X038138Y024097D01*
X038097Y024078D01*
X038053Y024062D01*
X038009Y024050D01*
X037964Y024041D01*
X037918Y024035D01*
X037872Y024033D01*
X037872Y024042D01*
X037917Y024044D01*
X037962Y024050D01*
X038007Y024059D01*
X038050Y024071D01*
X038093Y024086D01*
X038134Y024105D01*
X038174Y024127D01*
X038212Y024152D01*
X038248Y024179D01*
X038282Y024210D01*
X038314Y024242D01*
X038342Y024277D01*
X038335Y024283D01*
X038307Y024248D01*
X038276Y024216D01*
X038242Y024186D01*
X038207Y024159D01*
X038170Y024135D01*
X038130Y024113D01*
X038090Y024095D01*
X038048Y024079D01*
X038005Y024067D01*
X037961Y024059D01*
X037917Y024053D01*
X037872Y024051D01*
X037872Y024060D01*
X037916Y024062D01*
X037960Y024067D01*
X038003Y024076D01*
X038045Y024088D01*
X038086Y024103D01*
X038126Y024121D01*
X038165Y024142D01*
X038202Y024166D01*
X038237Y024193D01*
X038270Y024222D01*
X038300Y024254D01*
X038328Y024288D01*
X037362Y024273D02*
X037403Y024302D01*
X037402Y024302D02*
X037430Y024267D01*
X037460Y024234D01*
X037493Y024203D01*
X037528Y024176D01*
X037565Y024151D01*
X037604Y024129D01*
X037644Y024110D01*
X037686Y024094D01*
X037729Y024082D01*
X037773Y024073D01*
X037817Y024067D01*
X037862Y024065D01*
X037862Y024016D01*
X037862Y024015D01*
X037813Y024017D01*
X037765Y024023D01*
X037717Y024033D01*
X037671Y024047D01*
X037625Y024064D01*
X037581Y024084D01*
X037539Y024108D01*
X037498Y024135D01*
X037460Y024166D01*
X037424Y024199D01*
X037391Y024234D01*
X037361Y024273D01*
X037369Y024278D01*
X037398Y024240D01*
X037431Y024205D01*
X037466Y024172D01*
X037504Y024143D01*
X037543Y024116D01*
X037585Y024092D01*
X037629Y024072D01*
X037673Y024055D01*
X037720Y024042D01*
X037767Y024032D01*
X037814Y024026D01*
X037862Y024024D01*
X037862Y024033D01*
X037815Y024035D01*
X037768Y024041D01*
X037722Y024051D01*
X037676Y024064D01*
X037632Y024080D01*
X037589Y024100D01*
X037548Y024124D01*
X037509Y024150D01*
X037472Y024179D01*
X037437Y024211D01*
X037405Y024246D01*
X037376Y024283D01*
X037383Y024288D01*
X037412Y024252D01*
X037444Y024218D01*
X037478Y024186D01*
X037514Y024157D01*
X037553Y024131D01*
X037593Y024108D01*
X037636Y024089D01*
X037679Y024072D01*
X037724Y024059D01*
X037769Y024050D01*
X037816Y024044D01*
X037862Y024042D01*
X037862Y024051D01*
X037816Y024053D01*
X037771Y024059D01*
X037726Y024068D01*
X037682Y024081D01*
X037639Y024097D01*
X037597Y024116D01*
X037558Y024139D01*
X037520Y024164D01*
X037484Y024193D01*
X037450Y024224D01*
X037419Y024258D01*
X037391Y024294D01*
X037398Y024299D01*
X037426Y024263D01*
X037456Y024230D01*
X037490Y024200D01*
X037525Y024172D01*
X037562Y024146D01*
X037602Y024124D01*
X037642Y024105D01*
X037685Y024089D01*
X037728Y024077D01*
X037772Y024068D01*
X037817Y024062D01*
X037862Y024060D01*
X037863Y025484D02*
X037863Y025394D01*
X037862Y025395D02*
X037808Y025393D01*
X037755Y025387D01*
X037702Y025377D01*
X037650Y025363D01*
X037599Y025346D01*
X037549Y025325D01*
X037501Y025301D01*
X037455Y025273D01*
X037411Y025242D01*
X037370Y025208D01*
X037330Y025171D01*
X037294Y025132D01*
X037226Y025189D01*
X037225Y025190D01*
X037263Y025231D01*
X037303Y025269D01*
X037346Y025305D01*
X037391Y025338D01*
X037438Y025368D01*
X037486Y025394D01*
X037537Y025418D01*
X037589Y025438D01*
X037642Y025454D01*
X037696Y025468D01*
X037751Y025477D01*
X037806Y025483D01*
X037862Y025485D01*
X037862Y025476D01*
X037807Y025474D01*
X037752Y025468D01*
X037698Y025459D01*
X037644Y025446D01*
X037592Y025429D01*
X037540Y025410D01*
X037490Y025386D01*
X037442Y025360D01*
X037396Y025330D01*
X037351Y025298D01*
X037309Y025263D01*
X037269Y025224D01*
X037232Y025184D01*
X037239Y025178D01*
X037276Y025218D01*
X037315Y025256D01*
X037357Y025291D01*
X037401Y025323D01*
X037447Y025352D01*
X037495Y025378D01*
X037544Y025401D01*
X037595Y025421D01*
X037647Y025437D01*
X037700Y025450D01*
X037753Y025459D01*
X037808Y025465D01*
X037862Y025467D01*
X037862Y025458D01*
X037808Y025456D01*
X037755Y025450D01*
X037702Y025441D01*
X037649Y025428D01*
X037598Y025412D01*
X037547Y025393D01*
X037499Y025370D01*
X037451Y025345D01*
X037406Y025316D01*
X037362Y025284D01*
X037321Y025249D01*
X037282Y025212D01*
X037246Y025172D01*
X037253Y025166D01*
X037289Y025206D01*
X037327Y025243D01*
X037368Y025277D01*
X037411Y025308D01*
X037456Y025337D01*
X037503Y025362D01*
X037551Y025385D01*
X037601Y025404D01*
X037652Y025420D01*
X037703Y025432D01*
X037756Y025441D01*
X037809Y025447D01*
X037862Y025449D01*
X037862Y025440D01*
X037809Y025438D01*
X037757Y025432D01*
X037705Y025423D01*
X037654Y025411D01*
X037604Y025395D01*
X037554Y025376D01*
X037507Y025354D01*
X037460Y025329D01*
X037416Y025301D01*
X037374Y025270D01*
X037333Y025236D01*
X037295Y025199D01*
X037260Y025161D01*
X037266Y025155D01*
X037302Y025193D01*
X037339Y025229D01*
X037379Y025263D01*
X037421Y025293D01*
X037465Y025321D01*
X037511Y025346D01*
X037558Y025368D01*
X037607Y025387D01*
X037656Y025402D01*
X037707Y025415D01*
X037758Y025423D01*
X037810Y025429D01*
X037862Y025431D01*
X037862Y025422D01*
X037806Y025420D01*
X037751Y025413D01*
X037696Y025403D01*
X037642Y025389D01*
X037589Y025371D01*
X037538Y025349D01*
X037488Y025324D01*
X037440Y025295D01*
X037395Y025263D01*
X037352Y025228D01*
X037311Y025190D01*
X037273Y025149D01*
X037280Y025143D01*
X037317Y025184D01*
X037358Y025221D01*
X037400Y025256D01*
X037445Y025288D01*
X037493Y025316D01*
X037542Y025341D01*
X037593Y025363D01*
X037645Y025380D01*
X037698Y025394D01*
X037752Y025404D01*
X037807Y025411D01*
X037862Y025413D01*
X037862Y025404D01*
X037808Y025402D01*
X037754Y025396D01*
X037700Y025386D01*
X037647Y025372D01*
X037596Y025354D01*
X037546Y025333D01*
X037497Y025308D01*
X037450Y025280D01*
X037406Y025249D01*
X037364Y025215D01*
X037324Y025177D01*
X037287Y025137D01*
X037222Y024096D02*
X037291Y024153D01*
X037290Y024153D02*
X037327Y024113D01*
X037366Y024075D01*
X037408Y024041D01*
X037452Y024009D01*
X037498Y023981D01*
X037547Y023956D01*
X037597Y023935D01*
X037648Y023917D01*
X037701Y023904D01*
X037754Y023894D01*
X037808Y023887D01*
X037862Y023885D01*
X037863Y023796D01*
X037862Y023795D01*
X037806Y023797D01*
X037750Y023803D01*
X037695Y023813D01*
X037640Y023826D01*
X037587Y023843D01*
X037534Y023863D01*
X037483Y023887D01*
X037434Y023914D01*
X037387Y023945D01*
X037342Y023978D01*
X037299Y024014D01*
X037259Y024053D01*
X037221Y024095D01*
X037228Y024101D01*
X037265Y024060D01*
X037305Y024021D01*
X037347Y023985D01*
X037392Y023952D01*
X037439Y023922D01*
X037487Y023895D01*
X037538Y023872D01*
X037590Y023851D01*
X037643Y023835D01*
X037697Y023822D01*
X037751Y023812D01*
X037806Y023806D01*
X037862Y023804D01*
X037862Y023813D01*
X037807Y023815D01*
X037752Y023821D01*
X037698Y023830D01*
X037645Y023843D01*
X037593Y023860D01*
X037541Y023880D01*
X037492Y023903D01*
X037443Y023930D01*
X037397Y023959D01*
X037353Y023992D01*
X037311Y024028D01*
X037272Y024066D01*
X037235Y024107D01*
X037242Y024112D01*
X037278Y024072D01*
X037317Y024034D01*
X037359Y023999D01*
X037402Y023967D01*
X037448Y023937D01*
X037496Y023911D01*
X037545Y023888D01*
X037595Y023868D01*
X037647Y023852D01*
X037700Y023839D01*
X037754Y023830D01*
X037808Y023824D01*
X037862Y023822D01*
X037862Y023831D01*
X037808Y023833D01*
X037755Y023839D01*
X037702Y023848D01*
X037650Y023861D01*
X037598Y023877D01*
X037548Y023896D01*
X037500Y023919D01*
X037453Y023945D01*
X037407Y023974D01*
X037364Y024006D01*
X037323Y024041D01*
X037285Y024078D01*
X037249Y024118D01*
X037256Y024124D01*
X037291Y024085D01*
X037329Y024048D01*
X037370Y024013D01*
X037413Y023982D01*
X037457Y023953D01*
X037504Y023927D01*
X037552Y023905D01*
X037601Y023885D01*
X037652Y023869D01*
X037704Y023857D01*
X037756Y023848D01*
X037809Y023842D01*
X037862Y023840D01*
X037862Y023849D01*
X037810Y023851D01*
X037757Y023857D01*
X037706Y023866D01*
X037655Y023878D01*
X037604Y023894D01*
X037555Y023913D01*
X037508Y023935D01*
X037462Y023961D01*
X037418Y023989D01*
X037376Y024020D01*
X037335Y024054D01*
X037298Y024091D01*
X037263Y024130D01*
X037269Y024136D01*
X037304Y024097D01*
X037342Y024061D01*
X037381Y024027D01*
X037423Y023996D01*
X037467Y023968D01*
X037512Y023943D01*
X037559Y023921D01*
X037607Y023902D01*
X037657Y023887D01*
X037707Y023874D01*
X037759Y023866D01*
X037810Y023860D01*
X037862Y023858D01*
X037862Y023867D01*
X037811Y023869D01*
X037760Y023874D01*
X037709Y023883D01*
X037659Y023895D01*
X037610Y023911D01*
X037563Y023929D01*
X037516Y023951D01*
X037471Y023976D01*
X037428Y024004D01*
X037387Y024034D01*
X037348Y024067D01*
X037311Y024103D01*
X037276Y024141D01*
X037283Y024147D01*
X037320Y024106D01*
X037360Y024068D01*
X037402Y024034D01*
X037447Y024002D01*
X037494Y023973D01*
X037543Y023948D01*
X037594Y023927D01*
X037645Y023909D01*
X037699Y023895D01*
X037753Y023885D01*
X037807Y023878D01*
X037862Y023876D01*
X038357Y025027D02*
X038317Y024996D01*
X038318Y024997D02*
X038287Y025032D01*
X038254Y025065D01*
X038219Y025095D01*
X038180Y025122D01*
X038140Y025146D01*
X038098Y025166D01*
X038055Y025183D01*
X038010Y025197D01*
X037965Y025207D01*
X037919Y025213D01*
X037872Y025215D01*
X037872Y025264D01*
X037872Y025265D01*
X037918Y025263D01*
X037965Y025257D01*
X038010Y025248D01*
X038055Y025236D01*
X038099Y025220D01*
X038142Y025201D01*
X038183Y025179D01*
X038222Y025154D01*
X038259Y025127D01*
X038294Y025096D01*
X038327Y025063D01*
X038357Y025028D01*
X038350Y025022D01*
X038320Y025057D01*
X038288Y025090D01*
X038254Y025120D01*
X038217Y025147D01*
X038178Y025172D01*
X038138Y025193D01*
X038096Y025212D01*
X038053Y025227D01*
X038008Y025240D01*
X037963Y025248D01*
X037918Y025254D01*
X037872Y025256D01*
X037872Y025247D01*
X037917Y025245D01*
X037962Y025240D01*
X038006Y025231D01*
X038050Y025219D01*
X038092Y025204D01*
X038134Y025185D01*
X038174Y025164D01*
X038212Y025140D01*
X038248Y025113D01*
X038282Y025083D01*
X038314Y025051D01*
X038343Y025017D01*
X038336Y025011D01*
X038304Y025048D01*
X038270Y025082D01*
X038233Y025113D01*
X038193Y025141D01*
X038151Y025166D01*
X038108Y025187D01*
X038063Y025205D01*
X038016Y025219D01*
X037969Y025229D01*
X037920Y025236D01*
X037872Y025238D01*
X037872Y025229D01*
X037920Y025227D01*
X037967Y025220D01*
X038014Y025210D01*
X038060Y025197D01*
X038104Y025179D01*
X038147Y025158D01*
X038188Y025134D01*
X038227Y025106D01*
X038264Y025075D01*
X038298Y025042D01*
X038329Y025006D01*
X038322Y025000D01*
X038291Y025036D01*
X038258Y025069D01*
X038222Y025099D01*
X038183Y025126D01*
X038143Y025150D01*
X038100Y025171D01*
X038057Y025188D01*
X038012Y025202D01*
X037966Y025212D01*
X037919Y025218D01*
X037872Y025220D01*
X037862Y025264D02*
X037862Y025214D01*
X037862Y025215D02*
X037815Y025213D01*
X037769Y025207D01*
X037724Y025197D01*
X037679Y025183D01*
X037636Y025166D01*
X037594Y025146D01*
X037554Y025122D01*
X037515Y025095D01*
X037480Y025065D01*
X037447Y025032D01*
X037416Y024997D01*
X037377Y025027D01*
X037377Y025028D01*
X037407Y025063D01*
X037440Y025096D01*
X037475Y025127D01*
X037512Y025154D01*
X037551Y025179D01*
X037592Y025201D01*
X037635Y025220D01*
X037679Y025236D01*
X037724Y025248D01*
X037769Y025257D01*
X037816Y025263D01*
X037862Y025265D01*
X037862Y025256D01*
X037816Y025254D01*
X037771Y025248D01*
X037726Y025240D01*
X037681Y025227D01*
X037638Y025212D01*
X037596Y025193D01*
X037556Y025172D01*
X037517Y025147D01*
X037480Y025120D01*
X037446Y025090D01*
X037414Y025057D01*
X037384Y025022D01*
X037391Y025017D01*
X037420Y025051D01*
X037452Y025083D01*
X037486Y025113D01*
X037522Y025140D01*
X037560Y025164D01*
X037600Y025185D01*
X037642Y025204D01*
X037684Y025219D01*
X037728Y025231D01*
X037772Y025240D01*
X037817Y025245D01*
X037862Y025247D01*
X037862Y025238D01*
X037814Y025236D01*
X037765Y025229D01*
X037718Y025219D01*
X037671Y025205D01*
X037626Y025187D01*
X037583Y025166D01*
X037541Y025141D01*
X037501Y025113D01*
X037464Y025082D01*
X037430Y025048D01*
X037398Y025011D01*
X037405Y025006D01*
X037436Y025042D01*
X037470Y025075D01*
X037507Y025106D01*
X037546Y025134D01*
X037587Y025158D01*
X037630Y025179D01*
X037674Y025197D01*
X037720Y025210D01*
X037767Y025220D01*
X037814Y025227D01*
X037862Y025229D01*
X037862Y025220D01*
X037815Y025218D01*
X037768Y025212D01*
X037722Y025202D01*
X037677Y025188D01*
X037634Y025171D01*
X037591Y025150D01*
X037551Y025126D01*
X037512Y025099D01*
X037476Y025069D01*
X037443Y025036D01*
X037412Y025000D01*
D19*
X035787Y024640D03*
X035787Y023640D03*
X032947Y023640D03*
X032947Y024640D03*
X032947Y014640D03*
X035787Y014640D03*
D20*
X028410Y012809D02*
X027819Y012219D01*
X021323Y012219D01*
X021323Y022061D01*
X028410Y022061D01*
X028410Y012809D01*
M02*
