%
M48
M72
T01C0.0276
T02C0.0315
T03C0.0320
T04C0.0394
T05C0.0400
T06C0.0512
T07C0.1300
%
T01
X3867Y17180
X4867Y17180
X12617Y19180
X13617Y19180
X30867Y10180
X31867Y10180
X33867Y10930
X33867Y11930
X35367Y13180
X36367Y13180
T02
X38697Y15137
X38697Y15924
X38697Y16711
X38697Y17499
X38697Y18286
X38697Y19074
X38697Y19861
X38697Y20649
X38697Y21436
X38697Y22223
X30036Y22223
X30036Y21436
X30036Y20649
X30036Y19861
X30036Y19074
X30036Y18286
X30036Y17499
X30036Y16711
X30036Y15924
X30036Y15137
X13867Y12180
X12867Y12180
X11867Y12180
T03
X12367Y13680
X13367Y13680
X14367Y13680
X15367Y13680
X16367Y13680
X17367Y13680
X18367Y13680
X19367Y13680
X20367Y13180
X21367Y10680
X22367Y10680
X23367Y10680
X24367Y10680
X25367Y10680
X26367Y10680
X27367Y10680
X28367Y10680
X29367Y9180
X28367Y7680
X27367Y7680
X26367Y7680
X25367Y7680
X24367Y7680
X23367Y7680
X22367Y7680
X21367Y7680
X20367Y9180
X29367Y13180
X30867Y12430
X31617Y12930
X31617Y11930
X32367Y14680
X32867Y16180
X32867Y17180
X32867Y18180
X32867Y19180
X32867Y20180
X32867Y21180
X32867Y22180
X32367Y23680
X30867Y24180
X29867Y24180
X32367Y24680
X36367Y24680
X36367Y23680
X37867Y24180
X38867Y24180
X35867Y22180
X35867Y21180
X35867Y20180
X35867Y19180
X35867Y18180
X35867Y17180
X35867Y16180
X36367Y14680
X19367Y16680
X18367Y16680
X17367Y16680
X16367Y16680
X15367Y16680
X14367Y16680
X13367Y16680
X12367Y16680
X11367Y16680
X10367Y16680
X9367Y16680
X8367Y16680
X7367Y16680
X6367Y16680
X6367Y13680
X7367Y13680
X8367Y13680
X9367Y13680
X10367Y13680
X11367Y13680
X3617Y13680
X3617Y9680
T04
X22867Y13180
X23867Y13180
X24867Y13180
X25867Y13180
X26867Y13180
X37867Y11889
X37867Y10511
X26867Y21180
X25867Y21180
X24867Y21180
X23867Y21180
X22867Y21180
T05
X18367Y20680
X18367Y19680
X17367Y19680
X16367Y19680
X16367Y20680
X17367Y20680
X11367Y20180
X11367Y21180
X10367Y21180
X9367Y21180
X9367Y20180
X10367Y20180
X10367Y19180
X9367Y19180
X8367Y19180
X7367Y19180
X6367Y19180
X6367Y20180
X7367Y20180
X8367Y20180
X8367Y21180
X7367Y21180
X6367Y21180
X11367Y19180
X2367Y17180
X2367Y16180
X2367Y15180
X2367Y14180
X2367Y13180
X2367Y12180
X30867Y8180
X31867Y8180
X32867Y8180
X35867Y8180
X36867Y8180
X37867Y8180
T06
X4867Y7621
X6867Y7621
X8867Y7621
X10867Y7621
X12867Y7621
X14867Y7621
X16867Y7621
X18867Y7621
X18867Y10180
X16867Y10180
X14867Y10180
X12867Y10180
X10867Y10180
X8867Y10180
X6867Y10180
X4867Y10180
T07
X2867Y8180
X2867Y24180
X31867Y2280
M30
