G75*
G70*
%OFA0B0*%
%FSLAX24Y24*%
%IPPOS*%
%LPD*%
%AMOC8*
5,1,8,0,0,1.08239X$1,22.5*
%
%ADD10C,0.0040*%
D10*
X006866Y010660D02*
X007020Y010660D01*
X007097Y010737D01*
X006790Y011044D01*
X006790Y010737D01*
X006866Y010660D01*
X007097Y010737D02*
X007097Y011044D01*
X007020Y011120D01*
X006866Y011120D01*
X006790Y011044D01*
X008790Y010660D02*
X009097Y010660D01*
X008943Y010660D02*
X008943Y011120D01*
X009097Y010967D01*
X010790Y010967D02*
X010790Y011044D01*
X010866Y011120D01*
X011020Y011120D01*
X011097Y011044D01*
X010790Y010967D02*
X011097Y010660D01*
X010790Y010660D01*
X012790Y010737D02*
X012866Y010660D01*
X013020Y010660D01*
X013097Y010737D01*
X012943Y010890D02*
X012866Y010890D01*
X012790Y010813D01*
X012790Y010737D01*
X012866Y010890D02*
X012790Y010967D01*
X012790Y011044D01*
X012866Y011120D01*
X013020Y011120D01*
X013097Y011044D01*
X014790Y010890D02*
X015097Y010890D01*
X014866Y011120D01*
X014866Y010660D01*
X016790Y010737D02*
X016866Y010660D01*
X017020Y010660D01*
X017097Y010737D01*
X017097Y010890D02*
X016943Y010967D01*
X016866Y010967D01*
X016790Y010890D01*
X016790Y010737D01*
X017097Y010890D02*
X017097Y011120D01*
X016790Y011120D01*
X018790Y011120D02*
X018943Y011044D01*
X019097Y010890D01*
X018866Y010890D01*
X018790Y010813D01*
X018790Y010737D01*
X018866Y010660D01*
X019020Y010660D01*
X019097Y010737D01*
X019097Y010890D01*
M02*
