G75*
G70*
%OFA0B0*%
%FSLAX24Y24*%
%IPPOS*%
%LPD*%
%AMOC8*
5,1,8,0,0,1.08239X$1,22.5*
%
%ADD10C,0.0080*%
%ADD11C,0.0480*%
%ADD12C,0.0740*%
%ADD13OC8,0.0660*%
%ADD14C,0.0600*%
%ADD15C,0.0000*%
%ADD16C,0.0650*%
%ADD17R,0.0650X0.0650*%
%ADD18C,0.0500*%
%ADD19C,0.0860*%
%ADD20C,0.0768*%
%ADD21OC8,0.0740*%
%ADD22C,0.0250*%
%ADD23C,0.0160*%
%ADD24C,0.0240*%
%ADD25C,0.0100*%
D10*
X002367Y006640D02*
X029867Y006640D01*
X029867Y000140D01*
X033867Y000140D01*
X033867Y006640D01*
X038367Y006640D01*
X038427Y006642D01*
X038488Y006647D01*
X038547Y006656D01*
X038606Y006669D01*
X038665Y006685D01*
X038722Y006705D01*
X038777Y006728D01*
X038832Y006755D01*
X038884Y006784D01*
X038935Y006817D01*
X038984Y006853D01*
X039030Y006891D01*
X039074Y006933D01*
X039116Y006977D01*
X039154Y007023D01*
X039190Y007072D01*
X039223Y007123D01*
X039252Y007175D01*
X039279Y007230D01*
X039302Y007285D01*
X039322Y007342D01*
X039338Y007401D01*
X039351Y007460D01*
X039360Y007519D01*
X039365Y007580D01*
X039367Y007640D01*
X039367Y024640D01*
X039365Y024700D01*
X039360Y024761D01*
X039351Y024820D01*
X039338Y024879D01*
X039322Y024938D01*
X039302Y024995D01*
X039279Y025050D01*
X039252Y025105D01*
X039223Y025157D01*
X039190Y025208D01*
X039154Y025257D01*
X039116Y025303D01*
X039074Y025347D01*
X039030Y025389D01*
X038984Y025427D01*
X038935Y025463D01*
X038884Y025496D01*
X038832Y025525D01*
X038777Y025552D01*
X038722Y025575D01*
X038665Y025595D01*
X038606Y025611D01*
X038547Y025624D01*
X038488Y025633D01*
X038427Y025638D01*
X038367Y025640D01*
X002367Y025640D01*
X002307Y025638D01*
X002246Y025633D01*
X002187Y025624D01*
X002128Y025611D01*
X002069Y025595D01*
X002012Y025575D01*
X001957Y025552D01*
X001902Y025525D01*
X001850Y025496D01*
X001799Y025463D01*
X001750Y025427D01*
X001704Y025389D01*
X001660Y025347D01*
X001618Y025303D01*
X001580Y025257D01*
X001544Y025208D01*
X001511Y025157D01*
X001482Y025105D01*
X001455Y025050D01*
X001432Y024995D01*
X001412Y024938D01*
X001396Y024879D01*
X001383Y024820D01*
X001374Y024761D01*
X001369Y024700D01*
X001367Y024640D01*
X001367Y007640D01*
X001369Y007580D01*
X001374Y007519D01*
X001383Y007460D01*
X001396Y007401D01*
X001412Y007342D01*
X001432Y007285D01*
X001455Y007230D01*
X001482Y007175D01*
X001511Y007123D01*
X001544Y007072D01*
X001580Y007023D01*
X001618Y006977D01*
X001660Y006933D01*
X001704Y006891D01*
X001750Y006853D01*
X001799Y006817D01*
X001850Y006784D01*
X001902Y006755D01*
X001957Y006728D01*
X002012Y006705D01*
X002069Y006685D01*
X002128Y006669D01*
X002187Y006656D01*
X002246Y006647D01*
X002307Y006642D01*
X002367Y006640D01*
D11*
X006367Y013400D02*
X006367Y013880D01*
X007367Y013880D02*
X007367Y013400D01*
X008367Y013400D02*
X008367Y013880D01*
X009367Y013880D02*
X009367Y013400D01*
X010367Y013400D02*
X010367Y013880D01*
X011367Y013880D02*
X011367Y013400D01*
X012367Y013400D02*
X012367Y013880D01*
X013367Y013880D02*
X013367Y013400D01*
X014367Y013400D02*
X014367Y013880D01*
X015367Y013880D02*
X015367Y013400D01*
X016367Y013400D02*
X016367Y013880D01*
X017367Y013880D02*
X017367Y013400D01*
X018367Y013400D02*
X018367Y013880D01*
X019367Y013880D02*
X019367Y013400D01*
X021367Y010880D02*
X021367Y010400D01*
X022367Y010400D02*
X022367Y010880D01*
X023367Y010880D02*
X023367Y010400D01*
X024367Y010400D02*
X024367Y010880D01*
X025367Y010880D02*
X025367Y010400D01*
X026367Y010400D02*
X026367Y010880D01*
X027367Y010880D02*
X027367Y010400D01*
X028367Y010400D02*
X028367Y010880D01*
X028367Y007880D02*
X028367Y007400D01*
X027367Y007400D02*
X027367Y007880D01*
X026367Y007880D02*
X026367Y007400D01*
X025367Y007400D02*
X025367Y007880D01*
X024367Y007880D02*
X024367Y007400D01*
X023367Y007400D02*
X023367Y007880D01*
X022367Y007880D02*
X022367Y007400D01*
X021367Y007400D02*
X021367Y007880D01*
X032627Y016140D02*
X033107Y016140D01*
X033107Y017140D02*
X032627Y017140D01*
X032627Y018140D02*
X033107Y018140D01*
X033107Y019140D02*
X032627Y019140D01*
X032627Y020140D02*
X033107Y020140D01*
X033107Y021140D02*
X032627Y021140D01*
X032627Y022140D02*
X033107Y022140D01*
X035627Y022140D02*
X036107Y022140D01*
X036107Y021140D02*
X035627Y021140D01*
X035627Y020140D02*
X036107Y020140D01*
X036107Y019140D02*
X035627Y019140D01*
X035627Y018140D02*
X036107Y018140D01*
X036107Y017140D02*
X035627Y017140D01*
X035627Y016140D02*
X036107Y016140D01*
X019367Y016400D02*
X019367Y016880D01*
X018367Y016880D02*
X018367Y016400D01*
X017367Y016400D02*
X017367Y016880D01*
X016367Y016880D02*
X016367Y016400D01*
X015367Y016400D02*
X015367Y016880D01*
X014367Y016880D02*
X014367Y016400D01*
X013367Y016400D02*
X013367Y016880D01*
X012367Y016880D02*
X012367Y016400D01*
X011367Y016400D02*
X011367Y016880D01*
X010367Y016880D02*
X010367Y016400D01*
X009367Y016400D02*
X009367Y016880D01*
X008367Y016880D02*
X008367Y016400D01*
X007367Y016400D02*
X007367Y016880D01*
X006367Y016880D02*
X006367Y016400D01*
D12*
X006367Y019140D03*
X007367Y019140D03*
X008367Y019140D03*
X009367Y019140D03*
X010367Y019140D03*
X011367Y019140D03*
X011367Y020140D03*
X010367Y020140D03*
X009367Y020140D03*
X008367Y020140D03*
X007367Y020140D03*
X006367Y020140D03*
X006367Y021140D03*
X007367Y021140D03*
X008367Y021140D03*
X009367Y021140D03*
X010367Y021140D03*
X011367Y021140D03*
X002367Y017140D03*
X002367Y016140D03*
X002367Y015140D03*
X002367Y014140D03*
X002367Y013140D03*
X002367Y012140D03*
X013867Y012140D03*
X014867Y012140D03*
X015867Y012140D03*
X022867Y013140D03*
X023867Y013140D03*
X024867Y013140D03*
X025867Y013140D03*
X026867Y013140D03*
X035867Y008140D03*
X036867Y008140D03*
X037867Y008140D03*
X026867Y021140D03*
X025867Y021140D03*
X024867Y021140D03*
X023867Y021140D03*
X022867Y021140D03*
D13*
X030367Y024640D03*
X031367Y024640D03*
X032367Y024640D03*
X032367Y023640D03*
X036367Y023640D03*
X036367Y024640D03*
X037367Y024640D03*
X038367Y024640D03*
X036367Y014640D03*
X032367Y014640D03*
X031617Y012890D03*
X030867Y012390D03*
X031617Y011890D03*
X029367Y013140D03*
X029367Y009140D03*
X020367Y009140D03*
X020367Y013140D03*
X003617Y013640D03*
X003617Y009640D03*
D14*
X030867Y008440D02*
X030867Y007840D01*
X031867Y007840D02*
X031867Y008440D01*
X032867Y008440D02*
X032867Y007840D01*
D15*
X031217Y002240D02*
X031219Y002290D01*
X031225Y002340D01*
X031235Y002390D01*
X031248Y002438D01*
X031265Y002486D01*
X031286Y002532D01*
X031310Y002576D01*
X031338Y002618D01*
X031369Y002658D01*
X031403Y002695D01*
X031440Y002730D01*
X031479Y002761D01*
X031520Y002790D01*
X031564Y002815D01*
X031610Y002837D01*
X031657Y002855D01*
X031705Y002869D01*
X031754Y002880D01*
X031804Y002887D01*
X031854Y002890D01*
X031905Y002889D01*
X031955Y002884D01*
X032005Y002875D01*
X032053Y002863D01*
X032101Y002846D01*
X032147Y002826D01*
X032192Y002803D01*
X032235Y002776D01*
X032275Y002746D01*
X032313Y002713D01*
X032348Y002677D01*
X032381Y002638D01*
X032410Y002597D01*
X032436Y002554D01*
X032459Y002509D01*
X032478Y002462D01*
X032493Y002414D01*
X032505Y002365D01*
X032513Y002315D01*
X032517Y002265D01*
X032517Y002215D01*
X032513Y002165D01*
X032505Y002115D01*
X032493Y002066D01*
X032478Y002018D01*
X032459Y001971D01*
X032436Y001926D01*
X032410Y001883D01*
X032381Y001842D01*
X032348Y001803D01*
X032313Y001767D01*
X032275Y001734D01*
X032235Y001704D01*
X032192Y001677D01*
X032147Y001654D01*
X032101Y001634D01*
X032053Y001617D01*
X032005Y001605D01*
X031955Y001596D01*
X031905Y001591D01*
X031854Y001590D01*
X031804Y001593D01*
X031754Y001600D01*
X031705Y001611D01*
X031657Y001625D01*
X031610Y001643D01*
X031564Y001665D01*
X031520Y001690D01*
X031479Y001719D01*
X031440Y001750D01*
X031403Y001785D01*
X031369Y001822D01*
X031338Y001862D01*
X031310Y001904D01*
X031286Y001948D01*
X031265Y001994D01*
X031248Y002042D01*
X031235Y002090D01*
X031225Y002140D01*
X031219Y002190D01*
X031217Y002240D01*
X002217Y008140D02*
X002219Y008190D01*
X002225Y008240D01*
X002235Y008290D01*
X002248Y008338D01*
X002265Y008386D01*
X002286Y008432D01*
X002310Y008476D01*
X002338Y008518D01*
X002369Y008558D01*
X002403Y008595D01*
X002440Y008630D01*
X002479Y008661D01*
X002520Y008690D01*
X002564Y008715D01*
X002610Y008737D01*
X002657Y008755D01*
X002705Y008769D01*
X002754Y008780D01*
X002804Y008787D01*
X002854Y008790D01*
X002905Y008789D01*
X002955Y008784D01*
X003005Y008775D01*
X003053Y008763D01*
X003101Y008746D01*
X003147Y008726D01*
X003192Y008703D01*
X003235Y008676D01*
X003275Y008646D01*
X003313Y008613D01*
X003348Y008577D01*
X003381Y008538D01*
X003410Y008497D01*
X003436Y008454D01*
X003459Y008409D01*
X003478Y008362D01*
X003493Y008314D01*
X003505Y008265D01*
X003513Y008215D01*
X003517Y008165D01*
X003517Y008115D01*
X003513Y008065D01*
X003505Y008015D01*
X003493Y007966D01*
X003478Y007918D01*
X003459Y007871D01*
X003436Y007826D01*
X003410Y007783D01*
X003381Y007742D01*
X003348Y007703D01*
X003313Y007667D01*
X003275Y007634D01*
X003235Y007604D01*
X003192Y007577D01*
X003147Y007554D01*
X003101Y007534D01*
X003053Y007517D01*
X003005Y007505D01*
X002955Y007496D01*
X002905Y007491D01*
X002854Y007490D01*
X002804Y007493D01*
X002754Y007500D01*
X002705Y007511D01*
X002657Y007525D01*
X002610Y007543D01*
X002564Y007565D01*
X002520Y007590D01*
X002479Y007619D01*
X002440Y007650D01*
X002403Y007685D01*
X002369Y007722D01*
X002338Y007762D01*
X002310Y007804D01*
X002286Y007848D01*
X002265Y007894D01*
X002248Y007942D01*
X002235Y007990D01*
X002225Y008040D01*
X002219Y008090D01*
X002217Y008140D01*
X002217Y024140D02*
X002219Y024190D01*
X002225Y024240D01*
X002235Y024290D01*
X002248Y024338D01*
X002265Y024386D01*
X002286Y024432D01*
X002310Y024476D01*
X002338Y024518D01*
X002369Y024558D01*
X002403Y024595D01*
X002440Y024630D01*
X002479Y024661D01*
X002520Y024690D01*
X002564Y024715D01*
X002610Y024737D01*
X002657Y024755D01*
X002705Y024769D01*
X002754Y024780D01*
X002804Y024787D01*
X002854Y024790D01*
X002905Y024789D01*
X002955Y024784D01*
X003005Y024775D01*
X003053Y024763D01*
X003101Y024746D01*
X003147Y024726D01*
X003192Y024703D01*
X003235Y024676D01*
X003275Y024646D01*
X003313Y024613D01*
X003348Y024577D01*
X003381Y024538D01*
X003410Y024497D01*
X003436Y024454D01*
X003459Y024409D01*
X003478Y024362D01*
X003493Y024314D01*
X003505Y024265D01*
X003513Y024215D01*
X003517Y024165D01*
X003517Y024115D01*
X003513Y024065D01*
X003505Y024015D01*
X003493Y023966D01*
X003478Y023918D01*
X003459Y023871D01*
X003436Y023826D01*
X003410Y023783D01*
X003381Y023742D01*
X003348Y023703D01*
X003313Y023667D01*
X003275Y023634D01*
X003235Y023604D01*
X003192Y023577D01*
X003147Y023554D01*
X003101Y023534D01*
X003053Y023517D01*
X003005Y023505D01*
X002955Y023496D01*
X002905Y023491D01*
X002854Y023490D01*
X002804Y023493D01*
X002754Y023500D01*
X002705Y023511D01*
X002657Y023525D01*
X002610Y023543D01*
X002564Y023565D01*
X002520Y023590D01*
X002479Y023619D01*
X002440Y023650D01*
X002403Y023685D01*
X002369Y023722D01*
X002338Y023762D01*
X002310Y023804D01*
X002286Y023848D01*
X002265Y023894D01*
X002248Y023942D01*
X002235Y023990D01*
X002225Y024040D01*
X002219Y024090D01*
X002217Y024140D01*
D16*
X003867Y017140D03*
X004867Y017140D03*
X012867Y019140D03*
X013867Y019140D03*
X031867Y010140D03*
X033867Y011890D03*
X035367Y013140D03*
X036367Y013140D03*
D17*
X033867Y010890D03*
X030867Y010140D03*
D18*
X030036Y015097D03*
X030036Y015884D03*
X030036Y016671D03*
X030036Y017459D03*
X030036Y018246D03*
X030036Y019034D03*
X030036Y019821D03*
X030036Y020609D03*
X030036Y021396D03*
X030036Y022183D03*
X038697Y022183D03*
X038697Y021396D03*
X038697Y020609D03*
X038697Y019821D03*
X038697Y019034D03*
X038697Y018246D03*
X038697Y017459D03*
X038697Y016671D03*
X038697Y015884D03*
X038697Y015097D03*
D19*
X037867Y011849D03*
X037867Y010471D03*
D20*
X018867Y010140D03*
X016867Y010140D03*
X014867Y010140D03*
X012867Y010140D03*
X010867Y010140D03*
X008867Y010140D03*
X006867Y010140D03*
X004867Y010140D03*
X004867Y007581D03*
X006867Y007581D03*
X008867Y007581D03*
X010867Y007581D03*
X012867Y007581D03*
X014867Y007581D03*
X016867Y007581D03*
X018867Y007581D03*
D21*
X018367Y019640D03*
X018367Y020640D03*
X017367Y020640D03*
X016367Y020640D03*
X016367Y019640D03*
X017367Y019640D03*
D22*
X016367Y020640D02*
X013867Y020640D01*
X013867Y019140D01*
X013867Y020640D02*
X011867Y020640D01*
X011367Y020140D01*
X014367Y016640D02*
X014367Y015640D01*
X013867Y015140D01*
X012867Y015140D01*
X012367Y014640D01*
X012367Y013640D01*
X012367Y010640D01*
X011867Y010140D01*
X011867Y009140D01*
X020367Y009140D01*
X021367Y010640D02*
X020867Y011140D01*
X015367Y011140D01*
X014867Y011640D01*
X014867Y012140D01*
X011867Y009140D02*
X011367Y008640D01*
X004617Y008640D01*
X003617Y009640D01*
X029367Y009140D02*
X030867Y009140D01*
X030867Y010140D01*
X030867Y012390D01*
X031617Y011890D02*
X031867Y011890D01*
X033867Y011890D01*
X036367Y011890D01*
X037825Y011890D01*
X037867Y011849D01*
X036367Y011890D02*
X036367Y013140D01*
X034367Y010890D02*
X033867Y010890D01*
X033367Y010890D01*
X032867Y010390D01*
X032867Y008140D01*
X031867Y008140D02*
X031867Y010140D01*
X031867Y011890D01*
X034367Y010890D02*
X035867Y009390D01*
X030867Y009140D02*
X030867Y008140D01*
D23*
X027367Y007640D02*
X026867Y008140D01*
X026867Y013140D01*
X026367Y012640D02*
X025867Y013140D01*
X026367Y012640D02*
X026367Y010640D01*
X024867Y011640D02*
X024867Y007140D01*
X025367Y007640D02*
X025867Y008140D01*
X025867Y011890D01*
X025367Y012390D01*
X021367Y012390D01*
X020617Y013140D01*
X020367Y013140D01*
X020367Y013640D01*
X018367Y015640D01*
X018367Y016640D01*
X019367Y016640D02*
X019367Y015258D01*
X020485Y014140D01*
X031117Y014140D01*
X031617Y014640D01*
X032367Y014640D01*
X033617Y014640D01*
X034117Y015140D01*
X034117Y019140D01*
X034117Y021640D01*
X033617Y022140D01*
X032867Y022140D01*
X033867Y022890D02*
X036367Y022890D01*
X036617Y022640D01*
X036617Y018390D01*
X036367Y018140D01*
X035867Y018140D01*
X035867Y017140D01*
X033617Y018390D02*
X033367Y018640D01*
X032367Y018640D01*
X032117Y018890D01*
X032117Y020890D01*
X032367Y021140D01*
X032867Y021140D01*
X031867Y021140D02*
X031611Y021396D01*
X030036Y021396D01*
X030036Y022183D02*
X030160Y022183D01*
X030617Y022640D01*
X035367Y022640D01*
X035867Y022140D01*
X033867Y022890D02*
X033617Y023140D01*
X033617Y024140D01*
X032617Y025140D01*
X029676Y025140D01*
X029117Y024581D01*
X029117Y015244D01*
X028763Y014890D01*
X021268Y014890D01*
X020768Y015390D01*
X020768Y017739D01*
X020367Y018140D01*
X018367Y018140D01*
X007367Y018140D01*
X006867Y017640D01*
X006867Y014140D01*
X006367Y013640D01*
X004867Y013640D01*
X004867Y010140D01*
X006867Y010140D02*
X009367Y012640D01*
X009367Y013640D01*
X008867Y014140D02*
X008367Y013640D01*
X008867Y014140D02*
X008867Y017140D01*
X009367Y017640D01*
X019867Y017640D01*
X020117Y017390D01*
X020117Y014890D01*
X020617Y014390D01*
X030867Y014390D01*
X031617Y015140D01*
X033117Y015140D01*
X033617Y015640D01*
X033617Y018390D01*
X032867Y018140D02*
X032367Y018140D01*
X031867Y018640D01*
X031867Y021140D01*
X032867Y019140D02*
X034117Y019140D01*
X032867Y017140D02*
X032367Y017140D01*
X032117Y016890D01*
X032117Y015640D01*
X031867Y015390D01*
X031367Y015390D01*
X030617Y014640D01*
X020867Y014640D01*
X020367Y015140D01*
X020367Y017640D01*
X020117Y017890D01*
X008367Y017890D01*
X007867Y017390D01*
X007867Y014140D01*
X007367Y013640D01*
X004867Y013640D02*
X003617Y013640D01*
X004867Y013640D02*
X004867Y017140D01*
X003867Y017140D02*
X002367Y017140D01*
X010367Y013640D02*
X010367Y011640D01*
X008867Y010140D01*
X010867Y010140D02*
X011367Y010640D01*
X011367Y013640D01*
X013867Y012140D02*
X014367Y012640D01*
X014367Y013640D01*
X015367Y013640D02*
X015367Y012640D01*
X015867Y012140D01*
X016867Y012140D02*
X016867Y014640D01*
X015367Y016140D01*
X015367Y016640D01*
X016367Y016640D02*
X016367Y016140D01*
X017867Y014640D01*
X017867Y012390D01*
X018367Y011890D01*
X023367Y011890D01*
X023867Y011390D01*
X023867Y008140D01*
X024367Y007640D01*
X023367Y007640D02*
X022867Y008140D01*
X022867Y011140D01*
X022367Y011640D01*
X017367Y011640D01*
X016867Y012140D01*
X018867Y012640D02*
X018867Y014640D01*
X017367Y016140D01*
X017367Y016640D01*
X018367Y018140D02*
X018367Y019640D01*
X024867Y013640D02*
X025117Y013890D01*
X029117Y013890D01*
X029367Y013640D01*
X029367Y013140D01*
X030867Y013390D02*
X030867Y012390D01*
X031617Y012890D02*
X035117Y012890D01*
X035367Y013140D01*
X035617Y013890D02*
X036367Y014640D01*
X035617Y013890D02*
X031367Y013890D01*
X030867Y013390D01*
X024867Y013640D02*
X024867Y013140D01*
X024367Y012140D02*
X019367Y012140D01*
X018867Y012640D01*
X024367Y012140D02*
X024867Y011640D01*
X026367Y007640D02*
X026367Y007140D01*
X029760Y018246D02*
X030036Y018246D01*
X029760Y018246D02*
X029367Y018640D01*
X029367Y023640D01*
X030367Y024640D01*
X031367Y024640D02*
X032367Y023640D01*
X036367Y024640D02*
X037367Y024640D01*
X038117Y024390D02*
X038367Y024640D01*
X038117Y024390D02*
X038117Y018640D01*
X038510Y018246D01*
X038697Y018246D01*
D24*
X037867Y010471D02*
X037867Y008140D01*
X036867Y008140D02*
X036867Y008390D01*
X035867Y009390D01*
D25*
X026367Y007140D02*
X026117Y006890D01*
X025117Y006890D01*
X024867Y007140D01*
M02*
