%
M48
M72
T01C0.0276
T02C0.0315
T03C0.0320
T04C0.0394
T05C0.0400
T06C0.0512
T07C0.1300
%
T01
X3867Y17140
X4867Y17140
X12867Y19140
X13867Y19140
X30867Y10140
X31867Y10140
X33867Y10890
X33867Y11890
X35367Y13140
X36367Y13140
T02
X38697Y15097
X38697Y15884
X38697Y16671
X38697Y17459
X38697Y18246
X38697Y19034
X38697Y19821
X38697Y20609
X38697Y21396
X38697Y22183
X30036Y22183
X30036Y21396
X30036Y20609
X30036Y19821
X30036Y19034
X30036Y18246
X30036Y17459
X30036Y16671
X30036Y15884
X30036Y15097
X15867Y12140
X14867Y12140
X13867Y12140
T03
X14367Y13640
X15367Y13640
X16367Y13640
X17367Y13640
X18367Y13640
X19367Y13640
X20367Y13140
X21367Y10640
X22367Y10640
X23367Y10640
X24367Y10640
X25367Y10640
X26367Y10640
X27367Y10640
X28367Y10640
X29367Y9140
X28367Y7640
X27367Y7640
X26367Y7640
X25367Y7640
X24367Y7640
X23367Y7640
X22367Y7640
X21367Y7640
X20367Y9140
X13367Y13640
X12367Y13640
X11367Y13640
X10367Y13640
X9367Y13640
X8367Y13640
X7367Y13640
X6367Y13640
X3617Y13640
X6367Y16640
X7367Y16640
X8367Y16640
X9367Y16640
X10367Y16640
X11367Y16640
X12367Y16640
X13367Y16640
X14367Y16640
X15367Y16640
X16367Y16640
X17367Y16640
X18367Y16640
X19367Y16640
X29367Y13140
X30867Y12390
X31617Y12890
X31617Y11890
X32367Y14640
X32867Y16140
X32867Y17140
X32867Y18140
X32867Y19140
X32867Y20140
X32867Y21140
X32867Y22140
X32367Y23640
X32367Y24640
X31367Y24640
X30367Y24640
X35867Y22140
X35867Y21140
X35867Y20140
X35867Y19140
X35867Y18140
X35867Y17140
X35867Y16140
X36367Y14640
X36367Y23640
X36367Y24640
X37367Y24640
X38367Y24640
X3617Y9640
T04
X22867Y13140
X23867Y13140
X24867Y13140
X25867Y13140
X26867Y13140
X37867Y11849
X37867Y10471
X26867Y21140
X25867Y21140
X24867Y21140
X23867Y21140
X22867Y21140
T05
X18367Y20640
X18367Y19640
X17367Y19640
X16367Y19640
X16367Y20640
X17367Y20640
X11367Y20140
X10367Y20140
X10367Y19140
X11367Y19140
X9367Y19140
X8367Y19140
X8367Y20140
X9367Y20140
X9367Y21140
X8367Y21140
X7367Y21140
X6367Y21140
X6367Y20140
X7367Y20140
X7367Y19140
X6367Y19140
X10367Y21140
X11367Y21140
X2367Y17140
X2367Y16140
X2367Y15140
X2367Y14140
X2367Y13140
X2367Y12140
X30867Y8140
X31867Y8140
X32867Y8140
X35867Y8140
X36867Y8140
X37867Y8140
T06
X4867Y7581
X6867Y7581
X8867Y7581
X10867Y7581
X12867Y7581
X14867Y7581
X16867Y7581
X18867Y7581
X18867Y10140
X16867Y10140
X14867Y10140
X12867Y10140
X10867Y10140
X8867Y10140
X6867Y10140
X4867Y10140
T07
X2867Y8140
X2867Y24140
X31867Y2240
M30
