G75*
G70*
%OFA0B0*%
%FSLAX24Y24*%
%IPPOS*%
%LPD*%
%AMOC8*
5,1,8,0,0,1.08239X$1,22.5*
%
%ADD10C,0.0040*%
D10*
X006866Y010700D02*
X007020Y010700D01*
X007097Y010777D01*
X006790Y011084D01*
X006790Y010777D01*
X006866Y010700D01*
X007097Y010777D02*
X007097Y011084D01*
X007020Y011160D01*
X006866Y011160D01*
X006790Y011084D01*
X008790Y010700D02*
X009097Y010700D01*
X008943Y010700D02*
X008943Y011160D01*
X009097Y011007D01*
X010790Y011007D02*
X010790Y011084D01*
X010866Y011160D01*
X011020Y011160D01*
X011097Y011084D01*
X010790Y011007D02*
X011097Y010700D01*
X010790Y010700D01*
X012790Y010777D02*
X012866Y010700D01*
X013020Y010700D01*
X013097Y010777D01*
X012943Y010930D02*
X012866Y010930D01*
X012790Y010853D01*
X012790Y010777D01*
X012866Y010930D02*
X012790Y011007D01*
X012790Y011084D01*
X012866Y011160D01*
X013020Y011160D01*
X013097Y011084D01*
X014790Y010930D02*
X015097Y010930D01*
X014866Y011160D01*
X014866Y010700D01*
X016790Y010777D02*
X016866Y010700D01*
X017020Y010700D01*
X017097Y010777D01*
X017097Y010930D02*
X016943Y011007D01*
X016866Y011007D01*
X016790Y010930D01*
X016790Y010777D01*
X017097Y010930D02*
X017097Y011160D01*
X016790Y011160D01*
X018790Y011160D02*
X018943Y011084D01*
X019097Y010930D01*
X018866Y010930D01*
X018790Y010853D01*
X018790Y010777D01*
X018866Y010700D01*
X019020Y010700D01*
X019097Y010777D01*
X019097Y010930D01*
M02*
